<svg width="36" height="32" viewBox="0 0 36 32" fill="none" xmlns="http://www.w3.org/2000/svg">
<path d="M12.9305 28.0572C13.5458 28.5974 14.181 29.1549 14.8345 29.7328C14.8389 29.7367 14.8434 29.7408 14.848 29.7447L17.0217 31.6223C17.3129 31.8739 17.6744 31.9997 18.0358 31.9997C18.3973 31.9997 18.7589 31.8738 19.0501 31.6223L21.2234 29.7447C21.2279 29.7408 21.2324 29.7368 21.2368 29.7329C25.5399 25.9274 28.7661 23.0141 31.1002 20.1727C33.8263 16.8541 35.0961 13.8536 35.0961 10.7298C35.0961 5.0783 30.6692 0.651367 25.0179 0.651367C22.4779 0.651367 19.9682 1.6078 18.0358 3.26574C16.103 1.6077 13.5933 0.651367 11.0532 0.651367C5.40164 0.651264 0.974609 5.0783 0.974609 10.7297C0.974609 17.5612 5.73093 21.7367 12.9305 28.0572ZM11.8301 13.223H15.9668V9.08606H20.1037V13.223H24.2406V17.3598H20.1037V21.4966H15.9668V17.3598H11.8301V13.223Z" fill="#CDB04E"/>
</svg>
