<svg width="31" height="31" viewBox="0 0 31 31" fill="none" xmlns="http://www.w3.org/2000/svg">
<path d="M20.1956 10.1309L17.0564 9.67469L15.6525 6.83008L14.2486 9.67469L11.1094 10.1309L13.3809 12.345L12.8447 15.4717L15.6525 13.9955L18.4603 15.4717L17.9241 12.345L20.1956 10.1309Z" fill="#CDB04E"/>
<path d="M26.8878 11.6066C26.8878 5.41134 21.8476 0.371094 15.6524 0.371094C9.45718 0.371094 4.41699 5.41134 4.41699 11.6066C4.41699 17.8018 9.45718 22.842 15.6524 22.842C21.8476 22.842 26.8878 17.8018 26.8878 11.6066ZM15.6524 16.027L10.4559 18.7589L11.4483 12.9725L7.24422 8.87448L13.0541 8.0303L15.6524 2.76565L18.2507 8.03035L24.0606 8.87454L19.8565 12.9725L20.849 18.759L15.6524 16.027Z" fill="#CDB04E"/>
<path d="M26.1337 19.3589L26.1287 19.3625C24.5095 21.5586 22.2614 23.1763 19.6437 24.0149L19.6299 24.0249L24.5246 30.7619L25.4694 25.2533L31.0003 26.0571L26.1337 19.3589Z" fill="#CDB04E"/>
<path d="M5.17623 19.3625L5.17119 19.3589L0.304688 26.0571L5.83558 25.2534L6.78037 30.7619L11.6751 24.0249L11.6613 24.015C9.04357 23.1762 6.79548 21.5586 5.17623 19.3625Z" fill="#CDB04E"/>
</svg>
