<svg width="27" height="30" viewBox="0 0 27 30" fill="none" xmlns="http://www.w3.org/2000/svg">
<path d="M23.5335 2.1701L14.2002 0.0900984C13.6287 -0.0300328 13.0384 -0.0300328 12.4669 0.0900984L3.13352 2.1701C2.24457 2.36739 1.44955 2.86208 0.879828 3.57241C0.31011 4.28274 -0.000198681 5.16619 0.000184675 6.07676V11.5034C-0.0166034 15.2879 1.11158 18.9889 3.23655 22.1204C5.36153 25.252 8.38395 27.6676 11.9069 29.0501C12.3595 29.236 12.8442 29.3312 13.3335 29.3301C13.8214 29.3289 14.3049 29.2386 14.7602 29.0634C18.282 27.6754 21.3028 25.2566 23.4272 22.1235C25.5517 18.9904 26.6808 15.2889 26.6669 11.5034V6.07676C26.6672 5.16619 26.3569 4.28274 25.7872 3.57241C25.2175 2.86208 24.4225 2.36739 23.5335 2.1701ZM19.6669 11.6768L13.2535 17.9834C13.0037 18.2318 12.6658 18.3712 12.3135 18.3712C11.9613 18.3712 11.6233 18.2318 11.3735 17.9834L8.33352 14.9968C8.20855 14.8728 8.10935 14.7253 8.04166 14.5629C7.97397 14.4004 7.93912 14.2261 7.93912 14.0501C7.93912 13.8741 7.97397 13.6998 8.04166 13.5373C8.10935 13.3748 8.20855 13.2274 8.33352 13.1034C8.58333 12.8551 8.92127 12.7157 9.27352 12.7157C9.62577 12.7157 9.9637 12.8551 10.2135 13.1034L12.3202 15.1701L17.8002 9.83676C17.9254 9.71332 18.0737 9.61575 18.2366 9.54961C18.3995 9.48347 18.5738 9.45007 18.7496 9.45131C18.9254 9.45255 19.0993 9.4884 19.2612 9.55683C19.4232 9.62525 19.5701 9.72491 19.6935 9.8501C19.817 9.97529 19.9145 10.1236 19.9807 10.2865C20.0468 10.4494 20.0802 10.6237 20.079 10.7995C20.0777 10.9753 20.0419 11.1492 19.9735 11.3111C19.905 11.4731 19.8054 11.62 19.6802 11.7434L19.6669 11.6768Z" fill="#CDB04E"/>
</svg>
