<svg width="45" height="45" viewBox="0 0 45 45" fill="none" xmlns="http://www.w3.org/2000/svg">
<path d="M4.28516 11.5714C5.37801 12.4821 6.47087 13.3929 8.83873 13.3929C13.3923 13.3929 13.3923 9.75 17.9459 9.75C22.6816 9.75 22.3173 13.3929 27.053 13.3929C31.6066 13.3929 31.6066 9.75 36.1602 9.75C38.528 9.75 39.6209 10.6607 40.7137 11.5714" stroke="#01292B" stroke-width="2.42857" stroke-linecap="round" stroke-linejoin="round"/>
<path d="M4.28516 22.5C5.37801 23.4107 6.47087 24.3214 8.83873 24.3214C13.3923 24.3214 13.3923 20.6786 17.9459 20.6786C22.6816 20.6786 22.3173 24.3214 27.053 24.3214C31.6066 24.3214 31.6066 20.6786 36.1602 20.6786C38.528 20.6786 39.6209 21.5893 40.7137 22.5" stroke="#01292B" stroke-width="2.42857" stroke-linecap="round" stroke-linejoin="round"/>
<path d="M4.28516 33.4285C5.37801 34.3392 6.47087 35.2499 8.83873 35.2499C13.3923 35.2499 13.3923 31.6071 17.9459 31.6071C22.6816 31.6071 22.3173 35.2499 27.053 35.2499C31.6066 35.2499 31.6066 31.6071 36.1602 31.6071C38.528 31.6071 39.6209 32.5178 40.7137 33.4285" stroke="#01292B" stroke-width="2.42857" stroke-linecap="round" stroke-linejoin="round"/>
</svg>
