<svg width="42" height="42" viewBox="0 0 42 42" fill="none" xmlns="http://www.w3.org/2000/svg">
<path d="M31.15 33.6L28 19.25L34.125 13.125C36.75 10.5 37.625 7 36.75 5.25C35 4.375 31.5 5.25 28.875 7.875L22.75 14L8.4 10.85C7.525 10.675 6.825 11.025 6.475 11.725L5.95 12.6C5.6 13.475 5.775 14.35 6.475 14.875L15.75 21L12.25 26.25H7L5.25 28L10.5 31.5L14 36.75L15.75 35V29.75L21 26.25L27.125 35.525C27.65 36.225 28.525 36.4 29.4 36.05L30.275 35.7C30.975 35.175 31.325 34.475 31.15 33.6Z" stroke="#01292B" stroke-width="2" stroke-linecap="round" stroke-linejoin="round"/>
</svg>
