<svg width="38" height="38" viewBox="0 0 38 38" fill="none" xmlns="http://www.w3.org/2000/svg">
<path d="M15.833 3.16663V6.33329" stroke="#01292B" stroke-width="2" stroke-linecap="round" stroke-linejoin="round"/>
<path d="M22.167 3.16663V6.33329" stroke="#01292B" stroke-width="2" stroke-linecap="round" stroke-linejoin="round"/>
<path d="M25.3333 12.6666C25.7533 12.6666 26.156 12.8334 26.4529 13.1304C26.7499 13.4273 26.9167 13.83 26.9167 14.25V26.9166C26.9167 28.5963 26.2494 30.2072 25.0617 31.395C23.8739 32.5827 22.263 33.25 20.5833 33.25H11.0833C9.40363 33.25 7.79272 32.5827 6.60499 31.395C5.41726 30.2072 4.75 28.5963 4.75 26.9166V14.25C4.75 13.83 4.91681 13.4273 5.21375 13.1304C5.51068 12.8334 5.91341 12.6666 6.33333 12.6666H28.5C30.1797 12.6666 31.7906 13.3339 32.9783 14.5216C34.1661 15.7093 34.8333 17.3203 34.8333 19C34.8333 20.6797 34.1661 22.2906 32.9783 23.4783C31.7906 24.666 30.1797 25.3333 28.5 25.3333H26.9167" stroke="#01292B" stroke-width="2" stroke-linecap="round" stroke-linejoin="round"/>
<path d="M9.5 3.16663V6.33329" stroke="#01292B" stroke-width="2" stroke-linecap="round" stroke-linejoin="round"/>
</svg>
