<svg width="13" height="17" viewBox="0 0 13 17" fill="none" xmlns="http://www.w3.org/2000/svg">
<path d="M6.41922 0.824097C3.1396 0.824097 0.470703 3.5115 0.470703 6.81557C0.470703 11.5103 5.86006 16.3577 6.0894 16.5612C6.18392 16.6452 6.30157 16.6868 6.41922 16.6868C6.53686 16.6868 6.65451 16.6452 6.74903 16.5619C6.97838 16.3577 12.3677 11.5103 12.3677 6.81557C12.3677 3.5115 9.69883 0.824097 6.41922 0.824097ZM6.41922 10.0773C4.59699 10.0773 3.11449 8.59484 3.11449 6.77261C3.11449 4.95038 4.59699 3.46788 6.41922 3.46788C8.24144 3.46788 9.72394 4.95038 9.72394 6.77261C9.72394 8.59484 8.24144 10.0773 6.41922 10.0773Z" fill="#CDB04E"/>
</svg>
