<svg width="38" height="38" viewBox="0 0 38 38" fill="none" xmlns="http://www.w3.org/2000/svg">
<path d="M26.917 22.1667L31.667 27.3917C31.8839 27.613 32.0312 27.8931 32.0905 28.1973C32.1498 28.5015 32.1185 28.8164 32.0005 29.103C31.8824 29.3896 31.6829 29.6352 31.4266 29.8095C31.1703 29.9838 30.8685 30.079 30.5586 30.0833H7.44195C7.13205 30.079 6.83025 29.9838 6.57395 29.8095C6.31765 29.6352 6.11813 29.3896 6.00012 29.103C5.88211 28.8164 5.85081 28.5015 5.9101 28.1973C5.96938 27.8931 6.11664 27.613 6.33362 27.3917L11.0836 22.1667H10.6086C10.2987 22.1623 9.99691 22.0671 9.74061 21.8928C9.48431 21.7186 9.28479 21.4729 9.16679 21.1863C9.04878 20.8998 9.01748 20.5848 9.07676 20.2806C9.13604 19.9764 9.2833 19.6963 9.50029 19.475L14.2503 14.25H13.9336C13.6102 14.2792 13.2857 14.2082 13.004 14.0467C12.7222 13.8852 12.497 13.6411 12.3587 13.3472C12.2205 13.0534 12.1759 12.7242 12.231 12.4042C12.2862 12.0842 12.4383 11.7889 12.667 11.5583L19.0003 4.75L25.3336 11.5583C25.5622 11.7889 25.7144 12.0842 25.7695 12.4042C25.8247 12.7242 25.7801 13.0534 25.6418 13.3472C25.5036 13.6411 25.2783 13.8852 24.9966 14.0467C24.7149 14.2082 24.3904 14.2792 24.067 14.25H23.7503L28.5003 19.475C28.7173 19.6963 28.8645 19.9764 28.9238 20.2806C28.9831 20.5848 28.9518 20.8998 28.8338 21.1863C28.7158 21.4729 28.5163 21.7186 28.26 21.8928C28.0037 22.0671 27.7019 22.1623 27.392 22.1667H26.917Z" stroke="#01292B" stroke-width="2" stroke-linecap="round" stroke-linejoin="round"/>
<path d="M19 34.8334V30.0834" stroke="#01292B" stroke-width="2" stroke-linecap="round" stroke-linejoin="round"/>
</svg>
