<svg width="17" height="16" viewBox="0 0 17 16" fill="none" xmlns="http://www.w3.org/2000/svg">
<path fill-rule="evenodd" clip-rule="evenodd" d="M15.8383 11.0821C15.4706 10.8972 13.5097 9.97262 13.2033 9.84934C12.8356 9.72606 12.5905 9.66442 12.2841 10.0343C12.039 10.4041 11.3037 11.3287 11.0585 11.5752C10.8134 11.8218 10.6296 11.8218 10.2006 11.6369C9.83296 11.4519 8.54611 11.0821 7.07541 9.72606C5.91111 8.6782 5.11448 7.38378 4.86936 7.01395C4.68553 6.64412 4.86937 6.39756 5.0532 6.21265C5.23704 6.02773 5.48216 5.78118 5.66599 5.53462C5.72727 5.47298 5.72727 5.41134 5.78855 5.3497C5.91111 5.22643 5.97239 5.10315 6.03367 4.85659C6.15622 4.61004 6.09494 4.42512 6.03367 4.17857C5.91111 3.99365 5.11448 2.08285 4.80809 1.28154C4.50169 0.541877 4.13402 0.665154 3.95018 0.665154C3.70506 0.665154 3.45995 0.603516 3.15355 0.603516C2.90844 0.603516 2.47948 0.726793 2.11181 1.09663C1.74414 1.5281 0.763672 2.45268 0.763672 4.36348C0.763672 4.79495 0.824951 5.28806 0.947509 5.71954C1.37646 7.07559 2.23437 8.18509 2.35693 8.43164C2.54076 8.6782 5.0532 12.7464 9.03634 14.2873C13.0195 15.8283 13.0195 15.3352 13.7548 15.2736C14.4289 15.2119 16.0221 14.349 16.3898 13.4244C16.6962 12.4998 16.6962 11.6985 16.5737 11.5752C16.5124 11.3903 16.2673 11.3287 15.8383 11.0821Z" fill="white"/>
</svg>
