<svg width="34" height="34" viewBox="0 0 34 34" fill="none" xmlns="http://www.w3.org/2000/svg">
<path d="M16.8255 0.666016C12.4132 0.666016 11.8616 0.666016 10.0845 0.7893C8.36855 0.850942 7.20418 1.15915 6.16238 1.52901C5.12058 1.9605 4.20135 2.51528 3.28212 3.43991C2.36288 4.3029 1.81134 5.22753 1.44364 6.33709C1.01467 7.32336 0.708259 8.55621 0.646977 10.2822C0.585695 12.0082 0.585693 12.5629 0.585693 17.0012C0.585693 21.4394 0.585695 21.9942 0.646977 23.7202C0.708259 25.5078 1.01467 26.679 1.44364 27.7269C1.81134 28.7748 2.36288 29.6994 3.28212 30.6241C4.20135 31.4871 5.12058 32.1035 6.16238 32.4733C7.20418 32.9048 8.36855 33.1514 10.0845 33.2747C11.8616 33.3363 12.4132 33.3363 16.8255 33.3363C21.2378 33.3363 21.7894 33.3363 23.5053 33.2747C25.2212 33.1514 26.3855 32.9048 27.4273 32.4733C28.5304 32.1035 29.3884 31.4871 30.3076 30.6241C31.2268 29.6994 31.7784 28.7748 32.2074 27.7269C32.575 26.679 32.8815 25.5078 32.9427 23.7202C33.004 21.9942 33.0653 21.4394 33.0653 17.0012C33.0653 12.5629 33.004 12.0082 32.9427 10.2822C32.8815 8.55621 32.575 7.32336 32.2074 6.33709C31.7784 5.22753 31.2268 4.3029 30.3076 3.43991C29.3884 2.51528 28.5304 1.9605 27.4273 1.52901C26.3855 1.15915 25.2212 0.850942 23.5053 0.7893C21.7894 0.666016 21.2378 0.666016 16.8255 0.666016ZM16.8255 3.62484C21.1153 3.62484 21.6668 3.62484 23.3827 3.68648C24.976 3.80976 25.834 4.05633 26.3855 4.3029C27.1209 4.54947 27.6725 4.91932 28.224 5.4741C28.8368 6.09052 29.1432 6.6453 29.4497 7.38501C29.6948 7.93978 29.9399 8.80277 30.0012 10.4055C30.1238 12.1314 30.1238 12.6246 30.1238 17.0012C30.1238 21.3778 30.1238 21.8709 30.0012 23.5969C29.9399 25.1996 29.6948 26.0626 29.4497 26.679C29.1432 27.4187 28.8368 27.9735 28.224 28.5282C27.6725 29.083 27.1209 29.4529 26.3855 29.7611C25.834 29.946 24.976 30.2542 23.3827 30.3159C21.6668 30.3775 21.1153 30.3775 16.8255 30.3775C12.4745 30.3775 11.9229 30.3775 10.2683 30.3159C8.67496 30.2542 7.817 29.946 7.20418 29.7611C6.46879 29.4529 5.91726 29.083 5.36572 28.5282C4.81418 27.9735 4.44648 27.4187 4.14007 26.679C3.89494 26.0626 3.64981 25.1996 3.58852 23.5969C3.52724 21.8709 3.46596 21.3778 3.46596 17.0012C3.46596 12.6246 3.52724 12.1314 3.58852 10.4055C3.64981 8.80277 3.89494 7.93978 4.14007 7.38501C4.44648 6.6453 4.81418 6.09052 5.36572 5.4741C5.91726 4.91932 6.46879 4.54947 7.20418 4.3029C7.817 4.05633 8.67496 3.80976 10.2683 3.68648C11.9229 3.62484 12.4745 3.62484 16.8255 3.62484Z" fill="white"/>
<path d="M16.8256 22.4859C13.823 22.4859 11.3718 20.0204 11.3718 17.0001C11.3718 13.9798 13.823 11.5759 16.8256 11.5759C19.767 11.5759 22.2182 13.9798 22.2182 17.0001C22.2182 20.0204 19.767 22.4859 16.8256 22.4859ZM16.8256 8.61719C12.1684 8.61719 8.4917 12.3772 8.4917 17.0001C8.4917 21.623 12.1684 25.3829 16.8256 25.3829C21.4216 25.3829 25.1596 21.623 25.1596 17.0001C25.1596 12.3772 21.4216 8.61719 16.8256 8.61719Z" fill="white"/>
</svg>
