<svg width="32" height="26" viewBox="0 0 32 26" fill="none" xmlns="http://www.w3.org/2000/svg">
<path d="M0.439453 22.9864C3.25844 24.8357 6.69025 25.8836 10.3672 25.8836C22.3785 25.8836 29.1809 15.7126 28.7519 6.52797C30.0388 5.60333 31.1419 4.49378 31.9998 3.13765C30.8355 3.69243 29.5485 4.06228 28.2616 4.18557C29.6098 3.38422 30.6516 2.08974 31.1419 0.610325C29.855 1.35003 28.4455 1.90481 26.9747 2.15138C25.8103 0.918535 24.1557 0.117188 22.2559 0.117188C18.0888 0.117188 15.0246 4.06228 15.9439 8.13066C10.6123 7.82245 5.8323 5.23348 2.64562 1.28839C0.929715 4.24721 1.72638 8.06902 4.60665 9.97993C3.56485 9.97993 2.58434 9.67171 1.6651 9.17858C1.60382 12.199 3.74869 15.0346 6.87409 15.651C5.95486 15.8976 4.97434 15.9592 3.93254 15.7743C4.79049 18.3633 7.1805 20.2125 9.99949 20.2742C7.30307 22.4316 3.87126 23.4179 0.439453 22.9864Z" fill="white"/>
</svg>
