<svg width="33" height="34" viewBox="0 0 33 34" fill="none" xmlns="http://www.w3.org/2000/svg">
<path fill-rule="evenodd" clip-rule="evenodd" d="M16.5462 30.0067C13.7885 30.0067 11.2759 29.1437 9.19234 27.7876L3.98335 29.3903L5.69925 24.4589C4.10591 22.2398 3.1254 19.5275 3.1254 16.5687C3.1254 16.1372 3.1254 15.7057 3.18668 15.2742C3.86078 8.49359 9.56004 3.19237 16.5462 3.19237C23.5937 3.19237 29.3542 8.67851 29.9058 15.5208C29.967 15.8906 29.967 16.2605 29.967 16.5687C29.967 23.9658 23.9614 30.0067 16.5462 30.0067ZM32.4796 16.1988C32.2958 7.56896 25.2483 0.665039 16.5462 0.665039C7.9667 0.665039 0.980517 7.44567 0.612823 15.8906C0.612823 16.1372 0.612823 16.3838 0.612823 16.5687C0.612823 19.5892 1.40949 22.4247 2.88027 24.8287L0 33.3354L8.82465 30.5615C11.0921 31.7943 13.7272 32.534 16.5462 32.534C25.3709 32.534 32.4796 25.3835 32.4796 16.5687C32.4796 16.4454 32.4796 16.3221 32.4796 16.1988Z" fill="white"/>
</svg>
