<svg width="34" height="24" viewBox="0 0 34 24" fill="none" xmlns="http://www.w3.org/2000/svg">
<path d="M30.6063 0H2.94922C1.31974 0 0 1.32793 0 2.94922V20.6445C0 22.2754 1.32944 23.5938 2.94922 23.5938H30.6063C32.2222 23.5938 33.5556 22.281 33.5556 20.6445V2.94922C33.5556 1.33082 32.2411 0 30.6063 0ZM30.1933 1.96615C29.5908 2.56549 19.2212 12.8804 18.8632 13.2366C18.3061 13.7936 17.5655 14.1003 16.7778 14.1003C15.99 14.1003 15.2494 13.7936 14.6905 13.2347C14.4497 12.9952 4.19464 2.79416 3.36224 1.96615H30.1933ZM1.96615 20.2444V3.35064L10.4624 11.8021L1.96615 20.2444ZM3.36349 21.6276L11.8564 13.1887L13.3021 14.6268C14.2305 15.5552 15.4649 16.0665 16.7778 16.0665C18.0907 16.0665 19.3251 15.5552 20.2516 14.6286L21.6992 13.1887L30.1921 21.6276H3.36349ZM31.5894 20.2444L23.0932 11.8021L31.5894 3.35064V20.2444Z" fill="#01292B"/>
</svg>
