<svg width="16" height="16" viewBox="0 0 16 16" fill="none" xmlns="http://www.w3.org/2000/svg">
<path d="M6.3896 14.7236H3.16245C2.66013 14.7221 2.17873 14.5223 1.82289 14.1678C1.46705 13.8132 1.26554 13.3325 1.26217 12.8302V6.41343C1.26317 6.24056 1.30198 6.07 1.37589 5.91372C1.44979 5.75743 1.55699 5.61921 1.68998 5.50875L2.25809 5.08814C2.35849 4.98099 2.4184 4.8422 2.42751 4.69565C2.43661 4.5491 2.39434 4.40396 2.30797 4.28521C2.22161 4.16647 2.09654 4.08154 1.95432 4.04506C1.81209 4.00858 1.66159 4.02282 1.52873 4.08534L0.946549 4.52002C0.656698 4.74426 0.421089 5.03092 0.257221 5.35871C0.0933525 5.68651 0.00543583 6.047 0 6.41343V12.8371C0.00173367 13.6753 0.335467 14.4787 0.928158 15.0715C1.52085 15.6642 2.32422 15.998 3.16245 15.9999H6.3896C6.47365 16.0017 6.55724 15.9868 6.63544 15.9559C6.71364 15.925 6.78489 15.8788 6.845 15.8201C6.90511 15.7613 6.95287 15.6911 6.98548 15.6136C7.01808 15.5361 7.03488 15.4528 7.03488 15.3688C7.03488 15.2847 7.01808 15.2015 6.98548 15.124C6.95287 15.0465 6.90511 14.9763 6.845 14.9175C6.78489 14.8587 6.71364 14.8125 6.63544 14.7816C6.55724 14.7508 6.47365 14.7358 6.3896 14.7377V14.7236Z" fill="#CDB04E"/>
<path d="M15.1543 6.39934C15.1507 6.03547 15.0665 5.67693 14.9077 5.34952C14.7489 5.02212 14.5194 4.73401 14.2359 4.50593L9.38971 0.64192C8.87284 0.226472 8.22959 0 7.56645 0C6.90332 0 6.26006 0.226472 5.7432 0.64192L4.20759 1.7569C4.06902 1.85636 3.97563 2.00679 3.94797 2.1751C3.92031 2.34341 3.96064 2.51582 4.0601 2.65439C4.15955 2.79296 4.30998 2.88635 4.47829 2.91402C4.6466 2.94168 4.81901 2.90134 4.95758 2.80189L6.51475 1.63784C6.81113 1.39416 7.18292 1.26094 7.56661 1.26094C7.9503 1.26094 8.32209 1.39416 8.61847 1.63784L13.4643 5.50185C13.6021 5.61095 13.7139 5.74936 13.7915 5.90703C13.8691 6.0647 13.9106 6.23768 13.9131 6.4134V12.8371C13.9131 13.0857 13.8641 13.3319 13.769 13.5616C13.6738 13.7914 13.5343 14.0001 13.3585 14.1759C13.1827 14.3517 12.974 14.4912 12.7442 14.5863C12.5145 14.6815 12.2683 14.7305 12.0197 14.7305H10.5822C10.5115 14.7305 10.4437 14.7024 10.3937 14.6524C10.3437 14.6024 10.3156 14.5346 10.3156 14.4639V11.5677C10.3156 11.1244 10.14 10.6992 9.8272 10.3851C9.51439 10.071 9.08988 9.89361 8.64659 9.89179H6.54287C6.32278 9.89175 6.10483 9.93507 5.90148 10.0193C5.69813 10.1035 5.51336 10.2269 5.35773 10.3826C5.2021 10.5382 5.07866 10.723 4.99445 10.9263C4.91024 11.1297 4.86692 11.3476 4.86696 11.5677V12.6758C4.86509 12.7599 4.88003 12.8435 4.9109 12.9217C4.94178 12.9999 4.98796 13.0711 5.04675 13.1312C5.10554 13.1913 5.17574 13.2391 5.25324 13.2717C5.33074 13.3043 5.41397 13.3211 5.49804 13.3211C5.58212 13.3211 5.66535 13.3043 5.74285 13.2717C5.82035 13.2391 5.89055 13.1913 5.94934 13.1312C6.00812 13.0711 6.05431 12.9999 6.08518 12.9217C6.11606 12.8435 6.131 12.7599 6.12913 12.6758V11.5677C6.12813 11.5137 6.1379 11.4601 6.15787 11.4099C6.17784 11.3598 6.20761 11.3141 6.24543 11.2756C6.28325 11.2371 6.32837 11.2065 6.37816 11.1856C6.42794 11.1647 6.48139 11.1539 6.53537 11.154H8.63972C8.74746 11.154 8.85079 11.1968 8.92698 11.2729C9.00316 11.3491 9.04596 11.4525 9.04596 11.5602V14.4633C9.04778 14.8694 9.2104 15.2583 9.49825 15.5449C9.78609 15.8315 10.1757 15.9923 10.5819 15.9923H11.9834C12.3988 15.9925 12.8102 15.9108 13.194 15.752C13.5778 15.5932 13.9266 15.3603 14.2204 15.0666C14.5142 14.773 14.7473 14.4244 14.9064 14.0406C15.0654 13.6569 15.1474 13.2456 15.1474 12.8302L15.1543 6.39934Z" fill="#CDB04E"/>
</svg>
