<svg width="28" height="31" viewBox="0 0 28 31" fill="none" xmlns="http://www.w3.org/2000/svg">
<path d="M18.7984 20.4821C22.0971 15.3058 21.6824 15.9516 21.7775 15.8166C22.9785 14.1226 23.6133 12.1289 23.6133 10.0508C23.6133 4.5398 19.1412 0 13.623 0C8.12285 0 3.63281 4.53084 3.63281 10.0508C3.63281 12.1275 4.28091 14.1735 5.52127 15.8903L8.44762 20.4822C5.31886 20.963 0 22.3958 0 25.5508C0 26.7009 0.75066 28.3399 4.3268 29.617C6.82387 30.5088 10.1253 31 13.623 31C20.1636 31 27.2461 29.155 27.2461 25.5508C27.2461 22.3953 21.9335 20.9639 18.7984 20.4821ZM7.03851 14.8912C7.02852 14.8756 7.01811 14.8603 7.00721 14.8453C5.97507 13.4254 5.44922 11.7425 5.44922 10.0508C5.44922 5.50868 9.10661 1.81641 13.623 1.81641C18.1301 1.81641 21.7969 5.51031 21.7969 10.0508C21.7969 11.7452 21.281 13.371 20.3046 14.7535C20.2171 14.8689 20.6736 14.1598 13.623 25.2232L7.03851 14.8912ZM13.623 29.1836C6.47888 29.1836 1.81641 27.0836 1.81641 25.5508C1.81641 24.5205 4.21212 22.8265 9.52087 22.1662L12.8571 27.4012C13.0239 27.6629 13.3127 27.8213 13.623 27.8213C13.9333 27.8213 14.2222 27.6628 14.3888 27.4012L17.725 22.1662C23.0339 22.8265 25.4297 24.5205 25.4297 25.5508C25.4297 27.0706 20.8092 29.1836 13.623 29.1836Z" fill="#01292B"/>
</svg>
