<svg width="51" height="51" viewBox="0 0 51 51" fill="none" xmlns="http://www.w3.org/2000/svg">
<g clip-path="url(#clip0_802_295)">
<mask id="mask0_802_295" style="mask-type:luminance" maskUnits="userSpaceOnUse" x="0" y="0" width="51" height="51">
<path d="M0 3.8147e-06H51V51H0V3.8147e-06Z" fill="white"/>
</mask>
<g mask="url(#mask0_802_295)">
<path d="M0.74707 32.5728H50.2528" stroke="#01292B" stroke-width="1.49414" stroke-miterlimit="10" stroke-linecap="round" stroke-linejoin="round"/>
<path d="M35.1511 22.2569C34.8418 20.3761 33.0664 19.102 31.1855 19.4113C29.3046 19.7205 28.0305 21.4959 28.3398 23.3768C28.0305 21.4959 26.2551 20.2219 24.3742 20.5311C22.4933 20.8404 21.2192 22.6159 21.5285 24.4967C21.2192 22.6159 19.4438 21.3418 17.5629 21.651C15.682 21.9603 14.4079 23.7357 14.7171 25.6166C14.4079 23.7357 12.6325 22.4617 10.7516 22.771C8.87076 23.0802 7.59666 24.8556 7.90585 26.7366C7.59666 24.8556 5.82122 23.5816 3.9403 23.8908C2.05937 24.2001 0.78537 25.9755 1.09466 27.8565L0.97911 27.8755C-0.572206 18.4406 5.81873 9.53451 15.2536 7.9832C24.6885 6.43198 33.5946 12.8229 35.1458 22.2578L35.1511 22.2569Z" stroke="#01292B" stroke-width="1.49414" stroke-miterlimit="10" stroke-linecap="round" stroke-linejoin="round"/>
<path d="M17.5026 21.6604L20.3895 39.2192" stroke="#01292B" stroke-width="1.49414" stroke-miterlimit="10" stroke-linecap="round" stroke-linejoin="round"/>
<path d="M7.74955 18.3556C7.38039 20.7464 7.36157 23.4006 7.75712 26.1555C7.82206 26.3415 7.87276 26.5352 7.90583 26.7363C7.59665 24.8554 8.87065 23.08 10.7516 22.7707C12.6325 22.4615 14.4079 23.7355 14.7171 25.6164C14.4079 23.7355 15.6819 21.9601 17.5629 21.6509C19.4437 21.3416 21.2192 22.6157 21.5285 24.4965C21.2192 22.6157 22.4933 20.8402 24.3742 20.5309C26.0275 20.259 27.5988 21.2108 28.1651 22.7225C26.4551 13.6323 20.7683 7.07991 15.2601 7.98198C15.2585 7.98228 15.2569 7.98247 15.2553 7.98277C12.2777 8.47285 9.94812 11.0438 8.63975 14.7495" stroke="#01292B" stroke-width="1.49414" stroke-miterlimit="10" stroke-linecap="round" stroke-linejoin="round"/>
<path d="M15.3512 7.96869C15.3411 7.97028 15.3309 7.97167 15.3207 7.97327C13.4758 8.31005 13.196 15.9935 14.6765 25.2441C14.58 23.5068 15.8066 21.94 17.5626 21.6513C19.4435 21.342 21.2189 22.6161 21.5282 24.497C21.5087 24.3785 21.4956 24.2606 21.4884 24.1433C19.9313 14.9068 17.208 7.71339 15.3512 7.96869Z" stroke="#01292B" stroke-width="1.49414" stroke-miterlimit="10" stroke-linecap="round" stroke-linejoin="round"/>
<path d="M35.1508 22.2574C35.1385 22.1826 35.123 22.109 35.1062 22.0362C35.1193 22.1102 35.1334 22.1839 35.1455 22.2583L35.1508 22.2574Z" stroke="#01292B" stroke-width="1.49414" stroke-miterlimit="10" stroke-linecap="round" stroke-linejoin="round"/>
<path d="M46.1103 8.27923C46.1103 10.1516 44.5924 11.6694 42.7201 11.6694C40.8477 11.6694 39.33 10.1516 39.33 8.27923C39.33 6.40687 40.8477 4.88902 42.7201 4.88902C44.5924 4.88902 46.1103 6.40687 46.1103 8.27923Z" stroke="#01292B" stroke-width="1.49414" stroke-miterlimit="10" stroke-linecap="round" stroke-linejoin="round"/>
<path d="M42.7201 0.746762V2.51562" stroke="#01292B" stroke-width="1.49414" stroke-miterlimit="10" stroke-linecap="round" stroke-linejoin="round"/>
<path d="M42.7201 14.0436V15.8125" stroke="#01292B" stroke-width="1.49414" stroke-miterlimit="10" stroke-linecap="round" stroke-linejoin="round"/>
<path d="M48.0464 2.95331L46.7957 4.2041" stroke="#01292B" stroke-width="1.49414" stroke-miterlimit="10" stroke-linecap="round" stroke-linejoin="round"/>
<path d="M38.6446 12.3557L37.3938 13.6064" stroke="#01292B" stroke-width="1.49414" stroke-miterlimit="10" stroke-linecap="round" stroke-linejoin="round"/>
<path d="M50.2527 8.28027H48.4839" stroke="#01292B" stroke-width="1.49414" stroke-miterlimit="10" stroke-linecap="round" stroke-linejoin="round"/>
<path d="M36.9565 8.28027H35.1876" stroke="#01292B" stroke-width="1.49414" stroke-miterlimit="10" stroke-linecap="round" stroke-linejoin="round"/>
<path d="M48.0464 13.6064L46.7957 12.3557" stroke="#01292B" stroke-width="1.49414" stroke-miterlimit="10" stroke-linecap="round" stroke-linejoin="round"/>
<path d="M38.6446 4.2041L37.3938 2.95331" stroke="#01292B" stroke-width="1.49414" stroke-miterlimit="10" stroke-linecap="round" stroke-linejoin="round"/>
<path d="M3.41255 43.8921C4.37398 43.8921 4.37557 42.3979 3.41255 42.3979C2.45112 42.3979 2.44963 43.8921 3.41255 43.8921Z" fill="#01292B"/>
<path d="M13.7279 48.062C14.6892 48.062 14.6908 46.5679 13.7279 46.5679C12.7665 46.5679 12.7649 48.062 13.7279 48.062Z" fill="#01292B"/>
<path d="M16.3268 42.4111C17.2881 42.4111 17.2897 40.917 16.3268 40.917C15.3653 40.917 15.3637 42.4111 16.3268 42.4111Z" fill="#01292B"/>
<path d="M36.126 51C37.0874 51 37.0889 49.5059 36.126 49.5059C35.1645 49.5059 35.1629 51 36.126 51Z" fill="#01292B"/>
<path d="M44.9856 46.8457C45.9471 46.8457 45.9487 45.3516 44.9856 45.3516C44.0243 45.3516 44.0227 46.8457 44.9856 46.8457Z" fill="#01292B"/>
<path d="M28.9694 39.2192H34.7185" stroke="#01292B" stroke-width="1.49414" stroke-miterlimit="10" stroke-linecap="round" stroke-linejoin="round"/>
<path d="M33.2611 36.165H46.1104" stroke="#01292B" stroke-width="1.49414" stroke-miterlimit="10" stroke-linecap="round" stroke-linejoin="round"/>
<path d="M40.674 41.8092C43.3608 41.1516 46.9216 40.9626 50.237 43.7451" stroke="#01292B" stroke-width="1.49414" stroke-miterlimit="10" stroke-linecap="round" stroke-linejoin="round"/>
<path d="M0.737061 40.4663C3.75851 36.3507 9.56235 34.5246 14.3993 36.1676C20.1116 38.1081 24.1982 44.1961 30.2242 44.4933C32.2274 44.5921 34.1634 44.0145 36.0719 43.3396" stroke="#01292B" stroke-width="1.49414" stroke-miterlimit="10" stroke-linecap="round" stroke-linejoin="round"/>
</g>
</g>
<defs>
<clipPath id="clip0_802_295">
<rect width="51" height="51" fill="white"/>
</clipPath>
</defs>
</svg>
