<svg width="50" height="50" viewBox="0 0 50 50" fill="none" xmlns="http://www.w3.org/2000/svg">
<g clip-path="url(#clip0_802_713)">
<path d="M10.5705 33.0098H6.98181C6.44255 33.0098 6.00525 33.4471 6.00525 33.9863V37.575C6.00525 38.1143 6.44255 38.5516 6.98181 38.5516H10.5705C11.1097 38.5516 11.547 38.1143 11.547 37.575V33.9863C11.547 33.447 11.1098 33.0098 10.5705 33.0098ZM9.59392 36.5984H7.95837V34.9629H9.59392V36.5984Z" fill="#CDB04E"/>
<path d="M18.5254 33.0098H14.9368C14.3975 33.0098 13.9602 33.4471 13.9602 33.9863V37.575C13.9602 38.1143 14.3975 38.5516 14.9368 38.5516H18.5254C19.0647 38.5516 19.502 38.1143 19.502 37.575V33.9863C19.502 33.447 19.0648 33.0098 18.5254 33.0098ZM17.5489 36.5984H15.9133V34.9629H17.5489V36.5984Z" fill="#CDB04E"/>
<path d="M10.5705 40.5459H6.98181C6.44255 40.5459 6.00525 40.9832 6.00525 41.5225V45.1111C6.00525 45.6504 6.44255 46.0877 6.98181 46.0877H10.5705C11.1097 46.0877 11.547 45.6504 11.547 45.1111V41.5225C11.547 40.9831 11.1098 40.5459 10.5705 40.5459ZM9.59392 44.1346H7.95837V42.499H9.59392V44.1346Z" fill="#CDB04E"/>
<path d="M18.5254 40.5459H14.9368C14.3975 40.5459 13.9602 40.9832 13.9602 41.5225V45.1111C13.9602 45.6504 14.3975 46.0877 14.9368 46.0877H18.5254C19.0647 46.0877 19.502 45.6504 19.502 45.1111V41.5225C19.502 40.9831 19.0648 40.5459 18.5254 40.5459ZM17.5489 44.1346H15.9133V42.499H17.5489V44.1346Z" fill="#CDB04E"/>
<path d="M14.8438 25.2373C14.6611 25.0557 14.4102 24.9512 14.1533 24.9512C13.8955 24.9512 13.6445 25.0556 13.4629 25.2373C13.2804 25.4189 13.1768 25.6709 13.1768 25.9277C13.1768 26.1846 13.2804 26.4365 13.4629 26.6181C13.6445 26.7997 13.8965 26.9043 14.1533 26.9043C14.4102 26.9043 14.6611 26.7998 14.8438 26.6181C15.0253 26.4365 15.1299 26.1846 15.1299 25.9277C15.1299 25.6709 15.0254 25.4189 14.8438 25.2373Z" fill="#CDB04E"/>
<path d="M49.0234 48.0469H48.0469V23.2362C48.0469 22.6969 47.6096 22.2596 47.0703 22.2596H42.3952V9.67914C42.3952 9.31771 42.1956 8.98578 41.8763 8.81644L25.47 0.113901C25.1673 -0.0466459 24.8026 -0.036978 24.5091 0.13978C24.2154 0.31644 24.0358 0.634018 24.0358 0.976596V10.9375H14.153C13.6138 10.9375 13.1765 11.3748 13.1765 11.9141V22.0432C13.1765 22.5825 13.6138 23.0198 14.153 23.0198C14.6923 23.0198 15.1296 22.5825 15.1296 22.0432V12.8907H28.4108V16.7909H25.0124C24.4731 16.7909 24.0358 17.2282 24.0358 17.7674C24.0358 18.3067 24.4731 18.744 25.0124 18.744H28.4108V22.2596H25.0124C24.4731 22.2596 24.0358 22.6969 24.0358 23.2362C24.0358 23.7754 24.4731 24.2127 25.0124 24.2127H28.4108V27.7284H25.0124C24.4731 27.7284 24.0358 28.1657 24.0358 28.7049C24.0358 29.2442 24.4731 29.6815 25.0124 29.6815H28.4108V33.1971H25.0124C24.4731 33.1971 24.0358 33.6344 24.0358 34.1737C24.0358 34.7129 24.4731 35.1502 25.0124 35.1502H28.4108V38.6659H25.0124C24.4731 38.6659 24.0358 39.1032 24.0358 39.6424C24.0358 40.1817 24.4731 40.619 25.0124 40.619H28.4108V44.1346H25.0124C24.4731 44.1346 24.0358 44.5719 24.0358 45.1112C24.0358 45.6504 24.4731 46.0877 25.0124 46.0877H28.4108V48.0469H23.4375V30.0782C23.4375 29.5389 23.0002 29.1016 22.4609 29.1016H2.92969C2.39043 29.1016 1.95312 29.5389 1.95312 30.0782V48.0469H0.976562C0.437305 48.0469 0 48.4842 0 49.0235C0 49.5627 0.437305 50 0.976562 50H49.0234C49.5627 50 50 49.5627 50 49.0235C50 48.4842 49.5628 48.0469 49.0234 48.0469ZM21.4844 48.0469H3.90625V31.0547H21.4844V48.0469ZM33.5938 23.2362V48.0469H30.364V11.9141C30.364 11.3748 29.9267 10.9375 29.3874 10.9375H25.989V2.60003L40.4421 10.2666V22.2596H34.5703C34.0311 22.2596 33.5938 22.6969 33.5938 23.2362ZM46.0938 27.7284H40.8203C40.2811 27.7284 39.8438 28.1657 39.8438 28.7049C39.8438 29.2442 40.2811 29.6815 40.8203 29.6815H46.0938V33.1971H40.8203C40.2811 33.1971 39.8438 33.6344 39.8438 34.1737C39.8438 34.7129 40.2811 35.1502 40.8203 35.1502H46.0938V38.6659H40.8203C40.2811 38.6659 39.8438 39.1032 39.8438 39.6424C39.8438 40.1817 40.2811 40.619 40.8203 40.619H46.0938V44.1346H43.1315C42.5923 44.1346 42.155 44.5719 42.155 45.1112C42.155 45.6504 42.5923 46.0877 43.1315 46.0877H46.0938V48.0469H35.5469V24.2127H46.0938V27.7284Z" fill="#CDB04E"/>
<path d="M39.3944 44.421C39.2129 44.2393 38.9619 44.1348 38.7041 44.1348C38.4473 44.1348 38.1953 44.2393 38.0137 44.421C37.832 44.6025 37.7275 44.8545 37.7275 45.1113C37.7275 45.3682 37.8319 45.6201 38.0137 45.8018C38.1954 45.9834 38.4473 46.0879 38.7041 46.0879C38.9619 46.0879 39.2129 45.9835 39.3944 45.8018C39.5771 45.6201 39.6807 45.3682 39.6807 45.1113C39.6807 44.8535 39.5771 44.6025 39.3944 44.421Z" fill="#CDB04E"/>
<path d="M33.5938 11.0352C33.0545 11.0352 32.6172 11.4725 32.6172 12.0117V13.8347C32.6172 14.374 33.0545 14.8112 33.5938 14.8112C34.133 14.8112 34.5703 14.3739 34.5703 13.8347V12.0117C34.5703 11.4725 34.133 11.0352 33.5938 11.0352Z" fill="#CDB04E"/>
<path d="M33.5938 16.7905C33.0545 16.7905 32.6172 17.2278 32.6172 17.7671V19.778C32.6172 20.3174 33.0545 20.7546 33.5938 20.7546C34.133 20.7546 34.5703 20.3173 34.5703 19.778V17.7671C34.5703 17.2278 34.133 16.7905 33.5938 16.7905Z" fill="#CDB04E"/>
<path d="M37.5 11.0352C36.9607 11.0352 36.5234 11.4725 36.5234 12.0117V13.8347C36.5234 14.374 36.9607 14.8112 37.5 14.8112C38.0393 14.8112 38.4766 14.3739 38.4766 13.8347V12.0117C38.4766 11.4725 38.0393 11.0352 37.5 11.0352Z" fill="#CDB04E"/>
<path d="M37.5 16.7905C36.9607 16.7905 36.5234 17.2278 36.5234 17.7671V19.778C36.5234 20.3174 36.9607 20.7546 37.5 20.7546C38.0393 20.7546 38.4766 20.3173 38.4766 19.778V17.7671C38.4766 17.2278 38.0393 16.7905 37.5 16.7905Z" fill="#CDB04E"/>
</g>
<defs>
<clipPath id="clip0_802_713">
<rect width="50" height="50" fill="white"/>
</clipPath>
</defs>
</svg>
