<svg width="32" height="31" viewBox="0 0 32 31" fill="none" xmlns="http://www.w3.org/2000/svg">
<path d="M26.8454 14.3845L23.6017 17.1894C23.2742 16.7786 22.8454 16.4517 22.3529 16.245L24.4048 14.4733C25.1035 13.8688 26.1292 13.8527 26.8454 14.3845ZM31.5223 14.4733C30.8223 13.6849 29.586 13.6023 28.7885 14.2932L24.1648 18.2887C24.2373 18.5509 24.2767 18.8236 24.2767 19.1073C24.2767 20.8192 22.861 22.2164 21.1267 22.2164H12.766C12.4754 22.2164 12.236 21.9802 12.236 21.6921V21.5434C12.236 21.2547 12.4754 21.0203 12.766 21.0203H21.1267C22.1473 21.0203 22.9885 20.2332 23.0598 19.2437C23.0617 19.2264 23.0635 19.2104 23.0635 19.1931C23.0654 19.1579 23.0654 19.1246 23.0654 19.0919V19.0901C23.0617 18.6336 22.8917 18.2104 22.6098 17.8797V17.8779C22.5992 17.8674 22.5904 17.8569 22.5817 17.8464L22.5748 17.8378C22.5679 17.831 22.5604 17.8224 22.5535 17.815L22.536 17.7977L22.5235 17.7835C22.5148 17.7749 22.5073 17.7675 22.4985 17.7588L22.4929 17.7539C22.1973 17.4633 21.8073 17.2641 21.3735 17.2098H21.3717C21.3554 17.208 21.3417 17.2061 21.3254 17.2049H21.3198C21.3054 17.203 21.2917 17.2012 21.2773 17.1999H21.2648C21.2523 17.1981 21.2398 17.1981 21.2273 17.1981C21.2204 17.1962 21.211 17.1962 21.2042 17.1962H21.1773C21.1598 17.1944 21.1435 17.1944 21.126 17.1944H10.356C8.82728 17.1944 7.51228 17.7539 6.4604 18.8489L5.2804 20.0783L9.4279 26.7129H18.2879C19.6398 26.7129 20.8035 26.2811 21.8204 25.4014C24.9935 22.6575 28.1685 19.9161 31.341 17.1722C32.1442 16.4794 32.2254 15.2642 31.5223 14.4733ZM3.60103 19.6669C3.45415 19.4324 3.1404 19.359 2.9029 19.504L0.240404 21.1252C0.00290437 21.2683 -0.0714706 21.5798 0.0754044 21.8142L5.38853 30.3143C5.5354 30.5487 5.84915 30.6221 6.08853 30.4771L8.74978 28.8559C8.98728 28.711 9.06166 28.4013 8.91478 28.1669L3.60103 19.6669ZM13.6285 9.64188C13.6285 7.10834 15.721 5.04117 18.2879 5.04117C20.8548 5.04117 22.9473 7.10834 22.9473 9.64188C22.9473 12.1742 20.8548 14.2407 18.2879 14.2407C15.721 14.2407 13.6285 12.1742 13.6285 9.64188ZM15.6429 9.64188C15.6429 9.92195 15.8735 10.1508 16.1585 10.1508H17.7723V11.7424C17.7723 12.0237 18.0029 12.2531 18.2879 12.2531C18.5729 12.2531 18.8035 12.0243 18.8035 11.7424V10.1508H20.4173C20.7023 10.1508 20.9329 9.92195 20.9329 9.64188C20.9329 9.36058 20.7023 9.1311 20.4173 9.1311H18.8035V7.53955C18.8035 7.25825 18.5729 7.02877 18.2879 7.02877C18.0029 7.02877 17.7723 7.25763 17.7723 7.53955V9.1311H16.1585C15.8735 9.13172 15.6429 9.36058 15.6429 9.64188ZM22.5704 3.38175C22.5704 1.51938 24.1098 0 25.9985 0C27.8854 0 29.4248 1.51938 29.4248 3.38175C29.4248 5.24412 27.8854 6.76351 25.9985 6.76351C24.1098 6.76351 22.5704 5.24412 22.5704 3.38175ZM24.0617 3.38175C24.0617 3.66305 24.2935 3.89068 24.5773 3.89068H25.481V4.78269C25.481 5.06399 25.7129 5.29162 25.9985 5.29162C26.2823 5.29162 26.5142 5.06399 26.5142 4.78269V3.89068H27.4179C27.7029 3.89068 27.9335 3.66305 27.9335 3.38175C27.9335 3.10045 27.7029 2.87282 27.4179 2.87282H26.5142V1.98143C26.5142 1.70013 26.2823 1.47065 25.9985 1.47065C25.7135 1.47065 25.481 1.69951 25.481 1.98143V2.87344H24.5773C24.2942 2.87282 24.0617 3.10045 24.0617 3.38175ZM7.15165 3.38175C7.15165 1.51938 8.69103 0 10.5779 0C12.4667 0 14.0042 1.51938 14.0042 3.38175C14.0042 5.24412 12.4667 6.76351 10.5779 6.76351C8.69103 6.76351 7.15165 5.24412 7.15165 3.38175ZM8.6429 3.38175C8.6429 3.66305 8.87353 3.89068 9.15853 3.89068H10.0623V4.78269C10.0623 5.06399 10.2929 5.29162 10.5779 5.29162C10.8629 5.29162 11.0954 5.06399 11.0954 4.78269V3.89068H11.9973C12.2823 3.89068 12.5148 3.66305 12.5148 3.38175C12.5148 3.10045 12.2829 2.87282 11.9973 2.87282H11.0954V1.98143C11.0954 1.70013 10.8635 1.47065 10.5779 1.47065C10.2923 1.47065 10.0623 1.69951 10.0623 1.98143V2.87344H9.15853C8.87353 2.87282 8.6429 3.10045 8.6429 3.38175Z" fill="#01292B"/>
</svg>
