<svg width="28" height="29" viewBox="0 0 28 29" fill="none" xmlns="http://www.w3.org/2000/svg">
<path fill-rule="evenodd" clip-rule="evenodd" d="M0.658203 17.9379H1.74559V16.2951C1.74597 16.0156 1.85863 15.7477 2.05885 15.55C2.25908 15.3524 2.53053 15.2412 2.81369 15.2408H4.28826C4.57143 15.2412 4.8429 15.3524 5.04314 15.55C5.24337 15.7476 5.35604 16.0156 5.35643 16.2951V17.9379H6.44381C6.5805 17.9381 6.71153 17.9918 6.80819 18.0872C6.90484 18.1826 6.95923 18.3119 6.95943 18.4469V26.0107C6.95923 26.1457 6.90484 26.275 6.80819 26.3704C6.71153 26.4658 6.5805 26.5195 6.44381 26.5197H0.658203C0.521513 26.5195 0.390479 26.4658 0.293824 26.3704C0.197169 26.275 0.14278 26.1457 0.142578 26.0107V18.4466C0.14278 18.3117 0.197169 18.1824 0.293824 18.087C0.390479 17.9916 0.521513 17.9379 0.658203 17.9377V17.9379ZM16.5078 4.78189L19.1855 3.2558L13.2172 1.78922L12.1576 2.39305L16.5078 4.78189ZM10.3661 10.4741L6.99143 7.75826L7.7525 7.2602L11.2944 8.52009C11.3503 8.54002 11.41 8.54766 11.4692 8.54248C11.5284 8.53729 11.5858 8.51941 11.6373 8.49007L24.4783 1.17255C25.2524 0.72978 26.4219 0.701731 27.2346 1.05943C27.5153 1.1829 27.8948 1.42377 27.8552 1.77522C27.8127 2.15235 27.39 2.63907 26.3773 3.21613C25.3995 3.77464 24.4213 4.33236 23.4428 4.88929C23.3502 4.94134 23.2819 5.02703 23.2524 5.12808L20.5675 14.3566L19.5082 14.9601L19.6248 7.73287C19.6256 7.66234 19.6077 7.59282 19.5729 7.5312C19.5382 7.46958 19.4877 7.418 19.4265 7.38157C19.3653 7.34514 19.2955 7.32512 19.224 7.3235C19.1526 7.32188 19.082 7.33872 19.0191 7.37234C17.7236 8.07408 11.4579 11.3525 10.3661 10.4741ZM9.71574 7.10174L7.85979 6.44117C7.79729 6.41443 7.72901 6.40352 7.66116 6.40944C7.59331 6.41536 7.52803 6.43792 7.47125 6.47506L6.85766 6.8766C6.82949 6.86503 6.80145 6.85346 6.77352 6.8419C8.25807 5.39658 10.1426 4.41695 12.1899 4.02625C11.0936 4.73522 10.2829 5.9116 9.71568 7.10151L9.71574 7.10174ZM14.6156 4.66617L15.6828 5.25213L14.6156 5.86024V4.66617ZM14.6156 10.3367V13.8889H18.7086L18.7757 9.7222C18.6733 9.33322 18.5585 8.95923 18.4315 8.60024L18.4089 8.60441C17.4911 9.06967 16.0606 9.76297 14.6156 10.3366V10.3367ZM14.6156 14.6985V19.756C15.8842 19.7743 17.149 19.8959 18.3973 20.1194C18.8292 18.9232 19.1317 17.5339 19.2645 16.0307C19.1999 16.0609 19.1284 16.0739 19.0572 16.0684C18.9859 16.0629 18.9174 16.0391 18.8583 15.9994C18.7993 15.9597 18.7518 15.9054 18.7206 15.842C18.6893 15.7785 18.6755 15.7081 18.6804 15.6377L18.6955 14.6988L14.6156 14.6985ZM14.6156 20.566V24.346C16.0019 24.1308 17.2331 22.8349 18.091 20.8871C16.9428 20.6908 15.7808 20.5834 14.6156 20.566ZM13.7953 24.3448V20.566C12.6356 20.5832 11.479 20.6896 10.3361 20.884C10.9682 22.3036 12.1345 24.0776 13.7953 24.3445V24.3448ZM13.7953 19.7562V14.6985H9.07432C9.11533 16.7121 9.46104 18.5722 10.026 20.1175C11.2702 19.8954 12.5308 19.7746 13.7951 19.7562L13.7953 19.7562ZM9.85613 11.106L9.40279 10.7406C9.20358 11.779 9.09369 12.8322 9.07432 13.8889H13.7953V10.6479C12.0967 11.2595 10.4994 11.6244 9.85637 11.106H9.85613ZM13.7953 6.32753L11.3916 7.69736L10.4889 7.37621C11.1552 6.00945 12.266 4.48845 13.7953 4.24283V6.32753ZM3.61906 13.8889H8.25383C8.2754 12.6366 8.42061 11.3893 8.68742 10.1648L6.04455 8.03753C5.96978 7.97774 5.9189 7.89373 5.90094 7.80042C4.50212 9.53789 3.70259 11.6712 3.61906 13.8889ZM21.5562 13.8889H24.7914C24.7209 12.0076 24.1343 10.1805 23.0942 8.6025L21.5564 13.8889H21.5562ZM24.7914 14.6985H21.3207C21.3085 14.7594 21.2825 14.8168 21.2446 14.8664C21.2067 14.916 21.158 14.9564 21.102 14.9847L20.1218 15.5432C20.0134 17.2782 19.6824 18.8888 19.1819 20.278C20.1967 20.4982 21.1879 20.8138 22.1418 21.2203C23.7638 19.415 24.7004 17.1098 24.7914 14.6985ZM8.25389 14.6985H5.26221C5.54109 14.8643 5.77184 15.0984 5.93208 15.3782C6.09231 15.6579 6.17659 15.9737 6.17674 16.2951V17.1283H6.44381C6.79803 17.1286 7.13765 17.2676 7.38812 17.5148C7.63859 17.762 7.77944 18.0972 7.77975 18.4469V20.663C8.23869 20.52 8.71811 20.3926 9.21799 20.2806C8.64424 18.6704 8.29478 16.7565 8.25412 14.6988L8.25389 14.6985ZM18.8813 21.0402C19.7881 21.2311 20.6765 21.4994 21.5362 21.8422C20.0593 23.2425 18.2019 24.189 16.19 24.5667C17.2607 23.8745 18.1909 22.6389 18.8813 21.0402ZM12.1899 24.5611C10.5863 24.2557 9.07655 23.5869 7.77951 22.6075V21.5115C8.3496 21.3254 8.92921 21.1691 9.51594 21.0431C10.0834 22.3698 10.9548 23.762 12.1899 24.5608L12.1899 24.5611ZM5.76986 27.0978C5.87764 27.0978 5.98299 27.1294 6.07261 27.1885C6.16222 27.2476 6.23206 27.3316 6.2733 27.4299C6.31455 27.5281 6.32534 27.6363 6.30432 27.7406C6.28329 27.8449 6.23139 27.9408 6.15518 28.016C6.07897 28.0912 5.98188 28.1424 5.87617 28.1632C5.77047 28.1839 5.6609 28.1733 5.56133 28.1326C5.46176 28.0919 5.37665 28.0229 5.31678 27.9345C5.2569 27.846 5.22494 27.7421 5.22494 27.6357C5.22494 27.493 5.28235 27.3562 5.38455 27.2554C5.48674 27.1545 5.62534 27.0978 5.76986 27.0978ZM1.33209 27.0978C1.43987 27.0978 1.54522 27.1294 1.63483 27.1885C1.72444 27.2476 1.79429 27.3316 1.83553 27.4299C1.87678 27.5281 1.88757 27.6363 1.86654 27.7406C1.84552 27.8449 1.79362 27.9408 1.71741 28.016C1.6412 28.0912 1.5441 28.1424 1.4384 28.1632C1.33269 28.1839 1.22313 28.1733 1.12356 28.1326C1.02399 28.0919 0.938881 28.0229 0.879004 27.9345C0.819127 27.846 0.787168 27.7421 0.787168 27.6357C0.787168 27.493 0.844579 27.3562 0.946772 27.2554C1.04896 27.1545 1.18757 27.0978 1.33209 27.0978ZM2.5659 17.9379H4.53611V16.2951C4.53581 16.2303 4.50959 16.1682 4.46318 16.1224C4.41676 16.0766 4.3539 16.0507 4.28826 16.0504H2.81369C2.74806 16.0507 2.6852 16.0766 2.6388 16.1224C2.59239 16.1682 2.56619 16.2303 2.5659 16.2951V17.9379ZM3.14082 19.5623V24.8951C3.14082 25.0025 3.18403 25.1054 3.26095 25.1814C3.33787 25.2573 3.4422 25.2999 3.55098 25.2999C3.65976 25.2999 3.76408 25.2573 3.841 25.1814C3.91792 25.1054 3.96113 25.0025 3.96113 24.8951V19.5623C3.96113 19.4549 3.91792 19.3519 3.841 19.276C3.76408 19.2001 3.65976 19.1574 3.55098 19.1574C3.4422 19.1574 3.33787 19.2001 3.26095 19.276C3.18403 19.3519 3.14082 19.4549 3.14082 19.5623ZM4.8851 19.5623V24.8951C4.8851 25.0025 4.92831 25.1054 5.00523 25.1814C5.08215 25.2573 5.18647 25.2999 5.29525 25.2999C5.40403 25.2999 5.50836 25.2573 5.58528 25.1814C5.6622 25.1054 5.70541 25.0025 5.70541 24.8951V19.5623C5.70541 19.4549 5.6622 19.3519 5.58528 19.276C5.50836 19.2001 5.40403 19.1574 5.29525 19.1574C5.18647 19.1574 5.08215 19.2001 5.00523 19.276C4.92831 19.3519 4.8851 19.4549 4.8851 19.5623ZM1.39654 19.5623V24.8951C1.39654 25.0025 1.43976 25.1054 1.51667 25.1814C1.59359 25.2573 1.69792 25.2999 1.8067 25.2999C1.91548 25.2999 2.0198 25.2573 2.09672 25.1814C2.17364 25.1054 2.21686 25.0025 2.21686 24.8951V19.5623C2.21686 19.4549 2.17364 19.3519 2.09672 19.276C2.0198 19.2001 1.91548 19.1574 1.8067 19.1574C1.69792 19.1574 1.59359 19.2001 1.51667 19.276C1.43976 19.3519 1.39654 19.4549 1.39654 19.5623Z" fill="#01292B"/>
</svg>
