<svg width="29" height="26" viewBox="0 0 29 26" fill="none" xmlns="http://www.w3.org/2000/svg">
<path fill-rule="evenodd" clip-rule="evenodd" d="M23.0414 21.2906C23.0414 21.0352 23.2512 20.8282 23.5099 20.8282C23.7686 20.8282 23.9783 21.0352 23.9783 21.2906V25.3248C23.9783 25.5801 23.7686 25.7871 23.5099 25.7871H19.4226C19.1639 25.7871 18.9541 25.5801 18.9541 25.3248C18.9541 25.0694 19.1639 24.8624 19.4226 24.8624H22.979C23.0134 24.8624 23.0414 24.8348 23.0414 24.8008V21.2906ZM28.2063 4.37014L21.9606 8.47265C21.9421 8.4848 21.9321 8.50399 21.9327 8.52594C21.9334 8.5479 21.9447 8.56638 21.9639 8.57732L23.344 9.3638L23.3436 9.36458C23.5835 9.50799 23.6512 9.80142 23.5068 10.0252C18.6403 17.5692 12.0907 22.7463 3.69706 25.3404C3.66617 25.3499 3.64781 25.3809 3.65465 25.4122C3.66142 25.4432 3.69072 25.4641 3.72276 25.4604C7.48915 25.037 10.9443 24.0357 14.0708 22.4242C18.6657 20.0559 22.5616 16.3645 25.704 11.2473C25.8368 11.026 26.1256 10.9505 26.3521 11.0791L27.7328 11.8659C27.752 11.8768 27.7739 11.8772 27.7935 11.8668C27.8131 11.8565 27.8249 11.8384 27.8263 11.8165L28.3032 4.42543C28.3047 4.40148 28.2932 4.38016 28.2721 4.36815C28.251 4.35607 28.2265 4.35685 28.2063 4.37014ZM18.554 3.73134C18.554 2.92063 17.8851 2.2605 17.0638 2.2605H16.7772C16.7428 2.2605 16.7148 2.23286 16.7148 2.19889V0.546205C16.7148 0.245956 16.964 0 17.2682 0H21.4577C21.7619 0 22.011 0.245956 22.011 0.546205V7.27286C22.011 7.29411 22.0011 7.31237 21.9832 7.32417L20.7068 8.16259C20.4129 8.35503 20.4231 8.7886 20.7311 8.96434L22.3745 9.90084C22.3899 9.90965 22.3999 9.92287 22.404 9.93992C22.4081 9.95705 22.4053 9.97325 22.3955 9.98796C21.2409 11.7293 19.9964 13.3294 18.6629 14.7893C18.6453 14.8086 18.6188 14.8148 18.5941 14.8055C18.5695 14.7962 18.5541 14.774 18.5541 14.748V3.73134H18.554ZM14.1601 7.56373C14.1601 6.75302 13.4912 6.09289 12.6699 6.09289H12.3834C12.3489 6.09289 12.3209 6.06525 12.3209 6.03128V3.73134C12.3209 3.43109 12.5701 3.18513 12.8743 3.18513H17.0638C17.368 3.18513 17.6172 3.43109 17.6172 3.73134V15.8617C17.6172 15.8785 17.6112 15.8929 17.5992 15.9049C16.539 16.9702 15.4261 17.9528 14.2611 18.8531C14.2418 18.868 14.2173 18.8706 14.1953 18.86C14.1733 18.8494 14.1602 18.8287 14.1602 18.8046L14.1601 7.56373ZM9.76629 11.3961C9.76629 10.5854 9.09742 9.92528 8.27611 9.92528H7.98955C7.95513 9.92528 7.92713 9.89764 7.92713 9.86367V7.5638C7.92713 7.26355 8.17632 7.01759 8.48052 7.01759H12.67C12.9742 7.01759 13.2234 7.26355 13.2234 7.5638V19.592C13.2234 19.6124 13.2142 19.6301 13.1975 19.642C12.1271 20.4032 11.0141 21.0992 9.85903 21.7297C9.83916 21.7406 9.8167 21.7403 9.79711 21.7289C9.77753 21.7175 9.76637 21.6983 9.76637 21.6758V11.3961H9.76629ZM8.8295 22.2308C8.8295 22.2546 8.81683 22.275 8.7953 22.2857C7.14974 23.1093 5.42275 23.8058 3.61476 24.3761C3.59518 24.3822 3.57552 24.3791 3.55889 24.3671C3.54226 24.3551 3.53326 24.3376 3.53326 24.3173V11.3961C3.53326 11.0959 3.78245 10.8499 4.08665 10.8499H8.27611C8.58031 10.8499 8.8295 11.0959 8.8295 11.3961V22.2308ZM0.936864 4.6814C0.936864 4.93674 0.727128 5.14375 0.468432 5.14375C0.209736 5.14375 0 4.93674 0 4.6814V0.647189C0 0.391852 0.209736 0.18484 0.468432 0.18484H4.55573C4.81442 0.18484 5.02416 0.391852 5.02416 0.647189C5.02416 0.902525 4.81442 1.10954 4.55573 1.10954H0.999288C0.964872 1.10954 0.936864 1.13718 0.936864 1.17115V4.6814Z" fill="#01292B"/>
</svg>
