<svg width="28" height="29" viewBox="0 0 28 29" fill="none" xmlns="http://www.w3.org/2000/svg">
<path d="M8.79653 6.08268C9.03986 6.13715 9.2929 6.13303 9.53428 6.07067C9.77566 6.0083 9.99828 5.88952 10.1834 5.72436C10.3684 5.5592 10.5105 5.35251 10.5977 5.12174C10.6848 4.89097 10.7144 4.64289 10.6839 4.39846C10.5784 3.55989 10.4879 2.67762 10.3974 1.79472C10.3594 1.42516 10.3196 1.06073 10.2806 0.69458C8.89954 0.740777 7.54095 1.05297 6.28125 1.61359C6.60795 2.8948 7.1036 4.12815 7.75552 5.28204C7.85844 5.48304 8.00515 5.65906 8.18513 5.79749C8.36512 5.93591 8.57391 6.03331 8.79653 6.08268Z" fill="#01292B"/>
<path d="M18.2472 7.97929L16.1004 9.79539C15.9588 9.63125 15.8564 9.43788 15.8005 9.2295C15.709 8.95891 15.6725 8.67315 15.6931 8.38862C15.7137 8.10408 15.7909 7.82634 15.9204 7.57132C16.3129 7.04338 16.8948 6.68327 17.5472 6.56457C18.3784 6.28271 19.2686 6.21477 20.1338 6.36716C20.4571 6.98001 20.7162 7.6238 20.9071 8.28855L20.2537 7.86084C19.981 7.68205 19.6612 7.58598 19.3338 7.58448C18.9353 7.58277 18.5495 7.72295 18.2472 7.97929Z" fill="#01292B"/>
<path d="M21.287 12.184C21.2147 12.9486 21.0582 13.7032 20.8204 14.4343C20.5584 14.4332 20.2972 14.4067 20.0404 14.3554C19.6812 14.3183 19.3344 14.2049 19.0237 14.0232C18.713 13.8415 18.4458 13.5957 18.2403 13.3026C18.1743 12.9195 18.2326 12.5257 18.407 12.1774L19.4604 11.2891L20.407 11.9142C20.6666 12.0885 20.973 12.1824 21.287 12.184Z" fill="#01292B"/>
<path d="M11.2201 13.4603C11.1934 13.6117 11.1734 13.8025 11.1533 14.0394C11.1276 15.0856 10.7915 16.1014 10.1867 16.9609C9.96009 17.2562 9.70072 17.5255 9.41339 17.7637C9.08927 17.564 8.71541 17.457 8.33334 17.4544H2.09344C0.731204 15.6479 -0.00308913 13.4553 9.7684e-06 11.2034C9.7684e-06 11.0125 0.0200097 10.8283 0.0266764 10.644C0.657925 10.7123 1.26922 10.9033 1.82531 11.206C2.38139 11.5087 2.87124 11.917 3.26661 12.4075C3.70285 12.999 4.02182 13.6665 4.20672 14.375C4.27502 14.8086 4.50288 15.2022 4.84672 15.4804C5.07009 15.6287 5.32797 15.7186 5.59617 15.7416C5.86437 15.7646 6.13409 15.72 6.38005 15.612C6.8734 15.4018 7.30566 15.0732 7.63748 14.656C7.9693 14.2388 8.19016 13.7464 8.27995 13.2234C8.48666 12.1838 9.22006 12.0061 10.0801 11.8943C10.24 11.8771 10.4018 11.8973 10.5524 11.9533C10.7029 12.0093 10.838 12.0996 10.9466 12.2167C11.0922 12.3858 11.1933 12.5878 11.241 12.8047C11.2887 13.0216 11.2815 13.2468 11.2201 13.4603Z" fill="#01292B"/>
<path d="M19.1863 15.4871C18.771 15.5225 18.3843 15.7106 18.1028 16.014C17.8213 16.3174 17.6655 16.7142 17.6663 17.1256V19.1325C15.914 20.6537 13.7015 21.5605 11.373 21.7119C11.1363 21.3135 10.7625 21.0123 10.3196 20.8631C10.3273 20.824 10.3318 20.7844 10.3329 20.7446V19.4286C10.3349 19.2178 10.2988 19.0084 10.2263 18.8101C10.611 18.4996 10.9557 18.1438 11.2529 17.7507C12.0118 16.6963 12.4386 15.4442 12.4796 14.1514C12.4996 13.9737 12.5063 13.8224 12.533 13.7105C12.6346 13.2921 12.6318 12.8556 12.525 12.4384C12.4182 12.0213 12.2104 11.6359 11.9196 11.3154C11.6661 11.0458 11.3514 10.8396 11.0014 10.7137C10.6513 10.5879 10.2759 10.546 9.90622 10.5916C9.15297 10.6903 7.37302 10.9206 6.97295 12.9736C6.92598 13.2426 6.82291 13.4991 6.67027 13.7267C6.51763 13.9544 6.31876 14.1483 6.08623 14.2962C5.95769 14.3761 5.81118 14.4236 5.65964 14.4343C5.59958 14.3883 5.57973 14.3554 5.49297 14.0395C5.27565 13.1868 4.89554 12.3828 4.37302 11.6707C3.13962 9.86775 0.919568 9.43347 0.179688 9.33477C0.444359 7.88364 1.01569 6.50378 1.85649 5.28504C2.69728 4.0663 3.78869 3.03598 5.05967 2.26118C5.4316 3.51645 5.93662 4.72951 6.56634 5.88022C6.75856 6.25273 7.03135 6.57901 7.36542 6.83598C7.69949 7.09295 8.08668 7.27434 8.49961 7.36732C8.70975 7.41375 8.92429 7.43801 9.13961 7.4397C9.54891 7.43878 9.95335 7.3522 10.3263 7.18567C10.6992 7.01915 11.032 6.77646 11.3029 6.47364C11.5738 6.17081 11.7766 5.81472 11.8978 5.42887C12.0191 5.04302 12.056 4.63618 12.0063 4.2352C11.9062 3.40611 11.8129 2.53754 11.7263 1.66239C11.693 1.34654 11.6596 1.03728 11.6262 0.721436C13.1267 0.85627 14.5811 1.30369 15.8934 2.03414C17.2058 2.7646 18.3462 3.7615 19.2395 4.95901C18.5184 4.96729 17.803 5.08718 17.1196 5.31434C16.143 5.52756 15.2906 6.11134 14.7464 6.93962C14.5314 7.35044 14.4013 7.7993 14.3635 8.26017C14.3257 8.72103 14.381 9.18471 14.5263 9.62429C14.6376 10.0016 14.8284 10.3514 15.0862 10.6508L13.5797 11.9273C13.2456 12.213 13.0395 12.6175 13.0063 13.0525C12.9815 13.3768 13.0545 13.701 13.2162 13.9843C13.3779 14.2677 13.6209 14.4974 13.9148 14.6445C14.2086 14.7916 14.5399 14.8495 14.8671 14.811C15.1942 14.7724 15.5024 14.639 15.7529 14.4278L16.9062 13.4539C16.9249 13.5666 16.9563 13.677 16.9996 13.7829C17.2178 14.206 17.5263 14.5773 17.9037 14.8715C18.2812 15.1657 18.7188 15.3757 19.1863 15.4871Z" fill="#01292B"/>
<path d="M14.6671 13.8355C14.5309 13.8353 14.3981 13.7941 14.2864 13.7173C14.1747 13.6405 14.0896 13.5317 14.0424 13.4057C13.9951 13.2797 13.9881 13.1424 14.0223 13.0123C14.0565 12.8823 14.1302 12.7657 14.2335 12.6782L18.9002 8.7301C19.0105 8.63686 19.1487 8.5817 19.2937 8.57301C19.4387 8.56431 19.5826 8.60254 19.7035 8.68191L21.2491 9.69848L26.8624 4.15812C26.9241 4.09612 26.9976 4.04679 27.0787 4.01299C27.1599 3.97919 27.247 3.96158 27.335 3.96119C27.423 3.96079 27.5103 3.97762 27.5917 4.0107C27.6731 4.04377 27.7471 4.09244 27.8094 4.15389C27.8716 4.21534 27.9209 4.28835 27.9544 4.36871C27.988 4.44908 28.005 4.5352 28.0046 4.6221C28.0042 4.709 27.9864 4.79496 27.9521 4.87502C27.9179 4.95508 27.8679 5.02765 27.8051 5.08854L21.8051 11.0106C21.6962 11.1183 21.5528 11.1854 21.3994 11.2004C21.246 11.2154 21.0921 11.1774 20.9639 11.0929L19.3839 10.0532L15.1007 13.6768C14.9801 13.7794 14.8262 13.8357 14.6671 13.8355Z" fill="#01292B"/>
<path d="M27.333 8.57139C27.2454 8.57144 27.1587 8.55446 27.0778 8.52141C26.9969 8.48835 26.9234 8.43989 26.8615 8.37878C26.7996 8.31766 26.7505 8.24511 26.717 8.16525C26.6835 8.0854 26.6663 7.99981 26.6663 7.91338V5.28135H23.9997C23.8229 5.28135 23.6533 5.21202 23.5283 5.08862C23.4032 4.96522 23.333 4.79786 23.333 4.62334C23.333 4.44883 23.4032 4.28146 23.5283 4.15806C23.6533 4.03466 23.8229 3.96533 23.9997 3.96533H27.333C27.4206 3.96528 27.5073 3.98227 27.5882 4.01532C27.6691 4.04837 27.7426 4.09684 27.8045 4.15795C27.8664 4.21906 27.9155 4.29162 27.949 4.37147C27.9825 4.45133 27.9997 4.53692 27.9997 4.62334V7.91338C27.9997 7.99981 27.9825 8.0854 27.949 8.16525C27.9155 8.24511 27.8664 8.31766 27.8045 8.37878C27.7426 8.43989 27.6691 8.48835 27.5882 8.52141C27.5073 8.55446 27.4206 8.57144 27.333 8.57139Z" fill="#01292B"/>
<path d="M8.33333 25.0217H1C0.447715 25.0217 0 25.4636 0 26.0087V27.3248C0 27.8699 0.447715 28.3118 1 28.3118H8.33333C8.88562 28.3118 9.33333 27.8699 9.33333 27.3248V26.0087C9.33333 25.4636 8.88562 25.0217 8.33333 25.0217Z" fill="#01292B"/>
<path d="M8.33333 18.4417H1C0.447715 18.4417 0 18.8836 0 19.4287V20.7447C0 21.2898 0.447715 21.7317 1 21.7317H8.33333C8.88562 21.7317 9.33333 21.2898 9.33333 20.7447V19.4287C9.33333 18.8836 8.88562 18.4417 8.33333 18.4417Z" fill="#01292B"/>
<path d="M9.66634 21.7317H2.33301C1.78072 21.7317 1.33301 22.1736 1.33301 22.7187V24.0347C1.33301 24.5798 1.78072 25.0217 2.33301 25.0217H9.66634C10.2186 25.0217 10.6663 24.5798 10.6663 24.0347V22.7187C10.6663 22.1736 10.2186 21.7317 9.66634 21.7317Z" fill="#01292B"/>
<path d="M27.333 11.8616H23.9997C23.6315 11.8616 23.333 12.1562 23.333 12.5196V27.6538C23.333 28.0172 23.6315 28.3118 23.9997 28.3118H27.333C27.7012 28.3118 27.9997 28.0172 27.9997 27.6538V12.5196C27.9997 12.1562 27.7012 11.8616 27.333 11.8616Z" fill="#01292B"/>
<path d="M22.667 16.4675H19.3337C18.9655 16.4675 18.667 16.7621 18.667 17.1255V27.6537C18.667 28.0171 18.9655 28.3117 19.3337 28.3117H22.667C23.0352 28.3117 23.3337 28.0171 23.3337 27.6537V17.1255C23.3337 16.7621 23.0352 16.4675 22.667 16.4675Z" fill="#01292B"/>
<path d="M18 22.3896H14.6667C14.2985 22.3896 14 22.6842 14 23.0477V27.6537C14 28.0171 14.2985 28.3117 14.6667 28.3117H18C18.3682 28.3117 18.6667 28.0171 18.6667 27.6537V23.0477C18.6667 22.6842 18.3682 22.3896 18 22.3896Z" fill="#01292B"/>
</svg>
