<svg width="14" height="19" viewBox="0 0 14 19" fill="none" xmlns="http://www.w3.org/2000/svg">
<path d="M7 0.333374C3.14067 0.333374 0 3.49582 0 7.38393C0 12.9085 6.342 18.6127 6.61189 18.8523C6.72311 18.951 6.86156 19 7 19C7.13844 19 7.27689 18.951 7.38811 18.853C7.658 18.6127 14 12.9085 14 7.38393C14 3.49582 10.8593 0.333374 7 0.333374ZM7 11.2223C4.85567 11.2223 3.11111 9.47771 3.11111 7.33337C3.11111 5.18904 4.85567 3.44449 7 3.44449C9.14433 3.44449 10.8889 5.18904 10.8889 7.33337C10.8889 9.47771 9.14433 11.2223 7 11.2223Z" fill="#CDB04E"/>
</svg>
