<svg width="29" height="40" viewBox="0 0 29 40" fill="none" xmlns="http://www.w3.org/2000/svg">
<path d="M11.4148 32.6827H17.1221C17.735 32.6827 18.2318 32.1731 18.2318 31.5445V28.6177H10.3049V31.5445C10.3049 32.1731 10.8018 32.6827 11.4148 32.6827Z" fill="#CDB04E"/>
<path d="M10.3049 30.5472C11.5729 30.8796 12.9008 31.0567 14.2684 31.0567C15.6359 31.0567 16.9638 30.8796 18.2318 30.5472V28.6177H10.3049V30.5472Z" fill="#2B4D66"/>
<path d="M12.2072 32.6826H16.3291V39.9997H12.2072V32.6826Z" fill="#ECF4FF"/>
<path d="M14.2684 29.2683C22.1486 29.2683 28.5367 22.7164 28.5367 14.6341C28.5367 6.55193 22.1486 0 14.2684 0C6.38825 0 0.00012207 6.55193 0.00012207 14.6341C0.00012207 22.7164 6.38825 29.2683 14.2684 29.2683Z" fill="#CDB04E"/>
<path d="M23.4904 3.46875C25.5993 6.01961 26.8721 9.3207 26.8721 12.9272C26.8721 21.0094 20.4839 27.5613 12.6038 27.5613C9.08749 27.5613 5.86892 26.2559 3.38184 24.093C5.9991 27.2587 9.90459 29.2687 14.2685 29.2687C22.1486 29.2687 28.5368 22.7167 28.5368 14.6345C28.5368 10.1588 26.5771 6.15313 23.4904 3.46875Z" fill="#8D6F0C"/>
<path d="M14.2685 26.0167C20.3975 26.0167 25.366 20.9207 25.366 14.6346C25.366 8.34839 20.3975 3.25244 14.2685 3.25244C8.13944 3.25244 3.1709 8.34839 3.1709 14.6346C3.1709 20.9207 8.13944 26.0167 14.2685 26.0167Z" fill="#A8881E"/>
<path d="M12.0489 21.3006C11.562 21.3006 11.0751 21.1102 10.7036 20.7292L7.05724 16.9893C6.31425 16.2273 6.31425 14.9919 7.05724 14.2299C7.80022 13.4678 9.00472 13.4678 9.7477 14.2299L12.0488 16.5899L18.3133 10.1648C19.0563 9.40275 20.2608 9.40275 21.0038 10.1648C21.7468 10.9268 21.7468 12.1622 21.0038 12.9242L13.3941 20.7291C13.0226 21.1102 12.5357 21.3006 12.0489 21.3006Z" fill="#ECF4FF"/>
</svg>
