<svg width="53" height="53" viewBox="0 0 53 53" fill="none" xmlns="http://www.w3.org/2000/svg">
<path d="M43.7211 25.6486C43.1139 25.1694 42.3167 25.1053 41.6404 25.4815L39.3936 26.7311C38.9472 26.9794 38.663 27.4135 38.614 27.9216C38.6125 27.9377 38.6133 27.9536 38.6123 27.9697L37.6031 28.5311C36.125 29.3531 34.5402 29.4948 32.893 28.9519C30.713 28.2333 28.3847 28.6287 25.9721 30.1264C24.0475 28.9425 22.3267 29.0907 20.658 29.2351C18.9305 29.3851 17.1444 29.5398 14.8166 28.2307L14.3884 27.9899C14.3871 27.9671 14.3881 27.9448 14.3858 27.9219C14.3367 27.4135 14.0527 26.9795 13.6061 26.7311L11.3594 25.4815C10.6832 25.1057 9.88617 25.1694 9.27885 25.6485C5.55239 28.5876 3.4799 33.8144 4.35109 38.0767C4.47686 38.6926 4.88088 39.1868 5.45953 39.4324L7.22127 40.1806C7.41753 40.2641 7.62146 40.3053 7.82383 40.3053C8.1144 40.3053 8.40176 40.2202 8.65837 40.0524C8.70237 40.0235 8.74315 39.9917 8.78342 39.9593L12.8346 42.0476L13.9639 43.2629L13.9614 43.2672C13.6089 43.8776 13.5157 44.5906 13.6991 45.2748C13.8824 45.9589 14.3195 46.5299 14.9301 46.8823C15.2724 47.0798 15.641 47.1907 16.011 47.2243C15.9162 47.6394 15.9233 48.0746 16.037 48.4989C16.2203 49.1831 16.6574 49.7541 17.268 50.1065C17.6837 50.3464 18.1379 50.4605 18.5866 50.4605C18.9912 50.4605 19.391 50.3674 19.7537 50.1906C19.9831 50.6451 20.3382 51.0236 20.7879 51.2831C21.2036 51.5232 21.6579 51.6372 22.1066 51.6371C22.551 51.6371 22.9895 51.5243 23.3794 51.312C23.6093 51.7366 23.9513 52.0906 24.3785 52.3372C24.7942 52.5773 25.2485 52.6913 25.6973 52.6913C26.5707 52.6913 27.4216 52.2581 27.9233 51.4814L28.2638 51.6728C28.8025 51.9839 29.3565 52.1406 29.882 52.1406C30.3142 52.1406 30.7271 52.0346 31.0963 51.8214C31.7648 51.4355 32.2039 50.7455 32.2849 49.981C32.3619 49.988 32.439 49.9928 32.5159 49.9928C33.3995 49.9928 34.2603 49.5344 34.733 48.7157C34.9793 48.2892 35.0935 47.8105 35.0708 47.3279C35.9155 47.2593 36.7144 46.7924 37.1692 46.0047C37.4427 45.5309 37.5601 44.9955 37.5153 44.4588C37.6588 44.4442 37.8022 44.4195 37.9443 44.3814C38.6338 44.1966 39.2091 43.7561 39.5641 43.1411C39.7928 42.7451 39.912 42.2914 39.9165 41.8338L44.1307 39.884C44.1958 39.9447 44.2647 40.0023 44.3417 40.0526C44.5981 40.2204 44.8851 40.3055 45.1758 40.3055C45.3782 40.3055 45.5822 40.2642 45.7785 40.1807L47.5403 39.4325C48.1189 39.1868 48.523 38.6927 48.6487 38.0769C49.5198 33.8145 47.4474 28.5877 43.721 25.6487L43.7211 25.6486ZM7.69734 38.5833L6.10702 37.908C6.02825 37.8745 5.99098 37.8289 5.9739 37.7452C5.22124 34.0623 7.0426 29.5218 10.3048 26.9489C10.3487 26.9143 10.3943 26.8969 10.4413 26.8969C10.4782 26.8969 10.5161 26.9077 10.5544 26.929L12.6433 28.0907C9.49468 30.8032 7.78812 34.4242 7.69744 38.5834L7.69734 38.5833ZM15.299 44.846C15.2302 44.5892 15.2645 44.3225 15.3958 44.0952L16.7026 41.8318C16.8339 41.6045 17.0476 41.4414 17.3044 41.3725C17.391 41.3492 17.4786 41.3378 17.5654 41.3378C17.7364 41.3378 17.9044 41.3824 18.0551 41.4694C18.2824 41.6007 18.4456 41.8143 18.5144 42.0711C18.5832 42.3279 18.5489 42.5946 18.4176 42.8219L17.1108 45.0853C16.8377 45.5582 16.2307 45.7207 15.7582 45.4478C15.5309 45.3165 15.3677 45.1028 15.2989 44.846H15.299ZM18.0961 48.672C17.8688 48.5407 17.7057 48.327 17.6368 48.0702C17.5679 47.8134 17.6023 47.5467 17.7336 47.3194L19.852 43.6502C20.0354 43.3329 20.3688 43.1553 20.7113 43.1553C20.8792 43.1553 21.0493 43.198 21.2048 43.2878C21.4321 43.419 21.5952 43.6327 21.6641 43.8895C21.7329 44.1462 21.6985 44.413 21.5673 44.6403L19.4488 48.3095C19.1757 48.7823 18.5689 48.945 18.0961 48.672ZM21.616 49.8487C21.3887 49.7173 21.2256 49.5037 21.1567 49.2468C21.0879 48.99 21.1223 48.7234 21.2535 48.496L23.0015 45.4684C23.1848 45.1511 23.5182 44.9735 23.8608 44.9735C24.0287 44.9735 24.1988 45.0162 24.3542 45.1059C24.5816 45.2373 24.7447 45.4509 24.8135 45.7078C24.8823 45.9643 24.848 46.2304 24.7174 46.4575C24.7172 46.4578 24.717 46.4582 24.7168 46.4585L23.4101 48.722L22.969 49.4861C22.6959 49.9587 22.0892 50.1217 21.6164 49.8486L21.616 49.8487ZM25.2067 50.9027C24.9794 50.7714 24.8162 50.5578 24.7474 50.3009C24.6786 50.0442 24.7129 49.7776 24.8442 49.5504C24.9754 49.3231 24.881 49.4864 24.881 49.4864L26.1511 47.2867C26.2823 47.0594 26.496 46.8963 26.7527 46.8275C26.8392 46.8042 26.9269 46.7928 27.0138 46.7928C27.1847 46.7928 27.3528 46.8372 27.5035 46.9243C27.7308 47.0556 27.8939 47.2693 27.9628 47.5261C28.0316 47.7828 27.9973 48.0495 27.866 48.2768L26.5592 50.5402C26.2862 51.013 25.6796 51.1761 25.2066 50.9026L25.2067 50.9027ZM30.2683 50.3869C29.9719 50.5581 29.5541 50.5052 29.0839 50.2338L28.7555 50.0491L29.3004 49.1051C29.385 48.9586 29.4543 48.8061 29.5088 48.6496L30.2063 49.0522C30.5678 49.2609 30.6437 49.5335 30.6437 49.7253C30.6437 49.9956 30.4964 50.2552 30.2685 50.3869H30.2683ZM38.13 42.3127C37.9961 42.5447 37.778 42.7112 37.5157 42.7814C37.2537 42.8517 36.9815 42.8168 36.7494 42.6825L33.2852 40.6826C32.8891 40.4541 32.3826 40.5896 32.1538 40.9858C31.9252 41.3818 32.061 41.8884 32.457 42.1171L35.3645 43.7956C35.3645 43.7956 35.3648 43.7958 35.365 43.7959C35.5964 43.9295 35.7626 44.1477 35.833 44.4104C35.9034 44.6731 35.8686 44.9451 35.7351 45.1765C35.4564 45.6591 34.8369 45.825 34.3543 45.5466L33.8008 45.227C33.7998 45.2265 33.7989 45.2258 33.798 45.2253C33.797 45.2247 33.7961 45.2243 33.7952 45.2238L30.7008 43.4372C30.3047 43.2084 29.7981 43.3442 29.5696 43.7403C29.3408 44.1364 29.4766 44.6429 29.8727 44.8716L32.9702 46.6599C33.1757 46.7785 33.3234 46.9726 33.386 47.206C33.4486 47.4398 33.4178 47.6818 33.2989 47.8875C33.1798 48.0937 32.9858 48.2418 32.7526 48.3042C32.5192 48.3666 32.2774 48.3357 32.071 48.2164L31.0379 47.62C31.0367 47.6193 31.0356 47.6185 31.0344 47.6178C31.0333 47.6171 29.4136 46.6821 29.4136 46.6821C29.1873 46.1832 28.8139 45.7684 28.3319 45.4901C27.742 45.1494 27.0562 45.0517 26.3934 45.211C26.1998 44.5573 25.7725 44.0123 25.1825 43.6716C24.5727 43.3197 23.8797 43.2394 23.2437 43.3918C23.05 42.7384 22.6228 42.1937 22.033 41.8532C21.4232 41.5013 20.7303 41.4211 20.0943 41.5734C19.9006 40.92 19.4733 40.3754 18.8835 40.035C18.273 39.6824 17.5601 39.5892 16.8759 39.7727C16.1918 39.956 15.6208 40.3932 15.2685 41.0037L14.8306 41.7621L13.9496 40.814C13.8844 40.7439 13.8076 40.6857 13.7224 40.6418L9.36042 38.3933C9.49168 34.819 10.9182 31.8134 13.6054 29.4496L14.005 29.6743C16.7782 31.234 18.9155 31.0489 20.8014 30.8852C22.0944 30.7731 23.1819 30.6793 24.3367 31.1459L20.0408 33.8244C19.4127 34.216 19.0418 34.8038 18.9964 35.4796C18.9476 36.2063 19.2995 36.974 19.9145 37.4833C22.0043 39.2138 23.9079 38.2836 25.5874 37.4631C26.5945 36.9711 27.6358 36.4624 28.7614 36.4558H28.7853C30.0114 36.4558 30.978 37.015 32.096 37.6618L37.7225 40.9103C38.0597 41.1583 38.1285 41.3033 38.2369 41.582C38.2931 41.8325 38.2549 42.0967 38.1301 42.3129L38.13 42.3127ZM38.5883 39.4977L32.9253 36.2281C31.7112 35.5256 30.4561 34.7995 28.7858 34.7995C28.7746 34.7995 28.763 34.7995 28.7517 34.7995C27.2482 34.8084 25.9796 35.4281 24.8603 35.9749C23.1368 36.817 22.1808 37.2097 20.9708 36.2075C20.7649 36.0371 20.6356 35.7891 20.6489 35.5903C20.6526 35.5352 20.6626 35.3884 20.9171 35.2296L26.8256 31.5457C28.8377 30.2913 30.6527 29.9572 32.3746 30.5248C34.4495 31.2087 36.536 31.0199 38.4082 29.9784L39.3809 29.4375C42.0505 31.7798 43.4795 34.7539 43.6351 38.2882L39.3964 40.2493C39.2317 40.0262 39.0008 39.7893 38.6578 39.5426C38.6354 39.5265 38.6123 39.5114 38.5883 39.4976V39.4977ZM47.0262 37.7452C47.0092 37.829 46.9719 37.8745 46.8931 37.908L45.3028 38.5832C45.2121 34.4237 43.5056 30.8029 40.3569 28.0906L42.4458 26.9289C42.5332 26.8803 42.6171 26.8871 42.6956 26.9489C45.9576 29.5216 47.779 34.0622 47.0263 37.7451L47.0262 37.7452ZM16.6276 16.4119H17.6964V23.3369H16.9748C16.5175 23.3369 16.1467 23.7077 16.1467 24.165C16.1467 24.6223 16.5175 24.9931 16.9748 24.9931H36.0251C36.4824 24.9931 36.8532 24.6223 36.8532 24.165C36.8532 23.7077 36.4824 23.3369 36.0251 23.3369H35.3034V16.4119H36.3723C36.8296 16.4119 37.2004 16.0411 37.2004 15.5838V13.2187C37.2004 12.7614 36.8296 12.3906 36.3723 12.3906H34.9718C33.6231 9.30327 30.6728 7.18679 27.328 6.88411V6.37906C28.085 5.85434 28.7238 5.90651 29.7091 5.98653C31.0081 6.09232 32.6243 6.22409 34.9301 4.95354C35.2162 4.79589 35.3829 4.48472 35.3556 4.15916C35.3283 3.8335 35.1122 3.55443 34.8039 3.44656C33.7858 3.09026 32.8979 2.51119 32.0391 1.95118C30.3371 0.841177 28.577 -0.306397 26.1816 0.690562C25.8729 0.819025 25.6717 1.12067 25.6717 1.45513V6.88411C22.327 7.18689 19.3767 9.30337 18.028 12.3906H16.6275C16.1702 12.3906 15.7994 12.7614 15.7994 13.2187V15.5838C15.7994 16.0411 16.1703 16.4119 16.6276 16.4119ZM19.3527 16.4119H23.0134V23.3369H19.3527V16.4119ZM28.3304 16.4119V23.3369H24.6698V16.4119H28.3304ZM33.6473 23.3369H29.9866V16.4119H33.6473V23.3369ZM27.328 2.04941C28.5864 1.73824 29.5936 2.33346 31.1345 3.33839C31.5586 3.61498 32.0093 3.90897 32.4944 4.1867C31.469 4.46826 30.647 4.40118 29.8438 4.33566C29.0355 4.26972 28.2094 4.20243 27.328 4.52364V2.04931V2.04941ZM17.4558 14.0468H18.5887C18.9372 14.0468 19.2484 13.8287 19.3673 13.501C20.4517 10.5105 23.3182 8.50133 26.5 8.50133C29.6819 8.50133 32.5484 10.5105 33.6328 13.501C33.7515 13.8287 34.0628 14.0468 34.4113 14.0468H35.5443V14.7555H17.4558V14.0468ZM14.6998 26.4911C14.6998 26.0338 15.0705 25.663 15.5279 25.663H37.4721C37.9294 25.663 38.3002 26.0338 38.3002 26.4911C38.3002 26.9484 37.9294 27.3192 37.4721 27.3192H15.5279C15.0705 27.3192 14.6998 26.9484 14.6998 26.4911Z" fill="#CDB04E"/>
</svg>
