<svg width="39" height="37" viewBox="0 0 39 37" fill="none" xmlns="http://www.w3.org/2000/svg">
<path d="M36.8562 32.8051H36.7883V31.9251C36.7883 31.1857 36.1867 30.5841 35.4471 30.5841H33.8497V29.3707C33.8497 28.7943 33.3965 28.323 32.828 28.2912V16.8856C33.3965 16.8537 33.8497 16.3825 33.8497 15.8061V14.5927H35.3995C35.99 14.5927 36.4705 14.1123 36.4705 13.5218V12.3782H37.2851C37.7644 12.3782 38.1544 11.9882 38.1544 11.5089V10.5206C38.1544 10.201 37.9799 9.908 37.6986 9.75588L24.8667 2.81664C24.5943 2.66907 24.2544 2.77069 24.1073 3.04299C23.9601 3.31522 24.0614 3.65527 24.3336 3.80239L37.0336 10.6704V11.2574H1.16375V10.6752L19.3741 1.12036L22.0244 2.55366C22.2968 2.70108 22.6367 2.59954 22.7839 2.32731C22.931 2.05508 22.8297 1.71503 22.5575 1.56791L19.9072 0.134543C19.5798 -0.0424933 19.1876 -0.0449552 18.8579 0.127978L0.508577 9.75335C0.221351 9.90397 0.0429721 10.199 0.0429721 10.5232V11.5089C0.0429721 11.9882 0.433003 12.3782 0.912336 12.3782H1.72694V13.5218C1.72694 14.1123 2.20732 14.5927 2.79788 14.5927H4.34771V15.8061C4.34771 16.3825 4.80086 16.8537 5.36942 16.8856V24.3106C5.36942 24.6201 5.62031 24.8709 5.92977 24.8709C6.23923 24.8709 6.49013 24.62 6.49013 24.3106V16.8887H8.28331V28.2881H6.4902V26.9443C6.4902 26.6348 6.23931 26.384 5.92985 26.384C5.62039 26.384 5.36949 26.6348 5.36949 26.9443V28.2912C4.80094 28.323 4.34779 28.7943 4.34779 29.3707V30.5841H2.75029C2.01081 30.5841 1.40913 31.1857 1.40913 31.9251V32.8051H1.34116C0.601609 32.8051 0 33.4067 0 34.1463V35.3184C0 35.7752 0.371753 36.1471 0.82863 36.1471H37.3688C37.8256 36.1471 38.1974 35.7753 38.1974 35.3184V34.1463C38.1974 33.4067 37.5958 32.8051 36.8562 32.8051ZM2.84772 13.472V12.3782H35.3497V13.472H2.84772ZM32.7289 29.4088V30.584H28.8923V29.4088H32.7289ZM29.914 28.288V16.8887H31.7072V28.288H29.914ZM28.8923 15.7679V14.5928H32.7289V15.7679H28.8923ZM25.02 28.2912V16.8856C25.5886 16.8537 26.0417 16.3825 26.0417 15.8061V14.5927H27.7715V15.8061C27.7715 16.3825 28.2247 16.8537 28.7932 16.8856V28.2912C28.2247 28.323 27.7715 28.7943 27.7715 29.3707V30.5841H26.0417V29.3707C26.0417 28.7943 25.5886 28.323 25.02 28.2912ZM24.921 29.4088V30.584H21.0844V29.4088H24.921ZM22.1061 28.288V16.8887H23.8993V28.288H22.1061ZM21.0844 15.7679V14.5928H24.921V15.7679H21.0844ZM17.2121 28.2912V16.8856C17.7807 16.8537 18.2338 16.3825 18.2338 15.8061V14.5927H19.9636V15.8061C19.9636 16.3825 20.4167 16.8537 20.9853 16.8856V28.2912C20.4167 28.323 19.9636 28.7943 19.9636 29.3707V30.5841H18.2338V29.3707C18.2338 28.7943 17.7807 28.323 17.2121 28.2912ZM16.6517 29.4088H17.113V30.584H13.2764V29.4088H13.7378H16.6517ZM14.2981 28.288V16.8887H16.0913V28.288H14.2981ZM13.2764 15.7679V14.5928H17.113V15.7679H13.2764ZM9.40417 28.2912V16.8856C9.97273 16.8537 10.4259 16.3825 10.4259 15.8061V14.5927H12.1556V15.8061C12.1556 16.3825 12.6088 16.8537 13.1774 16.8856V28.2912C12.6088 28.323 12.1556 28.7943 12.1556 29.3707V30.5841H10.4259V29.3707C10.4259 28.7943 9.97273 28.323 9.40417 28.2912ZM5.46849 15.7679V14.5928H9.30509V15.7679H5.46849ZM5.46849 29.4088H5.92985H8.84382H9.30517V30.584H5.46849V29.4088ZM2.52991 31.9251C2.52991 31.8037 2.62876 31.7048 2.75029 31.7048H35.4471C35.5686 31.7048 35.6675 31.8036 35.6675 31.9251V32.8051H2.52991V31.9251ZM37.0766 35.0263H1.12078V34.1463C1.12078 34.0248 1.21963 33.9259 1.34116 33.9259H36.8562C36.9778 33.9259 37.0766 34.0247 37.0766 34.1463V35.0263Z" fill="#01292B"/>
</svg>
