<svg width="42" height="42" viewBox="0 0 42 42" fill="none" xmlns="http://www.w3.org/2000/svg">
<path d="M12.0406 8.3721L9.67422 10.7385L8.9461 10.0104C8.67305 9.73733 8.23198 9.73733 7.95893 10.0104C7.68589 10.2834 7.68589 10.7245 7.95893 10.9975L9.18414 12.2227C9.32416 12.3628 9.49919 12.4258 9.68122 12.4258C9.86325 12.4258 10.0383 12.3558 10.1783 12.2227L13.0348 9.36627C13.3078 9.09322 13.3078 8.65215 13.0348 8.3791C12.7617 8.10606 12.3207 8.10606 12.0476 8.3791L12.0406 8.3721Z" fill="#01292B"/>
<path d="M10.4931 4.8999C7.40607 4.8999 4.89307 7.4129 4.89307 10.4999C4.89307 13.5869 7.40607 16.0999 10.4931 16.0999C13.5801 16.0999 16.0931 13.5869 16.0931 10.4999C16.0931 7.4129 13.5801 4.8999 10.4931 4.8999ZM10.4931 14.6999C8.17607 14.6999 6.29307 12.8169 6.29307 10.4999C6.29307 8.1829 8.17607 6.2999 10.4931 6.2999C12.8101 6.2999 14.6931 8.1829 14.6931 10.4999C14.6931 12.8169 12.8101 14.6999 10.4931 14.6999Z" fill="#01292B"/>
<path d="M19.46 15.393L18.326 14.259C18.466 13.972 18.585 13.678 18.69 13.377H20.293C20.678 13.377 20.993 13.062 20.993 12.677V8.323C20.993 7.938 20.678 7.623 20.293 7.623H18.69C18.585 7.322 18.466 7.028 18.326 6.741L19.46 5.607C19.593 5.474 19.663 5.299 19.663 5.11C19.663 4.921 19.586 4.746 19.46 4.613L16.38 1.533C16.114 1.267 15.652 1.267 15.393 1.533L14.259 2.667C13.972 2.527 13.678 2.408 13.377 2.303V0.7C13.377 0.315 13.062 0 12.677 0H8.323C7.938 0 7.623 0.315 7.623 0.7V2.303C7.322 2.408 7.028 2.527 6.741 2.667L5.607 1.533C5.474 1.4 5.299 1.33 5.11 1.33C4.921 1.33 4.746 1.407 4.613 1.533L1.533 4.613C1.4 4.746 1.33 4.921 1.33 5.11C1.33 5.299 1.407 5.474 1.533 5.607L2.667 6.741C2.527 7.028 2.408 7.322 2.303 7.623H0.7C0.315 7.623 0 7.938 0 8.323V12.677C0 13.062 0.315 13.377 0.7 13.377H2.303C2.408 13.678 2.527 13.972 2.667 14.259L1.533 15.393C1.4 15.526 1.33 15.701 1.33 15.89C1.33 16.079 1.407 16.254 1.533 16.387L4.613 19.467C4.879 19.733 5.341 19.733 5.6 19.467L6.734 18.333C7.021 18.473 7.315 18.592 7.616 18.697V20.3C7.616 20.685 7.931 21 8.316 21H12.67C13.055 21 13.37 20.685 13.37 20.3V18.697C13.671 18.592 13.965 18.473 14.252 18.333L15.386 19.467C15.519 19.6 15.694 19.67 15.883 19.67C16.072 19.67 16.247 19.593 16.38 19.467L19.46 16.387C19.593 16.254 19.663 16.079 19.663 15.89C19.663 15.701 19.586 15.526 19.46 15.393ZM16.975 14.889L17.976 15.89L15.883 17.983L14.882 16.982C14.658 16.758 14.322 16.716 14.042 16.863C13.552 17.136 13.02 17.36 12.481 17.514C12.18 17.598 11.97 17.871 11.97 18.186V19.607H9.016V18.186C9.016 17.871 8.806 17.598 8.505 17.514C7.959 17.36 7.434 17.143 6.944 16.863C6.671 16.709 6.328 16.758 6.104 16.982L5.103 17.983L3.01 15.89L4.011 14.889C4.235 14.665 4.277 14.329 4.13 14.049C3.857 13.559 3.633 13.027 3.479 12.488C3.395 12.187 3.122 11.977 2.807 11.977H1.386V9.023H2.807C3.122 9.023 3.395 8.813 3.479 8.512C3.633 7.966 3.85 7.441 4.13 6.951C4.284 6.678 4.235 6.335 4.011 6.111L3.01 5.11L5.103 3.017L6.104 4.018C6.328 4.242 6.664 4.284 6.944 4.137C7.434 3.864 7.966 3.64 8.505 3.486C8.806 3.402 9.016 3.129 9.016 2.814V1.393H11.97V2.814C11.97 3.129 12.18 3.402 12.481 3.486C13.027 3.64 13.552 3.857 14.042 4.137C14.315 4.291 14.658 4.242 14.882 4.018L15.883 3.017L17.976 5.11L16.975 6.111C16.751 6.335 16.709 6.671 16.856 6.951C17.129 7.441 17.353 7.973 17.507 8.512C17.591 8.813 17.864 9.023 18.179 9.023H19.6V11.977H18.179C17.864 11.977 17.591 12.187 17.507 12.488C17.353 13.034 17.136 13.559 16.856 14.049C16.702 14.322 16.751 14.665 16.975 14.889Z" fill="#01292B"/>
<path d="M30.233 37.7999H20.993V20.2999H36.393V30.0999C36.393 30.4849 36.708 30.7999 37.093 30.7999C37.478 30.7999 37.793 30.4849 37.793 30.0999V19.5999C37.793 19.2149 37.478 18.8999 37.093 18.8999H20.293C19.908 18.8999 19.593 19.2149 19.593 19.5999V38.4999C19.593 38.8849 19.908 39.1999 20.293 39.1999H30.233C30.618 39.1999 30.933 38.8849 30.933 38.4999C30.933 38.1149 30.618 37.7999 30.233 37.7999Z" fill="#01292B"/>
<path d="M37.0929 32.2002C34.3909 32.2002 32.1929 34.3982 32.1929 37.1002C32.1929 39.8022 34.3909 42.0002 37.0929 42.0002C39.7949 42.0002 41.9929 39.8022 41.9929 37.1002C41.9929 34.3982 39.7949 32.2002 37.0929 32.2002ZM37.0929 40.6002C35.1609 40.6002 33.5929 39.0322 33.5929 37.1002C33.5929 35.1682 35.1609 33.6002 37.0929 33.6002C39.0249 33.6002 40.5929 35.1682 40.5929 37.1002C40.5929 39.0322 39.0249 40.6002 37.0929 40.6002Z" fill="#01292B"/>
<path d="M39.3897 35.406C39.1166 35.1329 38.6756 35.1329 38.4025 35.406L36.4982 37.3103L35.7911 36.6032C35.518 36.3301 35.077 36.3301 34.8039 36.6032C34.5309 36.8762 34.5309 37.3173 34.8039 37.5903L36.0011 38.7875C36.1411 38.9275 36.3162 38.9906 36.4982 38.9906C36.6802 38.9906 36.8552 38.9205 36.9953 38.7875L39.3967 36.3861C39.6697 36.1131 39.6697 35.672 39.3967 35.399L39.3897 35.406Z" fill="#01292B"/>
<path d="M33.593 23.1001H23.793C23.408 23.1001 23.093 23.4151 23.093 23.8001C23.093 24.1851 23.408 24.5001 23.793 24.5001H33.593C33.978 24.5001 34.293 24.1851 34.293 23.8001C34.293 23.4151 33.978 23.1001 33.593 23.1001Z" fill="#01292B"/>
<path d="M33.593 26.6001H23.793C23.408 26.6001 23.093 26.9151 23.093 27.3001C23.093 27.6851 23.408 28.0001 23.793 28.0001H33.593C33.978 28.0001 34.293 27.6851 34.293 27.3001C34.293 26.9151 33.978 26.6001 33.593 26.6001Z" fill="#01292B"/>
<path d="M34.293 30.8001C34.293 30.4151 33.978 30.1001 33.593 30.1001H23.793C23.408 30.1001 23.093 30.4151 23.093 30.8001C23.093 31.1851 23.408 31.5001 23.793 31.5001H33.593C33.978 31.5001 34.293 31.1851 34.293 30.8001Z" fill="#01292B"/>
<path d="M23.793 33.6001C23.408 33.6001 23.093 33.9151 23.093 34.3001C23.093 34.6851 23.408 35.0001 23.793 35.0001H29.393C29.778 35.0001 30.093 34.6851 30.093 34.3001C30.093 33.9151 29.778 33.6001 29.393 33.6001H23.793Z" fill="#01292B"/>
<path d="M23.793 7.0001H34.993V16.1001C34.993 16.4851 35.308 16.8001 35.693 16.8001C36.078 16.8001 36.393 16.4851 36.393 16.1001V6.3001C36.393 5.9151 36.078 5.6001 35.693 5.6001H23.793C23.408 5.6001 23.093 5.9151 23.093 6.3001C23.093 6.6851 23.408 7.0001 23.793 7.0001Z" fill="#01292B"/>
<path d="M16.093 35.0001H6.99302V23.8001C6.99302 23.4151 6.67802 23.1001 6.29302 23.1001C5.90802 23.1001 5.59302 23.4151 5.59302 23.8001V35.7001C5.59302 36.0851 5.90802 36.4001 6.29302 36.4001H16.093C16.478 36.4001 16.793 36.0851 16.793 35.7001C16.793 35.3151 16.478 35.0001 16.093 35.0001Z" fill="#01292B"/>
</svg>
