<svg width="45" height="45" viewBox="0 0 45 45" fill="none" xmlns="http://www.w3.org/2000/svg">
<g clip-path="url(#clip0_1461_264)">
<path d="M42.5992 12.1068H36.0857C35.9394 11.4494 35.3525 10.9561 34.6516 10.9561H33.1748C32.5459 10.9561 32.0268 10.6092 31.7861 10.0281C31.5455 9.4471 31.6672 8.83468 32.1119 8.39004L33.1563 7.34581C33.7294 6.77268 33.7294 5.84007 33.1563 5.26685L30.9426 3.05323C30.3695 2.4801 29.4368 2.48019 28.8637 3.05332L27.8195 4.09755C27.3747 4.54228 26.7625 4.66427 26.1813 4.42345C25.6003 4.1828 25.2534 3.66363 25.2534 3.03478V1.55795C25.2534 0.747334 24.5939 0.0878906 23.7832 0.0878906H20.6529C19.8423 0.0878906 19.1828 0.747334 19.1828 1.55795V3.03469C19.1828 3.66363 18.836 4.18271 18.2548 4.42345C17.6738 4.66409 17.0615 4.54228 16.6167 4.09755L15.5725 3.05332C15.2955 2.77629 14.9262 2.62371 14.533 2.62371C14.1398 2.62371 13.7706 2.77629 13.4935 3.05332L11.2801 5.26676C11.0031 5.54379 10.8504 5.91302 10.8504 6.30633C10.8504 6.69964 11.003 7.06887 11.28 7.34581L12.3242 8.39004C12.769 8.83477 12.8907 9.4471 12.6501 10.0281C12.4095 10.6092 11.8902 10.9561 11.2614 10.9561H9.78455C8.97394 10.9561 8.3145 11.6155 8.3145 12.4262V15.5566C8.3145 16.3672 8.97394 17.0266 9.78455 17.0266H11.2614C11.8902 17.0266 12.4094 17.3735 12.6501 17.9545C12.8907 18.5355 12.769 19.1479 12.3242 19.5927L11.2801 20.6368C11.0031 20.9138 10.8504 21.2831 10.8504 21.6764C10.8504 22.0697 11.003 22.4389 11.28 22.7159L13.4935 24.9294C13.7706 25.2064 14.1398 25.359 14.533 25.359C14.9262 25.359 15.2955 25.2064 15.5725 24.9294L16.6166 23.8852C17.0615 23.4405 17.6739 23.3188 18.2548 23.5593C18.8358 23.8 19.1828 24.3192 19.1828 24.9481V26.4248C19.1828 27.2355 19.8423 27.8949 20.6529 27.8949H23.7832C24.5939 27.8949 25.2534 27.2355 25.2534 26.4248V24.9479C25.2534 24.319 25.6002 23.7999 26.1813 23.5592C26.7623 23.3185 27.3747 23.4403 27.8194 23.8851L28.8637 24.9293C29.1407 25.2063 29.5099 25.3589 29.9032 25.3589C30.2964 25.3589 30.6656 25.2063 30.9427 24.9293L33.1563 22.7158C33.4332 22.4387 33.5859 22.0696 33.5859 21.6763C33.5859 21.283 33.4333 20.9138 33.1563 20.6368L32.112 19.5926C31.6672 19.1479 31.5455 18.5354 31.786 17.9545C32.0268 17.3734 32.5459 17.0265 33.1749 17.0265H34.6516C35.3525 17.0265 35.9395 16.5332 36.0858 15.8758H37.7422V18.9744C37.7422 19.3254 37.9491 19.6451 38.2691 19.7892C38.3862 19.8419 38.5109 19.8676 38.6347 19.8676C38.8493 19.8676 39.0615 19.7905 39.2278 19.643L40.0645 18.9016L40.9013 19.6432C41.164 19.8758 41.5405 19.9331 41.8602 19.789C42.1801 19.645 42.3867 19.3254 42.3867 18.9745V15.8759H42.5992C43.6384 15.8759 44.4838 15.0305 44.4838 13.9914C44.4838 12.9522 43.6384 12.1068 42.5992 12.1068ZM30.568 17.45C30.1231 18.5244 30.3574 19.7025 31.1797 20.5248L32.2239 21.5691C32.2821 21.6272 32.2821 21.7254 32.2239 21.7835L30.0105 23.997C29.9745 24.033 29.9322 24.0405 29.9031 24.0405C29.874 24.0405 29.8317 24.033 29.7958 23.997L28.7516 22.9528C27.9294 22.1305 26.751 21.896 25.6768 22.3412C24.6024 22.7862 23.935 23.7851 23.935 24.9479V26.4247C23.935 26.5069 23.8655 26.5764 23.7832 26.5764H20.6529C20.5707 26.5764 20.5011 26.5068 20.5011 26.4247V24.9479C20.5011 23.7851 19.8337 22.7863 18.7594 22.3412C17.6853 21.8963 16.507 22.1306 15.6846 22.9528L14.6403 23.997C14.6045 24.033 14.5622 24.0405 14.5331 24.0405C14.504 24.0405 14.4617 24.033 14.4259 23.997L12.2123 21.7834C12.1764 21.7476 12.1689 21.7054 12.1689 21.6763C12.1689 21.6472 12.1764 21.605 12.2124 21.5691L13.2566 20.5248C14.0787 19.7026 14.3131 18.5244 13.8682 17.4501C13.4232 16.3757 12.4243 15.7083 11.2615 15.7083H9.78464C9.70238 15.7083 9.63294 15.6388 9.63294 15.5566V12.4262C9.63294 12.3439 9.70238 12.2745 9.78464 12.2745H11.2615C12.4243 12.2745 13.4232 11.607 13.8682 10.5326C14.3131 9.45826 14.0788 8.28009 13.2566 7.45787L12.2124 6.41347C12.1765 6.37761 12.1689 6.33542 12.1689 6.30633C12.1689 6.27724 12.1765 6.23496 12.2124 6.19901L14.426 3.98549C14.484 3.92739 14.5823 3.92739 14.6403 3.98549L15.6846 5.02972C16.5067 5.85193 17.685 6.08634 18.7594 5.64135C19.8338 5.19636 20.5011 4.19748 20.5011 3.0346V1.55795C20.5011 1.47568 20.5707 1.40625 20.6529 1.40625H23.7832C23.8655 1.40625 23.935 1.47577 23.935 1.55795V3.03478C23.935 4.19766 24.6025 5.19653 25.6768 5.64152C26.7512 6.08643 27.9293 5.85211 28.7516 5.02989L29.7958 3.98566C29.8539 3.92748 29.9524 3.92766 30.0103 3.98566L32.2238 6.19919C32.282 6.25737 32.282 6.35555 32.2238 6.41373L31.1795 7.45796C30.3574 8.28018 30.123 9.45844 30.568 10.5328C30.8823 11.2916 31.4735 11.8459 32.2029 12.1069H29.6226C28.7724 8.74063 25.7436 6.35098 22.2181 6.35098C18.0051 6.35098 14.5777 9.77845 14.5777 13.9914C14.5777 18.2043 18.0051 21.6318 22.2181 21.6318C25.7436 21.6318 28.7724 19.2422 29.6226 15.8759H32.2031C31.4736 16.1369 30.8823 16.6912 30.568 17.45ZM28.2547 12.1068H27.0777C26.3083 10.1253 24.3775 8.78027 22.2182 8.78027C19.3449 8.78027 17.0071 11.1179 17.0071 13.9913C17.0071 16.8647 19.3449 19.2024 22.2182 19.2024C24.3774 19.2024 26.3083 17.8574 27.0777 15.8759H28.2546C27.4449 18.4888 25.0211 20.3134 22.2182 20.3134C18.7322 20.3134 15.8961 17.4773 15.8961 13.9913C15.8961 10.5053 18.7322 7.66925 22.2182 7.66925C25.0212 7.66925 27.4449 9.49395 28.2547 12.1068ZM41.0683 18.0297L40.5015 17.5275C40.2521 17.3064 39.8768 17.3064 39.6272 17.5275L39.0606 18.0297V15.8759H41.0684V18.0297H41.0683ZM42.5992 14.5575H26.603C26.3072 14.5575 26.0476 14.7546 25.968 15.0396C25.5011 16.7143 23.959 17.8841 22.2182 17.8841C20.0717 17.8841 18.3255 16.1378 18.3255 13.9913C18.3255 11.8449 20.0717 10.0986 22.2182 10.0986C23.959 10.0986 25.5011 11.2683 25.968 12.943C26.0475 13.2281 26.3071 13.4251 26.603 13.4251H42.5992C42.9115 13.4251 43.1654 13.6791 43.1654 13.9913C43.1654 14.3035 42.9114 14.5575 42.5992 14.5575ZM22.2182 11.499C20.8438 11.499 19.7259 12.6171 19.7259 13.9913C19.7259 15.3656 20.8439 16.4836 22.2182 16.4836C23.5924 16.4836 24.7105 15.3656 24.7105 13.9913C24.7105 12.6171 23.5925 11.499 22.2182 11.499ZM22.2182 15.1654C21.5709 15.1654 21.0442 14.6387 21.0442 13.9914C21.0442 13.3441 21.5709 12.8174 22.2182 12.8174C22.8655 12.8174 23.3921 13.3441 23.3921 13.9914C23.3921 14.6387 22.8655 15.1654 22.2182 15.1654ZM37.6715 28.2599C36.8662 28.0441 36.0274 28.1535 35.3096 28.5681L28.1236 32.7171C28.1424 32.3562 28.1066 31.9867 28.0081 31.6193C27.503 29.7347 25.5592 28.6121 23.6743 29.1171L20.734 29.905C19.6051 30.2075 18.5644 30.0704 17.5523 29.4862L13.6327 27.2232C12.0745 26.3234 10.5067 26.9119 8.69128 27.5933C7.65101 27.9838 6.48839 28.4199 5.11466 28.6791L5.03029 28.3642C4.8596 27.727 4.20236 27.3476 3.56515 27.5183L1.40269 28.0978C0.765657 28.2685 0.386321 28.9259 0.557004 29.563L4.43219 44.0253C4.51463 44.3334 4.71274 44.5912 4.98994 44.7513C5.17478 44.858 5.37965 44.9125 5.58699 44.9125C5.69061 44.9125 5.79476 44.8988 5.89741 44.8714L8.0597 44.292C8.36785 44.2095 8.62554 44.0114 8.78559 43.7342C8.94555 43.4572 8.98818 43.1349 8.90556 42.8268L8.89545 42.789C12.0995 42.0716 14.0978 42.6415 16.8002 43.4121C17.286 43.5507 17.7885 43.6939 18.3252 43.8378C18.7861 43.9613 19.2411 44.023 19.6886 44.0229C20.557 44.0229 21.3973 43.7907 22.1993 43.3277L38.4234 33.9603C39.1412 33.5461 39.6552 32.8745 39.8709 32.0693C40.0865 31.2642 39.9771 30.4255 39.5628 29.7076C39.1483 28.9899 38.4766 28.4758 37.6715 28.2599ZM5.67408 43.5663L1.862 29.3396L3.78857 28.8234L7.60056 43.0501L5.67408 43.5663ZM38.5972 31.7283C38.4727 32.1932 38.1768 32.5804 37.7641 32.8186L21.5399 42.1861C20.6258 42.7138 19.6855 42.8376 18.6663 42.5644C18.1398 42.4233 17.6425 42.2815 17.1616 42.1443C14.3607 41.3455 12.1151 40.7061 8.554 41.5151L5.45673 29.9559C6.89304 29.6758 8.08545 29.229 9.15455 28.8278C10.9946 28.1371 11.9999 27.803 12.9735 28.365L16.8931 30.628C18.205 31.3855 19.612 31.5706 21.0752 31.1786L24.0155 30.3907C25.1977 30.0741 26.4178 30.7781 26.7347 31.9606C27.0515 33.1431 26.3473 34.3629 25.1649 34.6797L20.8651 35.8318C20.1282 36.0292 19.4085 36.0359 18.7258 35.8518C18.3739 35.7572 18.0125 35.9649 17.9177 36.3166C17.8229 36.6681 18.0309 37.0299 18.3824 37.1247C18.8256 37.2443 19.2782 37.3041 19.7376 37.3041C20.2211 37.3041 20.712 37.2379 21.2064 37.1054L25.5062 35.9533C26.3096 35.7381 26.9738 35.2607 27.4331 34.6384L35.9688 29.71C36.3818 29.4717 36.8654 29.409 37.3303 29.5336C37.7953 29.6583 38.1825 29.9543 38.4208 30.367C38.6591 30.7797 38.7218 31.2632 38.5972 31.7283Z" fill="#01292B"/>
</g>
<defs>
<clipPath id="clip0_1461_264">
<rect width="45" height="45" fill="white"/>
</clipPath>
</defs>
</svg>
