<svg width="37" height="47" viewBox="0 0 37 47" fill="none" xmlns="http://www.w3.org/2000/svg">
<mask id="path-1-inside-1_239_997" fill="white">
<path d="M31.7407 30.7483C34.7696 27.4801 36.6245 23.109 36.6245 18.3122C36.6244 8.21484 28.4096 0 18.3122 0C8.21475 0 0 8.21484 0 18.3122C0 23.4787 2.15137 28.1515 5.60437 31.4841L1.09116 41.1779C0.973219 41.4312 1.00584 41.7291 1.17581 41.9508C1.34578 42.1724 1.62488 42.2814 1.90013 42.2333L7.43869 41.2656L10.2636 46.1269C10.3982 46.3586 10.6457 46.5 10.9119 46.5C10.9233 46.5 10.9347 46.4997 10.9461 46.4993C11.2252 46.4865 11.4741 46.3198 11.592 46.0666L16.0529 36.485C16.7934 36.5765 17.5473 36.6244 18.3122 36.6244C19.4123 36.6244 20.4901 36.5267 21.5374 36.3398L24.9042 44.1568C25.0148 44.4133 25.2588 44.5873 25.5373 44.6079C25.556 44.6094 25.5746 44.61 25.5932 44.61C25.8512 44.61 26.0929 44.4769 26.2303 44.2554L29.195 39.4781L34.703 40.6061C34.9767 40.6628 35.2589 40.5615 35.4352 40.3447C35.6115 40.1281 35.6527 39.8313 35.5423 39.5748L31.7407 30.7483ZM10.8386 44.1308L8.47303 40.0599C8.31525 39.7884 8.00541 39.6444 7.69547 39.698L3.05747 40.5084L6.77569 32.5222C8.98884 34.3223 11.6287 35.6168 14.5179 36.228L10.8386 44.1308ZM1.5 18.3122C1.5 9.04191 9.04191 1.5 18.3122 1.5C27.5825 1.5 35.1244 9.04191 35.1244 18.3122C35.1244 27.5825 27.5825 35.1244 18.3122 35.1244C9.04191 35.1244 1.5 27.5825 1.5 18.3122ZM28.9837 37.904C28.6761 37.8406 28.3616 37.9762 28.1961 38.2433L25.7135 42.2438L23.0276 36.0078C25.8833 35.2462 28.4667 33.8108 30.5956 31.8818L33.5962 38.8486L28.9837 37.904ZM30.9169 23.4734C30.881 23.1732 30.8475 22.9061 30.8174 22.6663C30.6952 21.6919 30.6338 21.203 30.7021 20.8162C30.7703 20.4294 30.9952 19.9908 31.4433 19.117C31.5535 18.902 31.6763 18.6624 31.8127 18.3927C32.5236 16.9864 32.2292 15.3169 31.0802 14.2385C30.8598 14.0316 30.6624 13.8486 30.4853 13.6841C29.7653 13.0163 29.4039 12.6811 29.2076 12.341C29.0113 12.0009 28.9016 11.5204 28.6833 10.563C28.6295 10.3273 28.5697 10.065 28.5007 9.77063C28.1413 8.23631 26.8426 7.14666 25.2692 7.05909C24.9674 7.04222 24.6986 7.02891 24.4572 7.01691C23.4764 6.96806 22.9841 6.94359 22.615 6.80925C22.246 6.67481 21.8531 6.37725 21.0704 5.78419C20.8777 5.63812 20.6633 5.47566 20.4213 5.29453C19.1597 4.35028 17.4646 4.35028 16.2029 5.29453C15.9608 5.47566 15.7463 5.63822 15.5537 5.78419C14.771 6.37716 14.3781 6.67481 14.0091 6.80925C13.64 6.94359 13.1477 6.96797 12.167 7.01691C11.9256 7.02891 11.6568 7.04231 11.355 7.05909C9.78159 7.14666 8.48297 8.23631 8.12353 9.77063C8.05463 10.0649 7.99472 10.3273 7.941 10.5629C7.72256 11.5203 7.61287 12.0008 7.41656 12.341C7.22025 12.6811 6.85884 13.0162 6.13903 13.684C5.96175 13.8485 5.76441 14.0316 5.544 14.2385C4.395 15.3169 4.10063 16.9864 4.81153 18.3927C4.94794 18.6624 5.07066 18.902 5.18091 19.117C5.62903 19.9908 5.85394 20.4294 5.92209 20.8162C5.99034 21.203 5.92894 21.692 5.80678 22.6663C5.77669 22.9062 5.74322 23.1732 5.70731 23.4734C5.52028 25.038 6.36788 26.5061 7.8165 27.1266C8.09438 27.2456 8.34244 27.3502 8.56519 27.444C9.47006 27.8253 9.92428 28.0167 10.2251 28.2692C10.526 28.5217 10.7933 28.9357 11.326 29.7607C11.4571 29.9637 11.6032 30.1897 11.7686 30.4428C12.4349 31.4616 13.537 32.0393 14.6994 32.0393C15.0417 32.0393 15.3894 31.9891 15.7326 31.8854C16.0219 31.7979 16.279 31.7186 16.5099 31.6474C17.4483 31.3578 17.9193 31.2125 18.312 31.2125C18.7047 31.2125 19.1757 31.3578 20.1142 31.6474C20.3451 31.7186 20.6023 31.7979 20.8915 31.8854C22.3999 32.3413 23.993 31.7616 24.8555 30.4427C25.0209 30.1897 25.1669 29.9636 25.2981 29.7606C25.8308 28.9356 26.0981 28.5215 26.399 28.2691C26.6998 28.0167 27.154 27.8253 28.0589 27.4439C28.2817 27.3501 28.5297 27.2455 28.8076 27.1265C30.2563 26.5061 31.1039 25.038 30.9169 23.4734ZM30.1086 18.4325C29.0769 20.4443 29.0478 20.6096 29.3291 22.8529C29.3588 23.0901 29.392 23.3543 29.4275 23.6513C29.5365 24.5633 29.0614 25.3861 28.2172 25.7477C27.9422 25.8654 27.6968 25.9688 27.4764 26.0617C25.393 26.9396 25.2645 27.0475 24.0381 28.9468C23.9084 29.1477 23.7639 29.3714 23.6003 29.6216C23.0977 30.3902 22.2048 30.7152 21.3256 30.4494C21.0394 30.3629 20.7849 30.2844 20.5565 30.2139C18.3961 29.5473 18.2283 29.5472 16.0678 30.2139C15.8393 30.2844 15.5849 30.3629 15.2987 30.4494C14.4194 30.7154 13.5267 30.3902 13.024 29.6216C12.8603 29.3714 12.7159 29.1476 12.5862 28.9468C11.3598 27.0474 11.2312 26.9396 9.14784 26.0617C8.92744 25.9688 8.68209 25.8654 8.40712 25.7477C7.56291 25.3861 7.08778 24.5632 7.19681 23.6513C7.23225 23.3543 7.26544 23.0902 7.29525 22.8529C7.57659 20.6095 7.54744 20.4443 6.51581 18.4325C6.40669 18.2197 6.28528 17.9827 6.15038 17.7158C5.73609 16.8963 5.901 15.9606 6.57066 15.3321C6.78881 15.1273 6.984 14.9463 7.15931 14.7836C8.81672 13.246 8.90063 13.1007 9.4035 10.8964C9.45666 10.6633 9.51591 10.4037 9.58406 10.1125C9.7935 9.21834 10.5214 8.60756 11.4383 8.55656C11.7369 8.53997 12.0028 8.52675 12.2416 8.51484C14.4997 8.40244 14.6574 8.34497 16.4596 6.97969C16.6502 6.83531 16.8624 6.67453 17.1019 6.49528C17.4695 6.22012 17.8909 6.08259 18.3122 6.08259C18.7335 6.08259 19.1548 6.22022 19.5225 6.49528C19.7619 6.67444 19.9741 6.83531 20.1647 6.97969C21.9668 8.34497 22.1245 8.40244 24.3827 8.51484C24.6215 8.52675 24.8874 8.54006 25.1859 8.55656C26.1029 8.60756 26.8308 9.21834 27.0402 10.1125C27.1085 10.4037 27.1676 10.6634 27.2209 10.8965C27.7238 13.1007 27.8077 13.246 29.4652 14.7836C29.6405 14.9463 29.8357 15.1274 30.0537 15.3321C30.7234 15.9606 30.8883 16.8963 30.474 17.7158C30.3392 17.9827 30.2177 18.2198 30.1086 18.4325ZM24.7465 15.8115L20.7357 15.6159L19.3104 11.8619C19.1519 11.4442 18.76 11.1743 18.3122 11.1743C17.8643 11.1743 17.4724 11.4442 17.3139 11.8619L15.8887 15.6159L11.8779 15.8115C11.4309 15.8332 11.0527 16.1222 10.9143 16.5479C10.7759 16.9736 10.9119 17.4298 11.2608 17.7103L14.3906 20.2259L13.3372 24.1008C13.2198 24.5326 13.3779 24.9817 13.74 25.2447C13.9284 25.3816 14.1475 25.4504 14.3672 25.4504C14.5698 25.4504 14.7728 25.3918 14.9524 25.2743L18.3122 23.0752L21.6719 25.2744C22.0464 25.5196 22.5223 25.5078 22.8845 25.2449C23.2465 24.9817 23.4046 24.5327 23.2871 24.101L22.2337 20.2261L25.3637 17.7105C25.7125 17.43 25.8485 16.9738 25.7101 16.5481C25.5717 16.1224 25.1934 15.8333 24.7465 15.8115ZM17.9081 12.3944L17.9085 12.3953C17.9084 12.395 17.9082 12.3947 17.9081 12.3944C17.9081 12.3943 17.9081 12.3943 17.9081 12.3944ZM21.0735 19.2341C20.7424 19.5002 20.6005 19.9369 20.712 20.3465L21.541 23.396L18.897 21.6652C18.5417 21.4326 18.0825 21.4327 17.7273 21.6652L15.0832 23.396L15.9124 20.3461C16.0236 19.9364 15.8815 19.4999 15.5508 19.2341L13.0876 17.2543L16.2438 17.1004C16.668 17.0799 17.0396 16.8101 17.1905 16.4129L18.3122 13.4586L19.4339 16.4131C19.5847 16.8102 19.9564 17.08 20.3802 17.1005L23.5367 17.2544L21.0735 19.2341Z"/>
</mask>
<path d="M31.7407 30.7483C34.7696 27.4801 36.6245 23.109 36.6245 18.3122C36.6244 8.21484 28.4096 0 18.3122 0C8.21475 0 0 8.21484 0 18.3122C0 23.4787 2.15137 28.1515 5.60437 31.4841L1.09116 41.1779C0.973219 41.4312 1.00584 41.7291 1.17581 41.9508C1.34578 42.1724 1.62488 42.2814 1.90013 42.2333L7.43869 41.2656L10.2636 46.1269C10.3982 46.3586 10.6457 46.5 10.9119 46.5C10.9233 46.5 10.9347 46.4997 10.9461 46.4993C11.2252 46.4865 11.4741 46.3198 11.592 46.0666L16.0529 36.485C16.7934 36.5765 17.5473 36.6244 18.3122 36.6244C19.4123 36.6244 20.4901 36.5267 21.5374 36.3398L24.9042 44.1568C25.0148 44.4133 25.2588 44.5873 25.5373 44.6079C25.556 44.6094 25.5746 44.61 25.5932 44.61C25.8512 44.61 26.0929 44.4769 26.2303 44.2554L29.195 39.4781L34.703 40.6061C34.9767 40.6628 35.2589 40.5615 35.4352 40.3447C35.6115 40.1281 35.6527 39.8313 35.5423 39.5748L31.7407 30.7483ZM10.8386 44.1308L8.47303 40.0599C8.31525 39.7884 8.00541 39.6444 7.69547 39.698L3.05747 40.5084L6.77569 32.5222C8.98884 34.3223 11.6287 35.6168 14.5179 36.228L10.8386 44.1308ZM1.5 18.3122C1.5 9.04191 9.04191 1.5 18.3122 1.5C27.5825 1.5 35.1244 9.04191 35.1244 18.3122C35.1244 27.5825 27.5825 35.1244 18.3122 35.1244C9.04191 35.1244 1.5 27.5825 1.5 18.3122ZM28.9837 37.904C28.6761 37.8406 28.3616 37.9762 28.1961 38.2433L25.7135 42.2438L23.0276 36.0078C25.8833 35.2462 28.4667 33.8108 30.5956 31.8818L33.5962 38.8486L28.9837 37.904ZM30.9169 23.4734C30.881 23.1732 30.8475 22.9061 30.8174 22.6663C30.6952 21.6919 30.6338 21.203 30.7021 20.8162C30.7703 20.4294 30.9952 19.9908 31.4433 19.117C31.5535 18.902 31.6763 18.6624 31.8127 18.3927C32.5236 16.9864 32.2292 15.3169 31.0802 14.2385C30.8598 14.0316 30.6624 13.8486 30.4853 13.6841C29.7653 13.0163 29.4039 12.6811 29.2076 12.341C29.0113 12.0009 28.9016 11.5204 28.6833 10.563C28.6295 10.3273 28.5697 10.065 28.5007 9.77063C28.1413 8.23631 26.8426 7.14666 25.2692 7.05909C24.9674 7.04222 24.6986 7.02891 24.4572 7.01691C23.4764 6.96806 22.9841 6.94359 22.615 6.80925C22.246 6.67481 21.8531 6.37725 21.0704 5.78419C20.8777 5.63812 20.6633 5.47566 20.4213 5.29453C19.1597 4.35028 17.4646 4.35028 16.2029 5.29453C15.9608 5.47566 15.7463 5.63822 15.5537 5.78419C14.771 6.37716 14.3781 6.67481 14.0091 6.80925C13.64 6.94359 13.1477 6.96797 12.167 7.01691C11.9256 7.02891 11.6568 7.04231 11.355 7.05909C9.78159 7.14666 8.48297 8.23631 8.12353 9.77063C8.05463 10.0649 7.99472 10.3273 7.941 10.5629C7.72256 11.5203 7.61287 12.0008 7.41656 12.341C7.22025 12.6811 6.85884 13.0162 6.13903 13.684C5.96175 13.8485 5.76441 14.0316 5.544 14.2385C4.395 15.3169 4.10063 16.9864 4.81153 18.3927C4.94794 18.6624 5.07066 18.902 5.18091 19.117C5.62903 19.9908 5.85394 20.4294 5.92209 20.8162C5.99034 21.203 5.92894 21.692 5.80678 22.6663C5.77669 22.9062 5.74322 23.1732 5.70731 23.4734C5.52028 25.038 6.36788 26.5061 7.8165 27.1266C8.09438 27.2456 8.34244 27.3502 8.56519 27.444C9.47006 27.8253 9.92428 28.0167 10.2251 28.2692C10.526 28.5217 10.7933 28.9357 11.326 29.7607C11.4571 29.9637 11.6032 30.1897 11.7686 30.4428C12.4349 31.4616 13.537 32.0393 14.6994 32.0393C15.0417 32.0393 15.3894 31.9891 15.7326 31.8854C16.0219 31.7979 16.279 31.7186 16.5099 31.6474C17.4483 31.3578 17.9193 31.2125 18.312 31.2125C18.7047 31.2125 19.1757 31.3578 20.1142 31.6474C20.3451 31.7186 20.6023 31.7979 20.8915 31.8854C22.3999 32.3413 23.993 31.7616 24.8555 30.4427C25.0209 30.1897 25.1669 29.9636 25.2981 29.7606C25.8308 28.9356 26.0981 28.5215 26.399 28.2691C26.6998 28.0167 27.154 27.8253 28.0589 27.4439C28.2817 27.3501 28.5297 27.2455 28.8076 27.1265C30.2563 26.5061 31.1039 25.038 30.9169 23.4734ZM30.1086 18.4325C29.0769 20.4443 29.0478 20.6096 29.3291 22.8529C29.3588 23.0901 29.392 23.3543 29.4275 23.6513C29.5365 24.5633 29.0614 25.3861 28.2172 25.7477C27.9422 25.8654 27.6968 25.9688 27.4764 26.0617C25.393 26.9396 25.2645 27.0475 24.0381 28.9468C23.9084 29.1477 23.7639 29.3714 23.6003 29.6216C23.0977 30.3902 22.2048 30.7152 21.3256 30.4494C21.0394 30.3629 20.7849 30.2844 20.5565 30.2139C18.3961 29.5473 18.2283 29.5472 16.0678 30.2139C15.8393 30.2844 15.5849 30.3629 15.2987 30.4494C14.4194 30.7154 13.5267 30.3902 13.024 29.6216C12.8603 29.3714 12.7159 29.1476 12.5862 28.9468C11.3598 27.0474 11.2312 26.9396 9.14784 26.0617C8.92744 25.9688 8.68209 25.8654 8.40712 25.7477C7.56291 25.3861 7.08778 24.5632 7.19681 23.6513C7.23225 23.3543 7.26544 23.0902 7.29525 22.8529C7.57659 20.6095 7.54744 20.4443 6.51581 18.4325C6.40669 18.2197 6.28528 17.9827 6.15038 17.7158C5.73609 16.8963 5.901 15.9606 6.57066 15.3321C6.78881 15.1273 6.984 14.9463 7.15931 14.7836C8.81672 13.246 8.90063 13.1007 9.4035 10.8964C9.45666 10.6633 9.51591 10.4037 9.58406 10.1125C9.7935 9.21834 10.5214 8.60756 11.4383 8.55656C11.7369 8.53997 12.0028 8.52675 12.2416 8.51484C14.4997 8.40244 14.6574 8.34497 16.4596 6.97969C16.6502 6.83531 16.8624 6.67453 17.1019 6.49528C17.4695 6.22012 17.8909 6.08259 18.3122 6.08259C18.7335 6.08259 19.1548 6.22022 19.5225 6.49528C19.7619 6.67444 19.9741 6.83531 20.1647 6.97969C21.9668 8.34497 22.1245 8.40244 24.3827 8.51484C24.6215 8.52675 24.8874 8.54006 25.1859 8.55656C26.1029 8.60756 26.8308 9.21834 27.0402 10.1125C27.1085 10.4037 27.1676 10.6634 27.2209 10.8965C27.7238 13.1007 27.8077 13.246 29.4652 14.7836C29.6405 14.9463 29.8357 15.1274 30.0537 15.3321C30.7234 15.9606 30.8883 16.8963 30.474 17.7158C30.3392 17.9827 30.2177 18.2198 30.1086 18.4325ZM24.7465 15.8115L20.7357 15.6159L19.3104 11.8619C19.1519 11.4442 18.76 11.1743 18.3122 11.1743C17.8643 11.1743 17.4724 11.4442 17.3139 11.8619L15.8887 15.6159L11.8779 15.8115C11.4309 15.8332 11.0527 16.1222 10.9143 16.5479C10.7759 16.9736 10.9119 17.4298 11.2608 17.7103L14.3906 20.2259L13.3372 24.1008C13.2198 24.5326 13.3779 24.9817 13.74 25.2447C13.9284 25.3816 14.1475 25.4504 14.3672 25.4504C14.5698 25.4504 14.7728 25.3918 14.9524 25.2743L18.3122 23.0752L21.6719 25.2744C22.0464 25.5196 22.5223 25.5078 22.8845 25.2449C23.2465 24.9817 23.4046 24.5327 23.2871 24.101L22.2337 20.2261L25.3637 17.7105C25.7125 17.43 25.8485 16.9738 25.7101 16.5481C25.5717 16.1224 25.1934 15.8333 24.7465 15.8115ZM17.9081 12.3944L17.9085 12.3953C17.9084 12.395 17.9082 12.3947 17.9081 12.3944C17.9081 12.3943 17.9081 12.3943 17.9081 12.3944ZM21.0735 19.2341C20.7424 19.5002 20.6005 19.9369 20.712 20.3465L21.541 23.396L18.897 21.6652C18.5417 21.4326 18.0825 21.4327 17.7273 21.6652L15.0832 23.396L15.9124 20.3461C16.0236 19.9364 15.8815 19.4999 15.5508 19.2341L13.0876 17.2543L16.2438 17.1004C16.668 17.0799 17.0396 16.8101 17.1905 16.4129L18.3122 13.4586L19.4339 16.4131C19.5847 16.8102 19.9564 17.08 20.3802 17.1005L23.5367 17.2544L21.0735 19.2341Z" fill="#01292B"/>
<path d="M31.7407 30.7483L31.6719 30.6846L31.6304 30.7293L31.6546 30.7854L31.7407 30.7483ZM36.6245 18.3122H36.7182H36.6245ZM5.60437 31.4841L5.68936 31.5236L5.71758 31.463L5.66948 31.4166L5.60437 31.4841ZM1.09116 41.1779L1.17615 41.2175H1.17615L1.09116 41.1779ZM1.17581 41.9508L1.10141 42.0078L1.10142 42.0078L1.17581 41.9508ZM1.90013 42.2333L1.91626 42.3257H1.91626L1.90013 42.2333ZM7.43869 41.2656L7.51975 41.2185L7.48692 41.162L7.42255 41.1732L7.43869 41.2656ZM10.2636 46.1269L10.3446 46.0798L10.3446 46.0798L10.2636 46.1269ZM10.9461 46.4993L10.9499 46.5929L10.9503 46.5929L10.9461 46.4993ZM11.592 46.0666L11.677 46.1062L11.677 46.1062L11.592 46.0666ZM16.0529 36.485L16.0644 36.3919L15.9967 36.3836L15.9679 36.4454L16.0529 36.485ZM21.5374 36.3398L21.6235 36.3028L21.5941 36.2345L21.5209 36.2476L21.5374 36.3398ZM24.9042 44.1568L24.8181 44.1939L24.8181 44.1939L24.9042 44.1568ZM25.5373 44.6079L25.5448 44.5145L25.5442 44.5144L25.5373 44.6079ZM26.2303 44.2554L26.31 44.3049L26.31 44.3049L26.2303 44.2554ZM29.195 39.4781L29.2138 39.3863L29.1498 39.3732L29.1153 39.4287L29.195 39.4781ZM34.703 40.6061L34.722 40.5143L34.7218 40.5143L34.703 40.6061ZM35.4352 40.3447L35.3624 40.2856L35.3624 40.2856L35.4352 40.3447ZM35.5423 39.5748L35.6284 39.5377L35.6284 39.5377L35.5423 39.5748ZM10.8386 44.1308L10.7576 44.1779L10.8478 44.3332L10.9236 44.1704L10.8386 44.1308ZM8.47303 40.0599L8.55409 40.0128L8.55409 40.0128L8.47303 40.0599ZM7.69547 39.698L7.67951 39.6056L7.67933 39.6056L7.69547 39.698ZM3.05747 40.5084L2.97248 40.4689L2.89666 40.6317L3.07361 40.6008L3.05747 40.5084ZM6.77569 32.5222L6.83485 32.4494L6.74149 32.3735L6.6907 32.4826L6.77569 32.5222ZM14.5179 36.228L14.6029 36.2676L14.6527 36.1607L14.5373 36.1363L14.5179 36.228ZM28.9837 37.904L28.9648 37.9958L28.9649 37.9958L28.9837 37.904ZM28.1961 38.2433L28.2757 38.2927L28.2757 38.2927L28.1961 38.2433ZM25.7135 42.2438L25.6274 42.2808L25.6984 42.4458L25.7931 42.2932L25.7135 42.2438ZM23.0276 36.0078L23.0035 35.9172L22.8986 35.9452L22.9415 36.0449L23.0276 36.0078ZM30.5956 31.8818L30.6817 31.8448L30.6298 31.7243L30.5326 31.8124L30.5956 31.8818ZM33.5962 38.8486L33.5773 38.9404L33.7533 38.9765L33.6823 38.8115L33.5962 38.8486ZM30.9169 23.4734L31.01 23.4623L31.01 23.4623L30.9169 23.4734ZM30.8174 22.6663L30.7244 22.678V22.678L30.8174 22.6663ZM30.7021 20.8162L30.6098 20.7999V20.7999L30.7021 20.8162ZM31.4433 19.117L31.5267 19.1598L31.5267 19.1598L31.4433 19.117ZM31.8127 18.3927L31.729 18.3504L31.729 18.3504L31.8127 18.3927ZM31.0802 14.2385L31.016 14.3068L31.016 14.3068L31.0802 14.2385ZM30.4853 13.6841L30.549 13.6154L30.549 13.6154L30.4853 13.6841ZM29.2076 12.341L29.2888 12.2941L29.2888 12.2941L29.2076 12.341ZM28.6833 10.563L28.7747 10.5422L28.7747 10.5421L28.6833 10.563ZM28.5007 9.77063L28.4094 9.792L28.4094 9.79202L28.5007 9.77063ZM25.2692 7.05909L25.264 7.1527L25.264 7.1527L25.2692 7.05909ZM24.4572 7.01691L24.4526 7.11054L24.4526 7.11054L24.4572 7.01691ZM22.615 6.80925L22.5829 6.89734L22.583 6.89735L22.615 6.80925ZM21.0704 5.78419L21.0138 5.85889L21.0138 5.85891L21.0704 5.78419ZM20.4213 5.29453L20.4775 5.21948L20.4775 5.21948L20.4213 5.29453ZM16.2029 5.29453L16.2591 5.36959L16.2591 5.36959L16.2029 5.29453ZM15.5537 5.78419L15.6103 5.85891L15.6103 5.85891L15.5537 5.78419ZM14.0091 6.80925L14.0411 6.89735L14.0412 6.89734L14.0091 6.80925ZM12.167 7.01691L12.1716 7.11054L12.1716 7.11054L12.167 7.01691ZM11.355 7.05909L11.3498 6.96549L11.3498 6.96549L11.355 7.05909ZM8.12353 9.77063L8.03225 9.74924L8.03225 9.74925L8.12353 9.77063ZM7.941 10.5629L8.0324 10.5838L8.0324 10.5837L7.941 10.5629ZM6.13903 13.684L6.20279 13.7528L6.20279 13.7528L6.13903 13.684ZM5.544 14.2385L5.60816 14.3068L5.60817 14.3068L5.544 14.2385ZM4.81153 18.3927L4.72786 18.435L4.72787 18.435L4.81153 18.3927ZM5.18091 19.117L5.09748 19.1598L5.09749 19.1598L5.18091 19.117ZM5.92209 20.8162L5.82977 20.8324L5.82977 20.8324L5.92209 20.8162ZM5.80678 22.6663L5.8998 22.678L5.8998 22.678L5.80678 22.6663ZM5.70731 23.4734L5.61423 23.4623L5.61422 23.4623L5.70731 23.4734ZM7.8165 27.1266L7.85342 27.0404L7.85341 27.0404L7.8165 27.1266ZM8.56519 27.444L8.60159 27.3576L8.60159 27.3576L8.56519 27.444ZM11.326 29.7607L11.4048 29.7098L11.4048 29.7098L11.326 29.7607ZM11.7686 30.4428L11.6902 30.4941L11.6902 30.4941L11.7686 30.4428ZM14.6994 32.0393V31.9455H14.6994L14.6994 32.0393ZM15.7326 31.8854L15.7597 31.9751L15.7597 31.9751L15.7326 31.8854ZM16.5099 31.6474L16.5376 31.737H16.5376L16.5099 31.6474ZM20.1142 31.6474L20.0865 31.737H20.0865L20.1142 31.6474ZM20.8915 31.8854L20.8644 31.9751L20.8644 31.9751L20.8915 31.8854ZM24.8555 30.4427L24.9339 30.494L24.9339 30.494L24.8555 30.4427ZM25.2981 29.7606L25.3768 29.8114L25.3768 29.8114L25.2981 29.7606ZM28.0589 27.4439L28.0225 27.3575L28.0225 27.3575L28.0589 27.4439ZM28.8076 27.1265L28.7707 27.0403L28.7707 27.0403L28.8076 27.1265ZM30.1086 18.4325L30.0252 18.3897L30.0251 18.3897L30.1086 18.4325ZM29.3291 22.8529L29.4221 22.8412L29.4221 22.8412L29.3291 22.8529ZM29.4275 23.6513L29.3344 23.6625L29.3344 23.6625L29.4275 23.6513ZM28.2172 25.7477L28.2541 25.8339L28.2541 25.8339L28.2172 25.7477ZM27.4764 26.0617L27.5128 26.148L27.5129 26.148L27.4764 26.0617ZM24.0381 28.9468L23.9593 28.896L23.9593 28.896L24.0381 28.9468ZM23.6003 29.6216L23.5218 29.5703L23.5218 29.5703L23.6003 29.6216ZM21.3256 30.4494L21.2985 30.5392H21.2985L21.3256 30.4494ZM20.5565 30.2139L20.5288 30.3035L20.5565 30.2139ZM16.0678 30.2139L16.0955 30.3035H16.0955L16.0678 30.2139ZM15.2987 30.4494L15.2716 30.3597L15.2715 30.3597L15.2987 30.4494ZM13.024 29.6216L13.1025 29.5703L13.1025 29.5703L13.024 29.6216ZM12.5862 28.9468L12.665 28.896L12.665 28.896L12.5862 28.9468ZM9.14784 26.0617L9.18425 25.9753L9.18423 25.9753L9.14784 26.0617ZM8.40712 25.7477L8.37021 25.8339L8.37022 25.8339L8.40712 25.7477ZM7.19681 23.6513L7.2899 23.6625L7.2899 23.6625L7.19681 23.6513ZM7.29525 22.8529L7.38827 22.8646L7.38827 22.8645L7.29525 22.8529ZM6.51581 18.4325L6.59923 18.3897H6.59923L6.51581 18.4325ZM6.15038 17.7158L6.23405 17.6736L6.23404 17.6735L6.15038 17.7158ZM6.57066 15.3321L6.63481 15.4004V15.4004L6.57066 15.3321ZM7.15931 14.7836L7.09555 14.7149L7.09555 14.7149L7.15931 14.7836ZM9.4035 10.8964L9.4949 10.9172L9.4949 10.9172L9.4035 10.8964ZM9.58406 10.1125L9.49278 10.0912L9.49278 10.0912L9.58406 10.1125ZM11.4383 8.55656L11.4331 8.46296H11.4331L11.4383 8.55656ZM12.2416 8.51484L12.2369 8.42121H12.2369L12.2416 8.51484ZM16.4596 6.97969L16.403 6.90496L16.403 6.90496L16.4596 6.97969ZM17.1019 6.49528L17.0457 6.42023L17.0457 6.42023L17.1019 6.49528ZM19.5225 6.49528L19.5787 6.42022L19.5787 6.42021L19.5225 6.49528ZM20.1647 6.97969L20.2213 6.90496L20.2213 6.90496L20.1647 6.97969ZM24.3827 8.51484L24.3874 8.42121H24.3874L24.3827 8.51484ZM25.1859 8.55656L25.1911 8.46296L25.1911 8.46296L25.1859 8.55656ZM27.0402 10.1125L26.9489 10.1339L26.9489 10.1339L27.0402 10.1125ZM27.2209 10.8965L27.3123 10.8756L27.3123 10.8756L27.2209 10.8965ZM29.4652 14.7836L29.5289 14.7149L29.5289 14.7149L29.4652 14.7836ZM30.0537 15.3321L30.1179 15.2637L30.0537 15.3321ZM30.474 17.7158L30.3903 17.6735L30.3903 17.6736L30.474 17.7158ZM24.7465 15.8115L24.742 15.9051L24.742 15.9051L24.7465 15.8115ZM20.7357 15.6159L20.6481 15.6492L20.6699 15.7066L20.7312 15.7096L20.7357 15.6159ZM19.3104 11.8619L19.2228 11.8952L19.2228 11.8952L19.3104 11.8619ZM17.3139 11.8619L17.4016 11.8952L17.4016 11.8952L17.3139 11.8619ZM15.8887 15.6159L15.8932 15.7096L15.9545 15.7066L15.9763 15.6492L15.8887 15.6159ZM11.8779 15.8115L11.8825 15.9051L11.8825 15.9051L11.8779 15.8115ZM11.2608 17.7103L11.202 17.7834L11.2021 17.7834L11.2608 17.7103ZM14.3906 20.2259L14.4811 20.2505L14.4972 20.1913L14.4494 20.1528L14.3906 20.2259ZM13.3372 24.1008L13.2467 24.0762L13.2467 24.0762L13.3372 24.1008ZM13.74 25.2447L13.6849 25.3206L13.6849 25.3206L13.74 25.2447ZM14.9524 25.2743L14.901 25.1958L14.901 25.1958L14.9524 25.2743ZM18.3122 23.0752L18.3635 22.9967L18.3122 22.9631L18.2608 22.9967L18.3122 23.0752ZM21.6719 25.2744L21.6206 25.3529L21.6206 25.3529L21.6719 25.2744ZM22.8845 25.2449L22.9395 25.3208L22.9396 25.3207L22.8845 25.2449ZM23.2871 24.101L23.1967 24.1256L23.1967 24.1256L23.2871 24.101ZM22.2337 20.2261L22.175 20.153L22.1272 20.1915L22.1433 20.2507L22.2337 20.2261ZM25.3637 17.7105L25.4224 17.7836L25.4224 17.7836L25.3637 17.7105ZM17.9081 12.3944H17.8144V12.4096L17.8192 12.4241L17.9081 12.3944ZM17.9085 12.3953L17.8215 12.4302L17.9995 12.3726L17.9085 12.3953ZM21.0735 19.2341L21.1322 19.3072L21.1322 19.3072L21.0735 19.2341ZM20.712 20.3465L20.8025 20.3219L20.8025 20.3219L20.712 20.3465ZM21.541 23.396L21.4897 23.4744L21.6963 23.6096L21.6315 23.3714L21.541 23.396ZM18.897 21.6652L18.8456 21.7437L18.8457 21.7437L18.897 21.6652ZM17.7273 21.6652L17.6759 21.5867L17.6759 21.5867L17.7273 21.6652ZM15.0832 23.396L14.9927 23.3714L14.9279 23.6096L15.1345 23.4744L15.0832 23.396ZM15.9124 20.3461L16.0028 20.3707L16.0029 20.3706L15.9124 20.3461ZM15.5508 19.2341L15.492 19.3072L15.4921 19.3072L15.5508 19.2341ZM13.0876 17.2543L13.083 17.1607L12.8364 17.1727L13.0289 17.3274L13.0876 17.2543ZM16.2438 17.1004L16.2393 17.0067L16.2392 17.0067L16.2438 17.1004ZM17.1905 16.4129L17.2781 16.4462L17.2781 16.4462L17.1905 16.4129ZM18.3122 13.4586L18.3998 13.4253L18.3122 13.1944L18.2245 13.4253L18.3122 13.4586ZM19.4339 16.4131L19.3463 16.4464L19.3463 16.4464L19.4339 16.4131ZM20.3802 17.1005L20.3848 17.0068L20.3847 17.0068L20.3802 17.1005ZM23.5367 17.2544L23.5954 17.3275L23.7879 17.1728L23.5413 17.1608L23.5367 17.2544ZM31.7407 30.7483L31.8094 30.812C34.8538 27.5272 36.7182 23.1336 36.7182 18.3122H36.6245H36.5307C36.5307 23.0844 34.6855 27.4329 31.6719 30.6846L31.7407 30.7483ZM36.6245 18.3122H36.7182C36.7181 8.16307 28.4614 -0.09375 18.3122 -0.09375V0V0.09375C28.3578 0.09375 36.5306 8.26662 36.5307 18.3122L36.6245 18.3122ZM18.3122 0V-0.09375C8.16297 -0.09375 -0.09375 8.16307 -0.09375 18.3122H0H0.09375C0.09375 8.26662 8.26653 0.09375 18.3122 0.09375V0ZM0 18.3122H-0.09375C-0.09375 23.5052 2.0688 28.2021 5.53927 31.5515L5.60437 31.4841L5.66948 31.4166C2.23395 28.1009 0.09375 23.4521 0.09375 18.3122H0ZM5.60437 31.4841L5.51938 31.4445L1.00617 41.1383L1.09116 41.1779L1.17615 41.2175L5.68936 31.5236L5.60437 31.4841ZM1.09116 41.1779L1.00617 41.1383C0.873491 41.4233 0.910188 41.7584 1.10141 42.0078L1.17581 41.9508L1.25022 41.8937C1.1015 41.6997 1.07295 41.4391 1.17615 41.2175L1.09116 41.1779ZM1.17581 41.9508L1.10142 42.0078C1.29261 42.2571 1.60657 42.3798 1.91626 42.3257L1.90013 42.2333L1.88399 42.141C1.64318 42.1831 1.39895 42.0877 1.2502 41.8937L1.17581 41.9508ZM1.90013 42.2333L1.91626 42.3257L7.45483 41.3579L7.43869 41.2656L7.42255 41.1732L1.88399 42.141L1.90013 42.2333ZM7.43869 41.2656L7.35763 41.3127L10.1825 46.174L10.2636 46.1269L10.3446 46.0798L7.51975 41.2185L7.43869 41.2656ZM10.2636 46.1269L10.1825 46.174C10.334 46.4347 10.6124 46.5938 10.9119 46.5938V46.5V46.4062C10.679 46.4062 10.4624 46.2825 10.3446 46.0798L10.2636 46.1269ZM10.9119 46.5V46.5938C10.9248 46.5938 10.9376 46.5934 10.9499 46.5929L10.9461 46.4993L10.9422 46.4056C10.9319 46.406 10.9218 46.4062 10.9119 46.4062V46.5ZM10.9461 46.4993L10.9503 46.5929C11.2643 46.5786 11.5443 46.3911 11.677 46.1062L11.592 46.0666L11.507 46.027C11.4038 46.2486 11.186 46.3944 10.9418 46.4056L10.9461 46.4993ZM11.592 46.0666L11.677 46.1062L16.1379 36.5245L16.0529 36.485L15.9679 36.4454L11.507 46.027L11.592 46.0666ZM16.0529 36.485L16.0414 36.578C16.7857 36.67 17.5434 36.7181 18.3122 36.7181V36.6244V36.5306C17.5512 36.5306 16.8012 36.483 16.0644 36.3919L16.0529 36.485ZM18.3122 36.6244V36.7181C19.4179 36.7181 20.5012 36.6199 21.5538 36.4321L21.5374 36.3398L21.5209 36.2476C20.479 36.4334 19.4068 36.5306 18.3122 36.5306V36.6244ZM21.5374 36.3398L21.4513 36.3769L24.8181 44.1939L24.9042 44.1568L24.9903 44.1197L21.6235 36.3028L21.5374 36.3398ZM24.9042 44.1568L24.8181 44.1939C24.9425 44.4825 25.217 44.6782 25.5304 44.7014L25.5373 44.6079L25.5442 44.5144C25.3006 44.4964 25.087 44.3442 24.9903 44.1197L24.9042 44.1568ZM25.5373 44.6079L25.5298 44.7014C25.5515 44.7031 25.5728 44.7038 25.5932 44.7038V44.61V44.5163C25.5765 44.5163 25.5604 44.5157 25.5448 44.5145L25.5373 44.6079ZM25.5932 44.61V44.7038C25.8835 44.7038 26.1553 44.554 26.31 44.3049L26.2303 44.2554L26.1507 44.206C26.0304 44.3998 25.8189 44.5163 25.5932 44.5163V44.61ZM26.2303 44.2554L26.31 44.3049L29.2746 39.5276L29.195 39.4781L29.1153 39.4287L26.1507 44.206L26.2303 44.2554ZM29.195 39.4781L29.1762 39.57L34.6842 40.698L34.703 40.6061L34.7218 40.5143L29.2138 39.3863L29.195 39.4781ZM34.703 40.6061L34.684 40.6979C34.9922 40.7617 35.3097 40.6477 35.5079 40.4039L35.4352 40.3447L35.3624 40.2856C35.2081 40.4753 34.9613 40.5638 34.722 40.5143L34.703 40.6061ZM35.4352 40.3447L35.5079 40.4039C35.7063 40.1602 35.7527 39.8263 35.6284 39.5377L35.5423 39.5748L35.4562 39.6119C35.5528 39.8363 35.5167 40.096 35.3624 40.2856L35.4352 40.3447ZM35.5423 39.5748L35.6284 39.5377L31.8268 30.7112L31.7407 30.7483L31.6546 30.7854L35.4562 39.6119L35.5423 39.5748ZM10.8386 44.1308L10.9197 44.0837L8.55409 40.0128L8.47303 40.0599L8.39197 40.107L10.7576 44.1779L10.8386 44.1308ZM8.47303 40.0599L8.55409 40.0128C8.37652 39.7073 8.0279 39.5454 7.67951 39.6056L7.69547 39.698L7.71143 39.7904C7.98291 39.7435 8.25398 39.8696 8.39197 40.107L8.47303 40.0599ZM7.69547 39.698L7.67933 39.6056L3.04133 40.4161L3.05747 40.5084L3.07361 40.6008L7.71161 39.7903L7.69547 39.698ZM3.05747 40.5084L3.14246 40.548L6.86068 32.5617L6.77569 32.5222L6.6907 32.4826L2.97248 40.4689L3.05747 40.5084ZM6.77569 32.5222L6.71653 32.5949C8.94092 34.4042 11.5943 35.7054 14.4985 36.3197L14.5179 36.228L14.5373 36.1363C11.663 35.5283 9.03677 34.2405 6.83485 32.4494L6.77569 32.5222ZM14.5179 36.228L14.4329 36.1884L10.7536 44.0913L10.8386 44.1308L10.9236 44.1704L14.6029 36.2676L14.5179 36.228ZM1.5 18.3122H1.59375C1.59375 9.09368 9.09368 1.59375 18.3122 1.59375V1.5V1.40625C8.99013 1.40625 1.40625 8.99013 1.40625 18.3122H1.5ZM18.3122 1.5V1.59375C27.5307 1.59375 35.0306 9.09368 35.0306 18.3122H35.1244H35.2181C35.2181 8.99013 27.6342 1.40625 18.3122 1.40625V1.5ZM35.1244 18.3122H35.0306C35.0306 27.5307 27.5307 35.0306 18.3122 35.0306V35.1244V35.2181C27.6342 35.2181 35.2181 27.6342 35.2181 18.3122H35.1244ZM18.3122 35.1244V35.0306C9.09368 35.0306 1.59375 27.5307 1.59375 18.3122H1.5H1.40625C1.40625 27.6342 8.99013 35.2181 18.3122 35.2181V35.1244ZM28.9837 37.904L29.0027 37.8121C28.6564 37.7408 28.3026 37.8935 28.1164 38.1938L28.1961 38.2433L28.2757 38.2927C28.4206 38.059 28.6957 37.9404 28.9648 37.9958L28.9837 37.904ZM28.1961 38.2433L28.1164 38.1938L25.6338 42.1943L25.7135 42.2438L25.7931 42.2932L28.2757 38.2927L28.1961 38.2433ZM25.7135 42.2438L25.7996 42.2067L23.1137 35.9707L23.0276 36.0078L22.9415 36.0449L25.6274 42.2808L25.7135 42.2438ZM23.0276 36.0078L23.0518 36.0984C25.9222 35.3328 28.5189 33.8901 30.6585 31.9513L30.5956 31.8818L30.5326 31.8124C28.4146 33.7316 25.8443 35.1595 23.0035 35.9172L23.0276 36.0078ZM30.5956 31.8818L30.5095 31.9189L33.5101 38.8857L33.5962 38.8486L33.6823 38.8115L30.6817 31.8448L30.5956 31.8818ZM33.5962 38.8486L33.615 38.7568L29.0026 37.8121L28.9837 37.904L28.9649 37.9958L33.5773 38.9404L33.5962 38.8486ZM30.9169 23.4734L31.01 23.4623C30.974 23.1618 30.9405 22.8945 30.9104 22.6546L30.8174 22.6663L30.7244 22.678C30.7545 22.9178 30.7879 23.1847 30.8238 23.4845L30.9169 23.4734ZM30.8174 22.6663L30.9104 22.6546C30.7872 21.6728 30.7293 21.2017 30.7944 20.8324L30.7021 20.8162L30.6098 20.7999C30.5384 21.2042 30.6031 21.711 30.7244 22.678L30.8174 22.6663ZM30.7021 20.8162L30.7944 20.8325C30.8596 20.4633 31.0752 20.0402 31.5267 19.1598L31.4433 19.117L31.3599 19.0742C30.9151 19.9414 30.6811 20.3956 30.6098 20.7999L30.7021 20.8162ZM31.4433 19.117L31.5267 19.1598C31.637 18.9448 31.7599 18.705 31.8963 18.435L31.8127 18.3927L31.729 18.3504C31.5928 18.6199 31.4701 18.8592 31.3599 19.0743L31.4433 19.117ZM31.8127 18.3927L31.8963 18.435C32.626 16.9915 32.3237 15.277 31.1443 14.1701L31.0802 14.2385L31.016 14.3068C32.1347 15.3568 32.4211 16.9812 31.729 18.3504L31.8127 18.3927ZM31.0802 14.2385L31.1444 14.1701C30.9237 13.963 30.7262 13.7798 30.549 13.6154L30.4853 13.6841L30.4215 13.7528C30.5987 13.9173 30.7958 14.1001 31.016 14.3068L31.0802 14.2385ZM30.4853 13.6841L30.549 13.6154C29.8236 12.9424 29.4762 12.6188 29.2888 12.2941L29.2076 12.341L29.1264 12.3878C29.3316 12.7434 29.7071 13.0901 30.4215 13.7529L30.4853 13.6841ZM29.2076 12.341L29.2888 12.2941C29.1014 11.9695 28.9947 11.5068 28.7747 10.5422L28.6833 10.563L28.5919 10.5838C28.8086 11.5339 28.9212 12.0324 29.1264 12.3878L29.2076 12.341ZM28.6833 10.563L28.7747 10.5421C28.7209 10.3065 28.661 10.0439 28.5919 9.74923L28.5007 9.77063L28.4094 9.79202C28.4783 10.0861 28.5381 10.3481 28.5919 10.5839L28.6833 10.563ZM28.5007 9.77063L28.5919 9.74925C28.2231 8.17442 26.8893 7.05536 25.2744 6.96549L25.2692 7.05909L25.264 7.1527C26.7959 7.23795 28.0595 8.2982 28.4094 9.792L28.5007 9.77063ZM25.2692 7.05909L25.2744 6.96549C24.9723 6.9486 24.7032 6.93527 24.4619 6.92327L24.4572 7.01691L24.4526 7.11054C24.694 7.12254 24.9625 7.13584 25.264 7.1527L25.2692 7.05909ZM24.4572 7.01691L24.4619 6.92327C23.4736 6.87406 22.9994 6.8494 22.6471 6.72115L22.615 6.80925L22.583 6.89735C22.9688 7.03778 23.4792 7.06207 24.4526 7.11054L24.4572 7.01691ZM22.615 6.80925L22.6471 6.72116C22.2948 6.59282 21.9157 6.30704 21.127 5.70946L21.0704 5.78419L21.0138 5.85891C21.7906 6.44746 22.1972 6.75681 22.5829 6.89734L22.615 6.80925ZM21.0704 5.78419L21.127 5.70948C20.9344 5.5634 20.7197 5.40079 20.4775 5.21948L20.4213 5.29453L20.3651 5.36958C20.6068 5.55052 20.8211 5.71285 21.0138 5.85889L21.0704 5.78419ZM20.4213 5.29453L20.4775 5.21948C19.1826 4.2503 17.4417 4.2503 16.1467 5.21947L16.2029 5.29453L16.2591 5.36959C17.4875 4.45026 19.1368 4.45026 20.3651 5.36959L20.4213 5.29453ZM16.2029 5.29453L16.1467 5.21947C15.9044 5.40079 15.6897 5.56351 15.4971 5.70946L15.5537 5.78419L15.6103 5.85891C15.803 5.71293 16.0173 5.55053 16.2591 5.36959L16.2029 5.29453ZM15.5537 5.78419L15.4971 5.70946C14.7084 6.30695 14.3293 6.59282 13.977 6.72116L14.0091 6.80925L14.0412 6.89734C14.4269 6.75681 14.8335 6.44736 15.6103 5.85891L15.5537 5.78419ZM14.0091 6.80925L13.977 6.72115C13.6246 6.8494 13.1505 6.87396 12.1623 6.92327L12.167 7.01691L12.1716 7.11054C13.1448 7.06198 13.6553 7.03778 14.0411 6.89735L14.0091 6.80925ZM12.167 7.01691L12.1623 6.92327C11.9209 6.93527 11.6519 6.94869 11.3498 6.96549L11.355 7.05909L11.3602 7.1527C11.6617 7.13593 11.9302 7.12254 12.1716 7.11054L12.167 7.01691ZM11.355 7.05909L11.3498 6.96549C9.73485 7.05536 8.40118 8.17442 8.03225 9.74924L8.12353 9.77063L8.21481 9.79201C8.56476 8.2982 9.82834 7.23795 11.3602 7.1527L11.355 7.05909ZM8.12353 9.77063L8.03225 9.74925C7.96328 10.0438 7.90332 10.3065 7.8496 10.5421L7.941 10.5629L8.0324 10.5837C8.08612 10.3482 8.14597 10.086 8.21481 9.792L8.12353 9.77063ZM7.941 10.5629L7.8496 10.5421C7.6295 11.5067 7.52278 11.9694 7.33537 12.2941L7.41656 12.341L7.49776 12.3878C7.70297 12.0323 7.81563 11.5338 8.0324 10.5838L7.941 10.5629ZM7.41656 12.341L7.33537 12.2941C7.14796 12.6188 6.80059 12.9424 6.07527 13.6153L6.13903 13.684L6.20279 13.7528C6.9171 13.0901 7.29254 12.7434 7.49776 12.3878L7.41656 12.341ZM6.13903 13.684L6.07528 13.6153C5.898 13.7797 5.70047 13.963 5.47984 14.1701L5.544 14.2385L5.60817 14.3068C5.82834 14.1001 6.0255 13.9172 6.20279 13.7528L6.13903 13.684ZM5.544 14.2385L5.47984 14.1701C4.30051 15.277 3.99819 16.9915 4.72786 18.435L4.81153 18.3927L4.8952 18.3504C4.20306 16.9812 4.48949 15.3568 5.60816 14.3068L5.544 14.2385ZM4.81153 18.3927L4.72787 18.435C4.8644 18.705 4.98723 18.9447 5.09748 19.1598L5.18091 19.117L5.26433 19.0743C5.15409 18.8592 5.03147 18.6199 4.89519 18.3504L4.81153 18.3927ZM5.18091 19.117L5.09749 19.1598C5.54903 20.0402 5.7647 20.4633 5.82977 20.8324L5.92209 20.8162L6.01442 20.7999C5.94317 20.3956 5.70903 19.9413 5.26432 19.0742L5.18091 19.117ZM5.92209 20.8162L5.82977 20.8324C5.89492 21.2017 5.83685 21.6729 5.71376 22.6546L5.80678 22.6663L5.8998 22.678C6.02103 21.7111 6.08576 21.2042 6.01442 20.7999L5.92209 20.8162ZM5.80678 22.6663L5.71376 22.6546C5.68367 22.8945 5.65017 23.1618 5.61423 23.4623L5.70731 23.4734L5.8004 23.4845C5.83627 23.1847 5.86971 22.9179 5.8998 22.678L5.80678 22.6663ZM5.70731 23.4734L5.61422 23.4623C5.42226 25.0682 6.29273 26.5759 7.77959 27.2127L7.8165 27.1266L7.85341 27.0404C6.44302 26.4363 5.61831 25.0078 5.8004 23.4845L5.70731 23.4734ZM7.8165 27.1266L7.77958 27.2127C8.05774 27.3319 8.30605 27.4366 8.52879 27.5304L8.56519 27.444L8.60159 27.3576C8.37883 27.2638 8.13101 27.1593 7.85342 27.0404L7.8165 27.1266ZM8.56519 27.444L8.52878 27.5304C9.44056 27.9146 9.87767 28.1 10.1649 28.341L10.2251 28.2692L10.2854 28.1974C9.9709 27.9335 9.49956 27.736 8.60159 27.3576L8.56519 27.444ZM10.2251 28.2692L10.1649 28.341C10.4521 28.582 10.7105 28.9802 11.2473 29.8115L11.326 29.7607L11.4048 29.7098C10.8762 28.8911 10.5999 28.4613 10.2854 28.1974L10.2251 28.2692ZM11.326 29.7607L11.2473 29.8115C11.3783 30.0146 11.5245 30.2408 11.6902 30.4941L11.7686 30.4428L11.8471 30.3915C11.6818 30.1387 11.5358 29.9129 11.4048 29.7098L11.326 29.7607ZM11.7686 30.4428L11.6902 30.4941C12.3739 31.5395 13.5056 32.1331 14.6994 32.133L14.6994 32.0393L14.6994 31.9455C13.5685 31.9456 12.4959 31.3836 11.8471 30.3915L11.7686 30.4428ZM14.6994 32.0393V32.133C15.0509 32.133 15.4078 32.0815 15.7597 31.9751L15.7326 31.8854L15.7054 31.7957C15.3711 31.8967 15.0325 31.9455 14.6994 31.9455V32.0393ZM15.7326 31.8854L15.7597 31.9751C16.0493 31.8876 16.3067 31.8082 16.5376 31.737L16.5099 31.6474L16.4823 31.5578C16.2514 31.629 15.9945 31.7083 15.7054 31.7957L15.7326 31.8854ZM16.5099 31.6474L16.5376 31.737C17.4831 31.4452 17.9371 31.3062 18.312 31.3062V31.2125V31.1187C17.9015 31.1187 17.4135 31.2704 16.4823 31.5578L16.5099 31.6474ZM18.312 31.2125V31.3062C18.6869 31.3062 19.1409 31.4452 20.0865 31.737L20.1142 31.6474L20.1418 31.5578C19.2105 31.2704 18.7225 31.1187 18.312 31.1187V31.2125ZM20.1142 31.6474L20.0865 31.737C20.3174 31.8082 20.5749 31.8876 20.8644 31.9751L20.8915 31.8854L20.9187 31.7957C20.6297 31.7083 20.3727 31.629 20.1418 31.5578L20.1142 31.6474ZM20.8915 31.8854L20.8644 31.9751C22.4126 32.4431 24.0487 31.8477 24.9339 30.494L24.8555 30.4427L24.777 30.3914C23.9373 31.6754 22.3872 32.2395 20.9187 31.7957L20.8915 31.8854ZM24.8555 30.4427L24.9339 30.494C25.0996 30.2407 25.2457 30.0145 25.3768 29.8114L25.2981 29.7606L25.2193 29.7097C25.0881 29.9128 24.9423 30.1386 24.777 30.3914L24.8555 30.4427ZM25.2981 29.7606L25.3768 29.8114C25.9136 28.9801 26.172 28.5818 26.4592 28.3409L26.399 28.2691L26.3387 28.1973C26.0242 28.4611 25.7479 28.891 25.2193 29.7097L25.2981 29.7606ZM26.399 28.2691L26.4592 28.3409C26.7464 28.1 27.1835 27.9146 28.0953 27.5303L28.0589 27.4439L28.0225 27.3575C27.1245 27.736 26.6532 27.9335 26.3387 28.1973L26.399 28.2691ZM28.0589 27.4439L28.0953 27.5303C28.318 27.4365 28.5663 27.3318 28.8445 27.2126L28.8076 27.1265L28.7707 27.0403C28.4931 27.1592 28.2453 27.2637 28.0225 27.3575L28.0589 27.4439ZM28.8076 27.1265L28.8445 27.2127C30.3315 26.5759 31.2019 25.0682 31.01 23.4623L30.9169 23.4734L30.8238 23.4845C31.0059 25.0078 30.1812 26.4363 28.7707 27.0403L28.8076 27.1265ZM30.1086 18.4325L30.0251 18.3897C29.5111 19.3923 29.2382 19.9498 29.1342 20.5396C29.0301 21.1295 29.0959 21.7467 29.2361 22.8645L29.3291 22.8529L29.4221 22.8412C29.281 21.7158 29.2207 21.1287 29.3188 20.5722C29.4169 20.0156 29.6744 19.4846 30.192 18.4752L30.1086 18.4325ZM29.3291 22.8529L29.2361 22.8645C29.2658 23.1018 29.299 23.3658 29.3344 23.6625L29.4275 23.6513L29.5206 23.6402C29.4851 23.3429 29.4519 23.0784 29.4221 22.8412L29.3291 22.8529ZM29.4275 23.6513L29.3344 23.6625C29.4385 24.5331 28.9862 25.3163 28.1802 25.6615L28.2172 25.7477L28.2541 25.8339C29.1365 25.4559 29.6345 24.5934 29.5206 23.6402L29.4275 23.6513ZM28.2172 25.7477L28.1803 25.6615C27.9056 25.7791 27.6605 25.8823 27.44 25.9753L27.4764 26.0617L27.5129 26.148C27.7332 26.0552 27.9788 25.9517 28.2541 25.8339L28.2172 25.7477ZM27.4764 26.0617L27.44 25.9753C26.4018 26.4128 25.8344 26.6644 25.3756 27.0494C24.9168 27.4344 24.5705 27.9495 23.9593 28.896L24.0381 28.9468L24.1168 28.9977C24.7321 28.0448 25.0632 27.5563 25.4962 27.1931C25.9291 26.8298 26.4676 26.5885 27.5128 26.148L27.4764 26.0617ZM24.0381 28.9468L23.9593 28.896C23.8296 29.0969 23.6853 29.3203 23.5218 29.5703L23.6003 29.6216L23.6787 29.6729C23.8426 29.4225 23.9872 29.1986 24.1168 28.9976L24.0381 28.9468ZM23.6003 29.6216L23.5218 29.5703C23.042 30.3041 22.1921 30.6134 21.3527 30.3597L21.3256 30.4494L21.2985 30.5392C22.2175 30.817 23.1533 30.4763 23.6787 29.6729L23.6003 29.6216ZM21.3256 30.4494L21.3527 30.3597C21.0668 30.2733 20.8126 30.1949 20.5841 30.1244L20.5565 30.2139L20.5288 30.3035C20.7573 30.374 21.012 30.4526 21.2985 30.5392L21.3256 30.4494ZM20.5565 30.2139L20.5841 30.1244C19.5076 29.7921 18.9111 29.6202 18.3122 29.6202C17.7132 29.6201 17.1168 29.7921 16.0402 30.1244L16.0678 30.2139L16.0955 30.3035C17.1793 29.969 17.747 29.8076 18.3122 29.8077C18.8773 29.8077 19.445 29.9691 20.5288 30.3035L20.5565 30.2139ZM16.0678 30.2139L16.0402 30.1244C15.8117 30.1949 15.5575 30.2733 15.2716 30.3597L15.2987 30.4494L15.3258 30.5392C15.6123 30.4526 15.867 30.374 16.0955 30.3035L16.0678 30.2139ZM15.2987 30.4494L15.2715 30.3597C14.4321 30.6136 13.5824 30.3041 13.1025 29.5703L13.024 29.6216L12.9456 29.6729C13.471 30.4763 14.4067 30.8172 15.3258 30.5392L15.2987 30.4494ZM13.024 29.6216L13.1025 29.5703C12.939 29.3203 12.7946 29.0968 12.665 28.896L12.5862 28.9468L12.5075 28.9977C12.6371 29.1985 12.7817 29.4225 12.9456 29.6729L13.024 29.6216ZM12.5862 28.9468L12.665 28.896C12.0538 27.9495 11.7075 27.4344 11.2487 27.0494C10.7898 26.6644 10.2225 26.4128 9.18425 25.9753L9.14784 26.0617L9.11144 26.148C10.1566 26.5885 10.6952 26.8298 11.1281 27.193C11.561 27.5563 11.8922 28.0448 12.5075 28.9977L12.5862 28.9468ZM9.14784 26.0617L9.18423 25.9753C8.96383 25.8824 8.71872 25.7791 8.44403 25.6615L8.40712 25.7477L8.37022 25.8339C8.64547 25.9517 8.89104 26.0552 9.11146 26.1481L9.14784 26.0617ZM8.40712 25.7477L8.44404 25.6615C7.63805 25.3163 7.18581 24.533 7.2899 23.6625L7.19681 23.6513L7.10373 23.6402C6.98975 24.5933 7.48776 25.4559 8.37021 25.8339L8.40712 25.7477ZM7.19681 23.6513L7.2899 23.6625C7.3253 23.3658 7.35845 23.1019 7.38827 22.8646L7.29525 22.8529L7.20223 22.8412C7.17242 23.0785 7.1392 23.3429 7.10372 23.6402L7.19681 23.6513ZM7.29525 22.8529L7.38827 22.8645C7.52847 21.7466 7.59423 21.1294 7.49022 20.5396C7.38621 19.9497 7.11331 19.3923 6.59923 18.3897L6.51581 18.4325L6.43239 18.4752C6.94994 19.4846 7.20743 20.0156 7.30557 20.5722C7.40371 21.1287 7.34337 21.7158 7.20223 22.8412L7.29525 22.8529ZM6.51581 18.4325L6.59923 18.3897C6.49011 18.1769 6.36882 17.9402 6.23405 17.6736L6.15038 17.7158L6.06671 17.7581C6.20175 18.0253 6.32326 18.2624 6.43239 18.4752L6.51581 18.4325ZM6.15038 17.7158L6.23404 17.6735C5.83853 16.8911 5.9955 16.0004 6.63481 15.4004L6.57066 15.3321L6.5065 15.2637C5.80651 15.9207 5.63366 16.9015 6.06671 17.7581L6.15038 17.7158ZM6.57066 15.3321L6.63481 15.4004C6.85275 15.1959 7.04774 15.015 7.22308 14.8524L7.15931 14.7836L7.09555 14.7149C6.92026 14.8775 6.72488 15.0587 6.5065 15.2637L6.57066 15.3321ZM7.15931 14.7836L7.22307 14.8524C8.04899 14.0861 8.49608 13.6556 8.79555 13.1369C9.09501 12.6182 9.24431 12.0157 9.4949 10.9172L9.4035 10.8964L9.3121 10.8755C9.05982 11.9814 8.91572 12.5537 8.63316 13.0432C8.35061 13.5326 7.92704 13.9435 7.09555 14.7149L7.15931 14.7836ZM9.4035 10.8964L9.4949 10.9172C9.54806 10.6842 9.60726 10.4248 9.67535 10.1339L9.58406 10.1125L9.49278 10.0912C9.42456 10.3826 9.36525 10.6425 9.3121 10.8755L9.4035 10.8964ZM9.58406 10.1125L9.67534 10.1339C9.87529 9.28023 10.5681 8.69886 11.4436 8.65017L11.4383 8.55656L11.4331 8.46296C10.4746 8.51627 9.71171 9.15646 9.49278 10.0912L9.58406 10.1125ZM11.4383 8.55656L11.4435 8.65017C11.7418 8.63359 12.0075 8.62039 12.2463 8.60848L12.2416 8.51484L12.2369 8.42121C11.9982 8.43312 11.732 8.44635 11.4331 8.46296L11.4383 8.55656ZM12.2416 8.51484L12.2463 8.60848C13.3715 8.55246 13.9908 8.51005 14.5537 8.30519C15.1165 8.10033 15.6182 7.73476 16.5162 7.05441L16.4596 6.97969L16.403 6.90496C15.4989 7.58989 15.0206 7.9357 14.4895 8.129C13.9585 8.32229 13.3698 8.36482 12.2369 8.42121L12.2416 8.51484ZM16.4596 6.97969L16.5162 7.05442C16.7068 6.91003 16.9189 6.7494 17.1581 6.57033L17.1019 6.49528L17.0457 6.42023C16.806 6.59966 16.5936 6.76059 16.403 6.90496L16.4596 6.97969ZM17.1019 6.49528L17.1581 6.57033C17.5099 6.307 17.9116 6.17634 18.3122 6.17634V6.08259V5.98884C17.8701 5.98884 17.4291 6.13325 17.0457 6.42023L17.1019 6.49528ZM18.3122 6.08259V6.17634C18.7127 6.17634 19.1144 6.30708 19.4663 6.57035L19.5225 6.49528L19.5787 6.42021C19.1952 6.13335 18.7543 5.98884 18.3122 5.98884V6.08259ZM19.5225 6.49528L19.4663 6.57034C19.7055 6.7493 19.9174 6.91001 20.1081 7.05442L20.1647 6.97969L20.2213 6.90496C20.0308 6.76062 19.8184 6.59957 19.5787 6.42022L19.5225 6.49528ZM20.1647 6.97969L20.1081 7.05441C21.0061 7.73476 21.5078 8.10033 22.0706 8.30519C22.6335 8.51005 23.2527 8.55246 24.378 8.60848L24.3827 8.51484L24.3874 8.42121C23.2545 8.36482 22.6658 8.32229 22.1348 8.129C21.6037 7.9357 21.1254 7.58989 20.2213 6.90496L20.1647 6.97969ZM24.3827 8.51484L24.378 8.60848C24.6168 8.62038 24.8825 8.63368 25.1808 8.65017L25.1859 8.55656L25.1911 8.46296C24.8923 8.44644 24.6261 8.43312 24.3874 8.42121L24.3827 8.51484ZM25.1859 8.55656L25.1807 8.65017C26.0562 8.69886 26.749 9.28023 26.9489 10.1339L27.0402 10.1125L27.1315 10.0912C26.9126 9.15646 26.1497 8.51627 25.1911 8.46296L25.1859 8.55656ZM27.0402 10.1125L26.9489 10.1339C27.0171 10.4248 27.0762 10.6842 27.1295 10.9173L27.2209 10.8965L27.3123 10.8756C27.259 10.6426 27.1998 10.3826 27.1315 10.0911L27.0402 10.1125ZM27.2209 10.8965L27.1295 10.9173C27.3801 12.0157 27.5294 12.6182 27.8288 13.1369C28.1283 13.6556 28.5754 14.0861 29.4014 14.8524L29.4652 14.7836L29.5289 14.7149C28.6974 13.9435 28.2738 13.5326 27.9912 13.0432C27.7087 12.5538 27.5646 11.9814 27.3123 10.8756L27.2209 10.8965ZM29.4652 14.7836L29.4014 14.8524C29.5767 15.015 29.7717 15.196 29.9896 15.4004L30.0537 15.3321L30.1179 15.2637C29.8996 15.0588 29.7042 14.8776 29.5289 14.7149L29.4652 14.7836ZM30.0537 15.3321L29.9896 15.4004C30.6289 16.0004 30.7859 16.8911 30.3903 17.6735L30.474 17.7158L30.5577 17.7581C30.9907 16.9015 30.8179 15.9207 30.1179 15.2637L30.0537 15.3321ZM30.474 17.7158L30.3903 17.6736C30.2557 17.9402 30.1343 18.177 30.0252 18.3897L30.1086 18.4325L30.192 18.4753C30.3011 18.2625 30.4227 18.0253 30.5577 17.7581L30.474 17.7158ZM24.7465 15.8115L24.7511 15.7179L20.7403 15.5223L20.7357 15.6159L20.7312 15.7096L24.742 15.9051L24.7465 15.8115ZM20.7357 15.6159L20.8234 15.5827L19.3981 11.8286L19.3104 11.8619L19.2228 11.8952L20.6481 15.6492L20.7357 15.6159ZM19.3104 11.8619L19.3981 11.8286C19.2257 11.3744 18.7988 11.0806 18.3122 11.0806V11.1743V11.2681C18.7212 11.2681 19.0781 11.514 19.2228 11.8952L19.3104 11.8619ZM18.3122 11.1743V11.0806C17.8254 11.0806 17.3986 11.3744 17.2263 11.8287L17.3139 11.8619L17.4016 11.8952C17.5462 11.5141 17.9031 11.2681 18.3122 11.2681V11.1743ZM17.3139 11.8619L17.2263 11.8286L15.801 15.5827L15.8887 15.6159L15.9763 15.6492L17.4016 11.8952L17.3139 11.8619ZM15.8887 15.6159L15.8841 15.5223L11.8734 15.7179L11.8779 15.8115L11.8825 15.9051L15.8932 15.7096L15.8887 15.6159ZM11.8779 15.8115L11.8734 15.7179C11.3875 15.7414 10.9755 16.0562 10.8251 16.5189L10.9143 16.5479L11.0034 16.5769C11.1298 16.1882 11.4744 15.9249 11.8825 15.9051L11.8779 15.8115ZM10.9143 16.5479L10.8251 16.5189C10.6747 16.9817 10.8229 17.4785 11.202 17.7834L11.2608 17.7103L11.3195 17.6373C11.001 17.3811 10.8771 16.9656 11.0034 16.5769L10.9143 16.5479ZM11.2608 17.7103L11.2021 17.7834L14.3319 20.299L14.3906 20.2259L14.4494 20.1528L11.3195 17.6372L11.2608 17.7103ZM14.3906 20.2259L14.3002 20.2013L13.2467 24.0762L13.3372 24.1008L13.4276 24.1254L14.4811 20.2505L14.3906 20.2259ZM13.3372 24.1008L13.2467 24.0762C13.1191 24.5456 13.2913 25.0346 13.6849 25.3206L13.74 25.2447L13.7951 25.1689C13.4645 24.9287 13.3205 24.5196 13.4276 24.1254L13.3372 24.1008ZM13.74 25.2447L13.6849 25.3206C13.8894 25.4691 14.1278 25.5442 14.3672 25.5442V25.4504V25.3567C14.1673 25.3567 13.9675 25.2941 13.7951 25.1689L13.74 25.2447ZM14.3672 25.4504V25.5442C14.588 25.5442 14.8089 25.4803 15.0037 25.3527L14.9524 25.2743L14.901 25.1958C14.7368 25.3034 14.5516 25.3567 14.3672 25.3567V25.4504ZM14.9524 25.2743L15.0037 25.3527L18.3635 23.1536L18.3122 23.0752L18.2608 22.9967L14.901 25.1958L14.9524 25.2743ZM18.3122 23.0752L18.2608 23.1536L21.6206 25.3529L21.6719 25.2744L21.7233 25.196L18.3635 22.9967L18.3122 23.0752ZM21.6719 25.2744L21.6206 25.3529C22.0277 25.6194 22.5459 25.6065 22.9395 25.3208L22.8845 25.2449L22.8294 25.169C22.4987 25.4091 22.0652 25.4198 21.7233 25.196L21.6719 25.2744ZM22.8845 25.2449L22.9396 25.3207C23.3331 25.0347 23.5053 24.5457 23.3776 24.0764L23.2871 24.101L23.1967 24.1256C23.3039 24.5197 23.1599 24.9288 22.8293 25.1691L22.8845 25.2449ZM23.2871 24.101L23.3776 24.0764L22.3242 20.2015L22.2337 20.2261L22.1433 20.2507L23.1967 24.1256L23.2871 24.101ZM22.2337 20.2261L22.2925 20.2992L25.4224 17.7836L25.3637 17.7105L25.305 17.6374L22.175 20.153L22.2337 20.2261ZM25.3637 17.7105L25.4224 17.7836C25.8016 17.4787 25.9497 16.9819 25.7993 16.5191L25.7101 16.5481L25.6209 16.5771C25.7473 16.9658 25.6234 17.3813 25.3049 17.6374L25.3637 17.7105ZM25.7101 16.5481L25.7993 16.5191C25.6488 16.0564 25.2369 15.7415 24.7511 15.7179L24.7465 15.8115L24.742 15.9051C25.15 15.925 25.4946 16.1884 25.6209 16.5771L25.7101 16.5481ZM17.9081 12.3944L17.8211 12.4292L17.8215 12.4302L17.9085 12.3953L17.9955 12.3605L17.9952 12.3596L17.9081 12.3944ZM17.9085 12.3953L17.9995 12.3726C17.9972 12.3637 17.9942 12.3571 17.9934 12.3555C17.9933 12.3552 17.9931 12.3548 17.9932 12.355C17.9932 12.3551 17.9934 12.3556 17.9937 12.3562C17.9943 12.3574 17.9957 12.3606 17.9971 12.3648L17.9081 12.3944L17.8192 12.4241C17.8206 12.4284 17.8221 12.4316 17.8227 12.433C17.823 12.4337 17.8233 12.4343 17.8233 12.4344C17.8235 12.4348 17.8233 12.4344 17.8232 12.4341C17.8226 12.4329 17.8197 12.4266 17.8175 12.4181L17.9085 12.3953ZM17.9081 12.3944H18.0019C18.0019 12.3944 18.0019 12.3944 18.0019 12.3944V12.3944V12.3944C18.0019 12.3944 18.0019 12.3944 18.0019 12.3944C18.0019 12.3944 18.0019 12.3944 18.0019 12.3944C18.0019 12.3944 18.0019 12.3944 18.0019 12.3944V12.3944V12.3944C18.0019 12.3944 18.0019 12.3944 18.0019 12.3944C18.0019 12.3944 18.0019 12.3944 18.0019 12.3944C18.0019 12.3944 18.0019 12.3944 18.0019 12.3944C18.0019 12.3944 18.0019 12.3944 18.0019 12.3944C18.0019 12.3944 18.0019 12.3944 18.0019 12.3944V12.3944V12.3944V12.3944V12.3944V12.3944V12.3944V12.3944V12.3944V12.3944V12.3944C18.0019 12.3944 18.0019 12.3944 18.0019 12.3944C18.0019 12.3944 18.0019 12.3944 18.0019 12.3944C18.0019 12.3944 18.0019 12.3944 18.0019 12.3944C18.0019 12.3944 18.0019 12.3944 18.0019 12.3944C18.0019 12.3944 18.0019 12.3944 18.0019 12.3944V12.3944C18.0019 12.3944 18.0019 12.3944 18.0019 12.3944C18.0019 12.3944 18.0019 12.3944 18.0019 12.3944C18.0019 12.3944 18.0019 12.3944 18.0019 12.3944V12.3944C18.0019 12.3944 18.0019 12.3944 18.0019 12.3944C18.0019 12.3944 18.0019 12.3944 18.0019 12.3944V12.3944C18.0019 12.3944 18.0019 12.3944 18.0019 12.3944V12.3944C18.0019 12.3944 18.0019 12.3944 18.0019 12.3944V12.3944C18.0019 12.3944 18.0019 12.3944 18.0019 12.3944C18.0019 12.3944 18.0019 12.3944 18.0019 12.3944V12.3944C18.0019 12.3944 18.0019 12.3944 18.0019 12.3944C18.0019 12.3944 18.0019 12.3944 18.0019 12.3944V12.3944V12.3944C18.0019 12.3944 18.0019 12.3944 18.0019 12.3944C18.0019 12.3944 18.0019 12.3944 18.0019 12.3944C18.0019 12.3944 18.0019 12.3944 18.0019 12.3944C18.0019 12.3944 18.0019 12.3944 18.0019 12.3944V12.3944V12.3944C18.0019 12.3944 18.0019 12.3944 18.0019 12.3944C18.0019 12.3944 18.0019 12.3944 18.0019 12.3944C18.0019 12.3944 18.0019 12.3944 18.0019 12.3944C18.0019 12.3944 18.0019 12.3944 18.0019 12.3944C18.0019 12.3944 18.0019 12.3944 18.0019 12.3944V12.3944V12.3943V12.3943C18.0019 12.3943 18.0019 12.3943 18.0019 12.3943C18.0019 12.3943 18.0019 12.3943 18.0019 12.3943V12.3943V12.3943V12.3943C18.0019 12.3943 18.0019 12.3943 18.0019 12.3943V12.3943C18.0019 12.3943 18.0019 12.3943 18.0019 12.3943C18.0019 12.3943 18.0019 12.3943 18.0019 12.3943V12.3943V12.3943C18.0019 12.3943 18.0019 12.3943 18.0019 12.3943C18.0019 12.3943 18.0019 12.3943 18.0019 12.3943C18.0019 12.3943 18.0019 12.3943 17.9081 12.3943C17.8144 12.3943 17.8144 12.3943 17.8144 12.3943C17.8144 12.3943 17.8144 12.3943 17.8144 12.3943C17.8144 12.3943 17.8144 12.3943 17.8144 12.3943V12.3943V12.3943C17.8144 12.3943 17.8144 12.3943 17.8144 12.3943C17.8144 12.3943 17.8144 12.3943 17.8144 12.3943V12.3943C17.8144 12.3943 17.8144 12.3943 17.8144 12.3943V12.3943V12.3943V12.3943C17.8144 12.3943 17.8144 12.3943 17.8144 12.3943C17.8144 12.3943 17.8144 12.3943 17.8144 12.3943V12.3943V12.3944V12.3944C17.8144 12.3944 17.8144 12.3944 17.8144 12.3944C17.8144 12.3944 17.8144 12.3944 17.8144 12.3944C17.8144 12.3944 17.8144 12.3944 17.8144 12.3944C17.8144 12.3944 17.8144 12.3944 17.8144 12.3944C17.8144 12.3944 17.8144 12.3944 17.8144 12.3944V12.3944V12.3944C17.8144 12.3944 17.8144 12.3944 17.8144 12.3944C17.8144 12.3944 17.8144 12.3944 17.8144 12.3944C17.8144 12.3944 17.8144 12.3944 17.8144 12.3944C17.8144 12.3944 17.8144 12.3944 17.8144 12.3944V12.3944V12.3944C17.8144 12.3944 17.8144 12.3944 17.8144 12.3944C17.8144 12.3944 17.8144 12.3944 17.8144 12.3944V12.3944C17.8144 12.3944 17.8144 12.3944 17.8144 12.3944C17.8144 12.3944 17.8144 12.3944 17.8144 12.3944V12.3944C17.8144 12.3944 17.8144 12.3944 17.8144 12.3944V12.3944C17.8144 12.3944 17.8144 12.3944 17.8144 12.3944V12.3944C17.8144 12.3944 17.8144 12.3944 17.8144 12.3944C17.8144 12.3944 17.8144 12.3944 17.8144 12.3944V12.3944C17.8144 12.3944 17.8144 12.3944 17.8144 12.3944C17.8144 12.3944 17.8144 12.3944 17.8144 12.3944C17.8144 12.3944 17.8144 12.3944 17.8144 12.3944V12.3944C17.8144 12.3944 17.8144 12.3944 17.8144 12.3944C17.8144 12.3944 17.8144 12.3944 17.8144 12.3944C17.8144 12.3944 17.8144 12.3944 17.8144 12.3944C17.8144 12.3944 17.8144 12.3944 17.8144 12.3944C17.8144 12.3944 17.8144 12.3944 17.8144 12.3944V12.3944V12.3944V12.3944V12.3944V12.3944V12.3944V12.3944V12.3944V12.3944V12.3944C17.8144 12.3944 17.8144 12.3944 17.8144 12.3944C17.8144 12.3944 17.8144 12.3944 17.8144 12.3944C17.8144 12.3944 17.8144 12.3944 17.8144 12.3944C17.8144 12.3944 17.8144 12.3944 17.8144 12.3944C17.8144 12.3944 17.8144 12.3944 17.8144 12.3944V12.3944V12.3944C17.8144 12.3944 17.8144 12.3944 17.8144 12.3944C17.8144 12.3944 17.8144 12.3944 17.8144 12.3944C17.8144 12.3944 17.8144 12.3944 17.8144 12.3944V12.3944V12.3944C17.8144 12.3944 17.8144 12.3944 17.8144 12.3944H17.9081H18.0019C18.0019 12.3944 18.0019 12.3944 18.0019 12.3944V12.3944V12.3944C18.0019 12.3944 18.0019 12.3944 18.0019 12.3944C18.0019 12.3944 18.0019 12.3944 18.0019 12.3944C18.0019 12.3944 18.0019 12.3944 18.0019 12.3944V12.3944V12.3944C18.0019 12.3944 18.0019 12.3944 18.0019 12.3944C18.0019 12.3944 18.0019 12.3944 18.0019 12.3944C18.0019 12.3944 18.0019 12.3944 18.0019 12.3944C18.0019 12.3944 18.0019 12.3944 18.0019 12.3944C18.0019 12.3944 18.0019 12.3944 18.0019 12.3944V12.3944V12.3944V12.3944V12.3944V12.3944V12.3944V12.3944V12.3944V12.3944V12.3944C18.0019 12.3944 18.0019 12.3944 18.0019 12.3944C18.0019 12.3944 18.0019 12.3944 18.0019 12.3944C18.0019 12.3944 18.0019 12.3944 18.0019 12.3944C18.0019 12.3944 18.0019 12.3944 18.0019 12.3944C18.0019 12.3944 18.0019 12.3944 18.0019 12.3944V12.3944C18.0019 12.3944 18.0019 12.3944 18.0019 12.3944C18.0019 12.3944 18.0019 12.3944 18.0019 12.3944C18.0019 12.3944 18.0019 12.3944 18.0019 12.3944V12.3944C18.0019 12.3944 18.0019 12.3944 18.0019 12.3944C18.0019 12.3944 18.0019 12.3944 18.0019 12.3944V12.3944C18.0019 12.3944 18.0019 12.3944 18.0019 12.3944V12.3944C18.0019 12.3944 18.0019 12.3944 18.0019 12.3944V12.3944C18.0019 12.3944 18.0019 12.3944 18.0019 12.3944C18.0019 12.3944 18.0019 12.3944 18.0019 12.3944V12.3944C18.0019 12.3944 18.0019 12.3944 18.0019 12.3944C18.0019 12.3944 18.0019 12.3944 18.0019 12.3944V12.3944V12.3944C18.0019 12.3944 18.0019 12.3944 18.0019 12.3944C18.0019 12.3944 18.0019 12.3944 18.0019 12.3944C18.0019 12.3944 18.0019 12.3944 18.0019 12.3944C18.0019 12.3944 18.0019 12.3944 18.0019 12.3944V12.3944V12.3944C18.0019 12.3944 18.0019 12.3944 18.0019 12.3944C18.0019 12.3944 18.0019 12.3944 18.0019 12.3944C18.0019 12.3944 18.0019 12.3944 18.0019 12.3944C18.0019 12.3944 18.0019 12.3944 18.0019 12.3944C18.0019 12.3944 18.0019 12.3944 18.0019 12.3944V12.3944V12.3943V12.3943C18.0019 12.3943 18.0019 12.3943 18.0019 12.3943C18.0019 12.3943 18.0019 12.3943 18.0019 12.3943V12.3943V12.3943V12.3943C18.0019 12.3943 18.0019 12.3943 18.0019 12.3943V12.3943C18.0019 12.3943 18.0019 12.3943 18.0019 12.3943C18.0019 12.3943 18.0019 12.3943 18.0019 12.3943V12.3943V12.3943C18.0019 12.3943 18.0019 12.3943 18.0019 12.3943C18.0019 12.3943 18.0019 12.3943 18.0019 12.3943C18.0019 12.3943 18.0019 12.3943 17.9081 12.3943C17.8144 12.3943 17.8144 12.3943 17.8144 12.3943C17.8144 12.3943 17.8144 12.3943 17.8144 12.3943C17.8144 12.3943 17.8144 12.3943 17.8144 12.3943V12.3943V12.3943C17.8144 12.3943 17.8144 12.3943 17.8144 12.3943C17.8144 12.3943 17.8144 12.3943 17.8144 12.3943V12.3943C17.8144 12.3943 17.8144 12.3943 17.8144 12.3943V12.3943V12.3943V12.3943C17.8144 12.3943 17.8144 12.3943 17.8144 12.3943C17.8144 12.3943 17.8144 12.3943 17.8144 12.3943V12.3943V12.3944V12.3944C17.8144 12.3944 17.8144 12.3944 17.8144 12.3944C17.8144 12.3944 17.8144 12.3944 17.8144 12.3944C17.8144 12.3944 17.8144 12.3944 17.8144 12.3944C17.8144 12.3944 17.8144 12.3944 17.8144 12.3944C17.8144 12.3944 17.8144 12.3944 17.8144 12.3944V12.3944V12.3944C17.8144 12.3944 17.8144 12.3944 17.8144 12.3944C17.8144 12.3944 17.8144 12.3944 17.8144 12.3944C17.8144 12.3944 17.8144 12.3944 17.8144 12.3944C17.8144 12.3944 17.8144 12.3944 17.8144 12.3944V12.3944V12.3944C17.8144 12.3944 17.8144 12.3944 17.8144 12.3944C17.8144 12.3944 17.8144 12.3944 17.8144 12.3944V12.3944C17.8144 12.3944 17.8144 12.3944 17.8144 12.3944C17.8144 12.3944 17.8144 12.3944 17.8144 12.3944V12.3944C17.8144 12.3944 17.8144 12.3944 17.8144 12.3944V12.3944C17.8144 12.3944 17.8144 12.3944 17.8144 12.3944V12.3944C17.8144 12.3944 17.8144 12.3944 17.8144 12.3944C17.8144 12.3944 17.8144 12.3944 17.8144 12.3944V12.3944C17.8144 12.3944 17.8144 12.3944 17.8144 12.3944C17.8144 12.3944 17.8144 12.3944 17.8144 12.3944C17.8144 12.3944 17.8144 12.3944 17.8144 12.3944V12.3944C17.8144 12.3944 17.8144 12.3944 17.8144 12.3944C17.8144 12.3944 17.8144 12.3944 17.8144 12.3944C17.8144 12.3944 17.8144 12.3944 17.8144 12.3944C17.8144 12.3944 17.8144 12.3944 17.8144 12.3944C17.8144 12.3944 17.8144 12.3944 17.8144 12.3944V12.3944V12.3944V12.3944V12.3944V12.3944V12.3944V12.3944V12.3944V12.3944V12.3944C17.8144 12.3944 17.8144 12.3944 17.8144 12.3944C17.8144 12.3944 17.8144 12.3944 17.8144 12.3944C17.8144 12.3944 17.8144 12.3944 17.8144 12.3944C17.8144 12.3944 17.8144 12.3944 17.8144 12.3944C17.8144 12.3944 17.8144 12.3944 17.8144 12.3944V12.3944V12.3944C17.8144 12.3944 17.8144 12.3944 17.8144 12.3944C17.8144 12.3944 17.8144 12.3944 17.8144 12.3944C17.8144 12.3944 17.8144 12.3944 17.8144 12.3944V12.3944V12.3944C17.8144 12.3944 17.8144 12.3944 17.8144 12.3944H17.9081ZM21.0735 19.2341L21.0148 19.161C20.6546 19.4505 20.5003 19.9255 20.6215 20.3711L20.712 20.3465L20.8025 20.3219C20.7008 19.9482 20.8302 19.5499 21.1322 19.3072L21.0735 19.2341ZM20.712 20.3465L20.6215 20.3711L21.4506 23.4206L21.541 23.396L21.6315 23.3714L20.8025 20.3219L20.712 20.3465ZM21.541 23.396L21.5924 23.3175L18.9483 21.5868L18.897 21.6652L18.8457 21.7437L21.4897 23.4744L21.541 23.396ZM18.897 21.6652L18.9484 21.5868C18.5618 21.3337 18.0623 21.3338 17.6759 21.5867L17.7273 21.6652L17.7786 21.7436C18.1027 21.5315 18.5215 21.5314 18.8456 21.7437L18.897 21.6652ZM17.7273 21.6652L17.6759 21.5867L15.0318 23.3175L15.0832 23.396L15.1345 23.4744L17.7786 21.7436L17.7273 21.6652ZM15.0832 23.396L15.1736 23.4206L16.0028 20.3707L15.9124 20.3461L15.8219 20.3215L14.9927 23.3714L15.0832 23.396ZM15.9124 20.3461L16.0029 20.3706C16.1238 19.925 15.9693 19.4502 15.6095 19.161L15.5508 19.2341L15.4921 19.3072C15.7938 19.5496 15.9233 19.9478 15.8219 20.3215L15.9124 20.3461ZM15.5508 19.2341L15.6095 19.1611L13.1463 17.1812L13.0876 17.2543L13.0289 17.3274L15.492 19.3072L15.5508 19.2341ZM13.0876 17.2543L13.0922 17.348L16.2483 17.194L16.2438 17.1004L16.2392 17.0067L13.083 17.1607L13.0876 17.2543ZM16.2438 17.1004L16.2483 17.194C16.7098 17.1718 17.114 16.8783 17.2781 16.4462L17.1905 16.4129L17.1028 16.3796C16.9652 16.742 16.6262 16.9881 16.2393 17.0067L16.2438 17.1004ZM17.1905 16.4129L17.2781 16.4462L18.3998 13.4918L18.3122 13.4586L18.2245 13.4253L17.1028 16.3796L17.1905 16.4129ZM18.3122 13.4586L18.2245 13.4918L19.3463 16.4464L19.4339 16.4131L19.5216 16.3798L18.3998 13.4253L18.3122 13.4586ZM19.4339 16.4131L19.3463 16.4464C19.5103 16.8783 19.9146 17.1719 20.3757 17.1941L20.3802 17.1005L20.3847 17.0068C19.9982 16.9882 19.6592 16.7421 19.5215 16.3798L19.4339 16.4131ZM20.3802 17.1005L20.3757 17.1941L23.5321 17.348L23.5367 17.2544L23.5413 17.1608L20.3848 17.0068L20.3802 17.1005ZM23.5367 17.2544L23.478 17.1813L21.0148 19.1611L21.0735 19.2341L21.1322 19.3072L23.5954 17.3275L23.5367 17.2544Z" fill="#01292B" mask="url(#path-1-inside-1_239_997)"/>
</svg>
