<svg width="45" height="39" viewBox="0 0 45 39" fill="none" xmlns="http://www.w3.org/2000/svg">
<mask id="path-1-inside-1_239_994" fill="white">
<path fill-rule="evenodd" clip-rule="evenodd" d="M7.56493 13.8168L7.56502 13.8536C7.57455 18.4503 10.0344 22.6779 13.9915 24.9625C16.9113 26.6483 20.461 27.1432 23.7397 26.245C25.2894 25.8298 26.6966 25.1486 27.9251 24.2637C27.9424 24.2493 27.9603 24.2363 27.9789 24.2246C28.9987 23.482 29.8942 22.5985 30.6442 21.6102C30.6593 21.586 30.6767 21.563 30.6964 21.5413C31.0031 21.1315 31.2849 20.704 31.5405 20.2614C35.087 14.1187 32.9821 6.25697 26.8393 2.71048C20.696 -0.836374 12.8361 1.26902 9.28841 7.41371C8.18081 9.33178 7.56682 11.535 7.56493 13.8168ZM17.0673 32.5275C17.3402 32.5275 17.5615 32.7487 17.5615 33.0216C17.5615 33.2945 17.3402 33.5157 17.0673 33.5157H3.18649C2.91363 33.5157 2.69235 33.2945 2.69235 33.0216C2.69235 32.7487 2.91363 32.5275 3.18649 32.5275H17.0673ZM17.0673 29.7198C17.3402 29.7198 17.5615 29.9411 17.5615 30.214C17.5615 30.4868 17.3402 30.7081 17.0673 30.7081H3.18649C2.91363 30.7081 2.69235 30.4868 2.69235 30.214C2.69235 29.9411 2.91363 29.7198 3.18649 29.7198H17.0673ZM14.6865 26.9122C14.9593 26.9122 15.1806 27.1335 15.1806 27.4064C15.1806 27.6792 14.9593 27.9005 14.6865 27.9005H3.18649C2.91363 27.9005 2.69235 27.6792 2.69235 27.4064C2.69235 27.1335 2.91363 26.9122 3.18649 26.9122H14.6865ZM5.52243 23.3522C5.79528 23.3522 6.01657 23.5735 6.01657 23.8463C6.01657 24.1192 5.79528 24.3405 5.52243 24.3405H3.18649C2.91363 24.3405 2.69235 24.1192 2.69235 23.8463C2.69235 23.5735 2.91363 23.3522 3.18649 23.3522H5.52243ZM5.52243 19.7736C5.79528 19.7736 6.01657 19.9949 6.01657 20.2677C6.01657 20.5406 5.79528 20.7619 5.52243 20.7619H3.18649C2.91363 20.7619 2.69235 20.5406 2.69235 20.2677C2.69235 19.9949 2.91363 19.7736 3.18649 19.7736H5.52243ZM5.52243 16.5579C5.79528 16.5579 6.01657 16.7792 6.01657 17.0521C6.01657 17.3249 5.79528 17.5462 5.52243 17.5462H3.18649C2.91363 17.5462 2.69235 17.3249 2.69235 17.0521C2.69235 16.7792 2.91363 16.5579 3.18649 16.5579H5.52243ZM37.0619 23.9624L38.1442 25.0446C38.5249 25.4254 38.6152 26.0003 38.3918 26.4739L43.252 31.3342C44.4003 32.4824 44.4003 34.3583 43.252 35.5066L41.9011 36.8575C41.3283 37.4303 40.5719 37.7167 39.815 37.7168V37.7187C39.0591 37.7187 38.3028 37.4316 37.7287 36.8575L32.8684 31.9972C32.3949 32.2206 31.8201 32.1304 31.4392 31.7496L30.3569 30.6673C29.8663 30.1767 29.8663 29.3771 30.3569 28.8865L31.0716 28.1719L28.1845 25.2849C26.0472 26.7362 23.5082 27.569 20.9086 27.6638V38.042C20.9086 38.3148 20.6873 38.5361 20.4145 38.5361H0.494141C0.221285 38.5361 0 38.3148 0 38.042V13.8365C0 13.5636 0.221285 13.3423 0.494141 13.3423H6.58662C6.79875 7.36241 10.9157 2.02802 16.8352 0.474177C20.5231 -0.513745 24.2634 0.08713 27.3294 1.85723C34.3864 5.93165 36.4039 15.1698 31.7095 21.8202L34.5663 24.6769L35.2808 23.9624C35.7716 23.4718 36.5713 23.4718 37.0619 23.9624ZM37.7451 27.2246L33.6192 31.3505L38.4274 36.1588C38.8085 36.5399 39.3116 36.7304 39.8149 36.7304V36.7324C40.317 36.7324 40.82 36.5411 41.2023 36.1588L42.5532 34.8079C43.3155 34.0456 43.3155 32.7951 42.5532 32.0329L37.7451 27.2246ZM31.7702 27.4732L28.9905 24.6935C29.7728 24.0747 30.4808 23.3762 31.1056 22.6137L33.8676 25.3756L31.7702 27.4732ZM37.4454 25.7434C37.55 25.8479 37.55 26.0222 37.4454 26.1267L32.5213 31.0509C32.4167 31.1555 32.2424 31.1555 32.1378 31.0509L31.0556 29.9686C30.951 29.864 30.951 29.6897 31.0556 29.5852L35.9796 24.6611C36.0842 24.5565 36.2585 24.5565 36.3631 24.6611L37.4454 25.7434ZM19.9202 20.7619V23.3411C17.6587 23.2247 15.5192 22.2986 13.8865 20.7619H19.9202ZM12.3901 20.6129C12.3727 20.5951 12.3567 20.5761 12.3421 20.5559C11.5417 19.5962 10.903 18.4802 10.479 17.2388L10.2705 16.5541C8.78582 11.014 12.033 5.2102 17.6967 3.69265C23.2977 2.1919 29.0578 5.51935 30.5582 11.1188C32.059 16.7197 28.7315 22.4799 23.1321 23.9803C19.2051 25.0325 15.0237 23.7255 12.3901 20.6129ZM12.9752 19.7736C12.4427 19.1067 11.9946 18.3603 11.6515 17.5462H19.9202V19.7736H12.9752ZM11.2973 16.5579C11.0779 15.8219 10.9503 15.0758 10.9108 14.3305H19.9202V16.5579H11.2973ZM10.9099 13.3423C11.1199 9.2803 13.9175 5.72707 17.9515 4.64616C23.0275 3.28611 28.2439 6.29497 29.6047 11.3736C31.1694 17.2133 26.9578 23.0186 20.9085 23.3402V13.8365C20.9085 13.5636 20.6872 13.3423 20.4144 13.3423H10.9099ZM6.58707 14.3306C6.85409 21.636 12.7344 27.4092 19.9202 27.6642V37.5478H0.988281V14.3306H6.58707Z"/>
</mask>
<path fill-rule="evenodd" clip-rule="evenodd" d="M7.56493 13.8168L7.56502 13.8536C7.57455 18.4503 10.0344 22.6779 13.9915 24.9625C16.9113 26.6483 20.461 27.1432 23.7397 26.245C25.2894 25.8298 26.6966 25.1486 27.9251 24.2637C27.9424 24.2493 27.9603 24.2363 27.9789 24.2246C28.9987 23.482 29.8942 22.5985 30.6442 21.6102C30.6593 21.586 30.6767 21.563 30.6964 21.5413C31.0031 21.1315 31.2849 20.704 31.5405 20.2614C35.087 14.1187 32.9821 6.25697 26.8393 2.71048C20.696 -0.836374 12.8361 1.26902 9.28841 7.41371C8.18081 9.33178 7.56682 11.535 7.56493 13.8168ZM17.0673 32.5275C17.3402 32.5275 17.5615 32.7487 17.5615 33.0216C17.5615 33.2945 17.3402 33.5157 17.0673 33.5157H3.18649C2.91363 33.5157 2.69235 33.2945 2.69235 33.0216C2.69235 32.7487 2.91363 32.5275 3.18649 32.5275H17.0673ZM17.0673 29.7198C17.3402 29.7198 17.5615 29.9411 17.5615 30.214C17.5615 30.4868 17.3402 30.7081 17.0673 30.7081H3.18649C2.91363 30.7081 2.69235 30.4868 2.69235 30.214C2.69235 29.9411 2.91363 29.7198 3.18649 29.7198H17.0673ZM14.6865 26.9122C14.9593 26.9122 15.1806 27.1335 15.1806 27.4064C15.1806 27.6792 14.9593 27.9005 14.6865 27.9005H3.18649C2.91363 27.9005 2.69235 27.6792 2.69235 27.4064C2.69235 27.1335 2.91363 26.9122 3.18649 26.9122H14.6865ZM5.52243 23.3522C5.79528 23.3522 6.01657 23.5735 6.01657 23.8463C6.01657 24.1192 5.79528 24.3405 5.52243 24.3405H3.18649C2.91363 24.3405 2.69235 24.1192 2.69235 23.8463C2.69235 23.5735 2.91363 23.3522 3.18649 23.3522H5.52243ZM5.52243 19.7736C5.79528 19.7736 6.01657 19.9949 6.01657 20.2677C6.01657 20.5406 5.79528 20.7619 5.52243 20.7619H3.18649C2.91363 20.7619 2.69235 20.5406 2.69235 20.2677C2.69235 19.9949 2.91363 19.7736 3.18649 19.7736H5.52243ZM5.52243 16.5579C5.79528 16.5579 6.01657 16.7792 6.01657 17.0521C6.01657 17.3249 5.79528 17.5462 5.52243 17.5462H3.18649C2.91363 17.5462 2.69235 17.3249 2.69235 17.0521C2.69235 16.7792 2.91363 16.5579 3.18649 16.5579H5.52243ZM37.0619 23.9624L38.1442 25.0446C38.5249 25.4254 38.6152 26.0003 38.3918 26.4739L43.252 31.3342C44.4003 32.4824 44.4003 34.3583 43.252 35.5066L41.9011 36.8575C41.3283 37.4303 40.5719 37.7167 39.815 37.7168V37.7187C39.0591 37.7187 38.3028 37.4316 37.7287 36.8575L32.8684 31.9972C32.3949 32.2206 31.8201 32.1304 31.4392 31.7496L30.3569 30.6673C29.8663 30.1767 29.8663 29.3771 30.3569 28.8865L31.0716 28.1719L28.1845 25.2849C26.0472 26.7362 23.5082 27.569 20.9086 27.6638V38.042C20.9086 38.3148 20.6873 38.5361 20.4145 38.5361H0.494141C0.221285 38.5361 0 38.3148 0 38.042V13.8365C0 13.5636 0.221285 13.3423 0.494141 13.3423H6.58662C6.79875 7.36241 10.9157 2.02802 16.8352 0.474177C20.5231 -0.513745 24.2634 0.08713 27.3294 1.85723C34.3864 5.93165 36.4039 15.1698 31.7095 21.8202L34.5663 24.6769L35.2808 23.9624C35.7716 23.4718 36.5713 23.4718 37.0619 23.9624ZM37.7451 27.2246L33.6192 31.3505L38.4274 36.1588C38.8085 36.5399 39.3116 36.7304 39.8149 36.7304V36.7324C40.317 36.7324 40.82 36.5411 41.2023 36.1588L42.5532 34.8079C43.3155 34.0456 43.3155 32.7951 42.5532 32.0329L37.7451 27.2246ZM31.7702 27.4732L28.9905 24.6935C29.7728 24.0747 30.4808 23.3762 31.1056 22.6137L33.8676 25.3756L31.7702 27.4732ZM37.4454 25.7434C37.55 25.8479 37.55 26.0222 37.4454 26.1267L32.5213 31.0509C32.4167 31.1555 32.2424 31.1555 32.1378 31.0509L31.0556 29.9686C30.951 29.864 30.951 29.6897 31.0556 29.5852L35.9796 24.6611C36.0842 24.5565 36.2585 24.5565 36.3631 24.6611L37.4454 25.7434ZM19.9202 20.7619V23.3411C17.6587 23.2247 15.5192 22.2986 13.8865 20.7619H19.9202ZM12.3901 20.6129C12.3727 20.5951 12.3567 20.5761 12.3421 20.5559C11.5417 19.5962 10.903 18.4802 10.479 17.2388L10.2705 16.5541C8.78582 11.014 12.033 5.2102 17.6967 3.69265C23.2977 2.1919 29.0578 5.51935 30.5582 11.1188C32.059 16.7197 28.7315 22.4799 23.1321 23.9803C19.2051 25.0325 15.0237 23.7255 12.3901 20.6129ZM12.9752 19.7736C12.4427 19.1067 11.9946 18.3603 11.6515 17.5462H19.9202V19.7736H12.9752ZM11.2973 16.5579C11.0779 15.8219 10.9503 15.0758 10.9108 14.3305H19.9202V16.5579H11.2973ZM10.9099 13.3423C11.1199 9.2803 13.9175 5.72707 17.9515 4.64616C23.0275 3.28611 28.2439 6.29497 29.6047 11.3736C31.1694 17.2133 26.9578 23.0186 20.9085 23.3402V13.8365C20.9085 13.5636 20.6872 13.3423 20.4144 13.3423H10.9099ZM6.58707 14.3306C6.85409 21.636 12.7344 27.4092 19.9202 27.6642V37.5478H0.988281V14.3306H6.58707Z" fill="white" stroke="#01292B" stroke-width="2" mask="url(#path-1-inside-1_239_994)"/>
</svg>
