<svg width="37" height="46" viewBox="0 0 37 46" fill="none" xmlns="http://www.w3.org/2000/svg">
<mask id="path-1-inside-1_239_1001" fill="white">
<path d="M13.7095 27.9289C13.7124 27.9291 13.7151 27.9299 13.7179 27.93C13.7236 27.9301 13.7294 27.9323 13.7351 27.9323C13.7353 27.9323 13.7356 27.9322 13.7358 27.9322C13.7359 27.9322 13.7362 27.9323 13.7364 27.9323C13.7401 27.9323 13.7437 27.9309 13.7474 27.9309C13.7624 27.931 13.777 27.9331 13.7921 27.9331H13.7923H13.7924H13.7925C18.3685 27.9331 22.0912 24.2104 22.0912 19.6342C22.0912 15.058 18.3685 11.3352 13.7925 11.3352C13.7838 11.3352 13.7755 11.3365 13.7668 11.3365C13.7565 11.336 13.7461 11.3375 13.7357 11.3375C13.7156 11.3376 13.6959 11.3386 13.676 11.3406C13.6646 11.3417 13.6531 11.3411 13.6417 11.3428C9.13567 11.4244 5.4935 15.1088 5.4935 19.6342C5.4935 24.1823 9.17197 27.8837 13.7095 27.9289ZM7.33709 22.4714H9.22264C9.66063 23.9014 10.4254 25.2074 11.4706 26.2893C9.62191 25.6422 8.12241 24.251 7.33709 22.4714ZM20.848 19.6341C20.848 20.1829 20.7787 20.715 20.6596 21.2282H18.5367C18.6238 20.7026 18.6732 20.1657 18.6732 19.6187C18.6732 19.0831 18.6249 18.5566 18.5398 18.0404H20.6598C20.7788 18.5535 20.848 19.0854 20.848 19.6341ZM17.43 19.6495C17.43 20.1865 17.3785 20.7143 17.2805 21.2283H14.4138V18.0405H17.2779C17.3778 18.5632 17.43 19.1012 17.43 19.6495ZM10.536 22.4714H13.1706V26.1577C11.9527 25.1847 11.0512 23.9112 10.536 22.4714ZM14.4138 26.0619V22.4713H16.9389C16.4405 23.8621 15.5762 25.0999 14.4138 26.0619ZM14.4138 16.7973V13.2064C15.5738 14.1667 16.4368 15.4031 16.9357 16.7973H14.4138ZM13.1706 13.1105V16.7973H10.5326C11.0472 15.3608 11.9499 14.0853 13.1706 13.1105ZM13.1706 18.0404V21.2282H10.1936C10.0936 20.7053 10.0415 20.1672 10.0415 19.6187C10.0415 19.0819 10.093 18.5541 10.1908 18.0404H13.1706ZM8.93182 21.2282H6.92507C6.80593 20.715 6.73666 20.1829 6.73666 19.6341C6.73666 19.0853 6.80584 18.5534 6.92498 18.0404H8.93478C8.84781 18.5658 8.7984 19.1026 8.7984 19.6494C8.7984 20.1852 8.84682 20.7119 8.93182 21.2282ZM15.9317 26.3562C17.0086 25.2629 17.7976 23.9348 18.2455 22.4713H20.2475C19.4363 24.3099 17.8651 25.7393 15.9317 26.3562ZM20.2477 16.7973H18.249C17.8018 15.3369 17.0118 14.0075 15.9325 12.9123C17.8657 13.5293 19.4366 14.9588 20.2477 16.7973ZM11.4712 12.9787C10.4283 14.0589 9.66449 15.364 9.22587 16.7973H7.33691C8.12223 15.0173 9.62209 13.6258 11.4712 12.9787ZM35.6752 8.16075C35.2492 7.33518 34.5301 6.72613 33.6503 6.44527L13.9822 0.165376C13.1028 -0.116284 12.1635 -0.0361433 11.338 0.390345C10.5126 0.816114 9.90339 1.53522 9.62253 2.41497L8.3172 6.50277H3.46923C1.55627 6.50277 0 8.05923 0 9.97218V42.531C0 44.444 1.55627 46 3.46923 46H24.1154C26.0284 46 27.5846 44.444 27.5846 42.531V36.8481L35.8999 10.805C36.1808 9.92564 36.1011 8.98633 35.6752 8.16075ZM26.3414 42.531C26.3414 43.7585 25.3428 44.7568 24.1154 44.7568H3.46923C2.24178 44.7568 1.24326 43.7585 1.24326 42.531V9.97218C1.24326 8.74474 2.24187 7.74603 3.46923 7.74603H24.1154C25.3429 7.74603 26.3414 8.74483 26.3414 9.97218V42.531ZM34.7158 10.4271L27.5846 32.7615V9.97218C27.5846 8.05923 26.0284 6.50277 24.1154 6.50277H9.62191L10.8066 2.79304C10.9865 2.22972 11.3776 1.76873 11.908 1.49479C12.4381 1.22122 13.0403 1.16983 13.6042 1.34952L33.2723 7.62951C33.8356 7.80955 34.2968 8.20055 34.5704 8.73108C34.8439 9.26116 34.8957 9.86374 34.7158 10.4271ZM22.1771 32.7388C22.1771 33.082 21.8989 33.3604 21.5555 33.3604H6.02887C5.68549 33.3604 5.40725 33.082 5.40725 32.7388C5.40725 32.3956 5.68549 32.1171 6.02887 32.1171H21.5556C21.899 32.1171 22.1771 32.3956 22.1771 32.7388ZM22.1771 37.1267C22.1771 37.4699 21.8989 37.7484 21.5555 37.7484H6.02887C5.68549 37.7484 5.40725 37.4699 5.40725 37.1267C5.40725 36.7835 5.68549 36.5051 6.02887 36.5051H21.5556C21.899 36.5052 22.1771 36.7836 22.1771 37.1267ZM18.6555 41.5148C18.6555 41.858 18.3773 42.1364 18.0339 42.1364H9.55057C9.20719 42.1364 8.92894 41.858 8.92894 41.5148C8.92894 41.1716 9.20719 40.8932 9.55057 40.8932H18.0339C18.3774 40.8932 18.6555 41.1716 18.6555 41.5148Z"/>
</mask>
<path d="M13.7095 27.9289C13.7124 27.9291 13.7151 27.9299 13.7179 27.93C13.7236 27.9301 13.7294 27.9323 13.7351 27.9323C13.7353 27.9323 13.7356 27.9322 13.7358 27.9322C13.7359 27.9322 13.7362 27.9323 13.7364 27.9323C13.7401 27.9323 13.7437 27.9309 13.7474 27.9309C13.7624 27.931 13.777 27.9331 13.7921 27.9331H13.7923H13.7924H13.7925C18.3685 27.9331 22.0912 24.2104 22.0912 19.6342C22.0912 15.058 18.3685 11.3352 13.7925 11.3352C13.7838 11.3352 13.7755 11.3365 13.7668 11.3365C13.7565 11.336 13.7461 11.3375 13.7357 11.3375C13.7156 11.3376 13.6959 11.3386 13.676 11.3406C13.6646 11.3417 13.6531 11.3411 13.6417 11.3428C9.13567 11.4244 5.4935 15.1088 5.4935 19.6342C5.4935 24.1823 9.17197 27.8837 13.7095 27.9289ZM7.33709 22.4714H9.22264C9.66063 23.9014 10.4254 25.2074 11.4706 26.2893C9.62191 25.6422 8.12241 24.251 7.33709 22.4714ZM20.848 19.6341C20.848 20.1829 20.7787 20.715 20.6596 21.2282H18.5367C18.6238 20.7026 18.6732 20.1657 18.6732 19.6187C18.6732 19.0831 18.6249 18.5566 18.5398 18.0404H20.6598C20.7788 18.5535 20.848 19.0854 20.848 19.6341ZM17.43 19.6495C17.43 20.1865 17.3785 20.7143 17.2805 21.2283H14.4138V18.0405H17.2779C17.3778 18.5632 17.43 19.1012 17.43 19.6495ZM10.536 22.4714H13.1706V26.1577C11.9527 25.1847 11.0512 23.9112 10.536 22.4714ZM14.4138 26.0619V22.4713H16.9389C16.4405 23.8621 15.5762 25.0999 14.4138 26.0619ZM14.4138 16.7973V13.2064C15.5738 14.1667 16.4368 15.4031 16.9357 16.7973H14.4138ZM13.1706 13.1105V16.7973H10.5326C11.0472 15.3608 11.9499 14.0853 13.1706 13.1105ZM13.1706 18.0404V21.2282H10.1936C10.0936 20.7053 10.0415 20.1672 10.0415 19.6187C10.0415 19.0819 10.093 18.5541 10.1908 18.0404H13.1706ZM8.93182 21.2282H6.92507C6.80593 20.715 6.73666 20.1829 6.73666 19.6341C6.73666 19.0853 6.80584 18.5534 6.92498 18.0404H8.93478C8.84781 18.5658 8.7984 19.1026 8.7984 19.6494C8.7984 20.1852 8.84682 20.7119 8.93182 21.2282ZM15.9317 26.3562C17.0086 25.2629 17.7976 23.9348 18.2455 22.4713H20.2475C19.4363 24.3099 17.8651 25.7393 15.9317 26.3562ZM20.2477 16.7973H18.249C17.8018 15.3369 17.0118 14.0075 15.9325 12.9123C17.8657 13.5293 19.4366 14.9588 20.2477 16.7973ZM11.4712 12.9787C10.4283 14.0589 9.66449 15.364 9.22587 16.7973H7.33691C8.12223 15.0173 9.62209 13.6258 11.4712 12.9787ZM35.6752 8.16075C35.2492 7.33518 34.5301 6.72613 33.6503 6.44527L13.9822 0.165376C13.1028 -0.116284 12.1635 -0.0361433 11.338 0.390345C10.5126 0.816114 9.90339 1.53522 9.62253 2.41497L8.3172 6.50277H3.46923C1.55627 6.50277 0 8.05923 0 9.97218V42.531C0 44.444 1.55627 46 3.46923 46H24.1154C26.0284 46 27.5846 44.444 27.5846 42.531V36.8481L35.8999 10.805C36.1808 9.92564 36.1011 8.98633 35.6752 8.16075ZM26.3414 42.531C26.3414 43.7585 25.3428 44.7568 24.1154 44.7568H3.46923C2.24178 44.7568 1.24326 43.7585 1.24326 42.531V9.97218C1.24326 8.74474 2.24187 7.74603 3.46923 7.74603H24.1154C25.3429 7.74603 26.3414 8.74483 26.3414 9.97218V42.531ZM34.7158 10.4271L27.5846 32.7615V9.97218C27.5846 8.05923 26.0284 6.50277 24.1154 6.50277H9.62191L10.8066 2.79304C10.9865 2.22972 11.3776 1.76873 11.908 1.49479C12.4381 1.22122 13.0403 1.16983 13.6042 1.34952L33.2723 7.62951C33.8356 7.80955 34.2968 8.20055 34.5704 8.73108C34.8439 9.26116 34.8957 9.86374 34.7158 10.4271ZM22.1771 32.7388C22.1771 33.082 21.8989 33.3604 21.5555 33.3604H6.02887C5.68549 33.3604 5.40725 33.082 5.40725 32.7388C5.40725 32.3956 5.68549 32.1171 6.02887 32.1171H21.5556C21.899 32.1171 22.1771 32.3956 22.1771 32.7388ZM22.1771 37.1267C22.1771 37.4699 21.8989 37.7484 21.5555 37.7484H6.02887C5.68549 37.7484 5.40725 37.4699 5.40725 37.1267C5.40725 36.7835 5.68549 36.5051 6.02887 36.5051H21.5556C21.899 36.5052 22.1771 36.7836 22.1771 37.1267ZM18.6555 41.5148C18.6555 41.858 18.3773 42.1364 18.0339 42.1364H9.55057C9.20719 42.1364 8.92894 41.858 8.92894 41.5148C8.92894 41.1716 9.20719 40.8932 9.55057 40.8932H18.0339C18.3774 40.8932 18.6555 41.1716 18.6555 41.5148Z" fill="white" stroke="#01292B" stroke-width="2" mask="url(#path-1-inside-1_239_1001)"/>
</svg>
