<svg width="45" height="45" viewBox="0 0 45 45" fill="none" xmlns="http://www.w3.org/2000/svg">
<path d="M39.377 26.0293C40.0597 25.6817 40.8474 25.5994 41.5879 25.7959C42.3281 25.9924 42.9701 26.4546 43.3906 27.0947L43.3945 27.1016L43.3994 27.1094C43.6614 27.5155 43.7538 28.008 43.6572 28.4814C43.5606 28.955 43.282 29.3716 42.8818 29.6426L28.2158 39.4824L28.2148 39.4834C26.6989 40.5044 24.8617 40.9353 23.0498 40.6953L23.041 40.6943L13.8848 39.6904C13.3482 39.6193 12.8044 39.6289 12.2715 39.7188L12.042 39.7627L10.0947 40.1816L9.73828 40.2578L9.8125 40.6152L10.1064 42.0293V42.0303C10.1263 42.1252 10.1076 42.2243 10.0547 42.3057C10.0018 42.387 9.91903 42.4445 9.82422 42.4648H9.82324L4.12891 43.6904C4.10227 43.696 4.07505 43.6981 4.04785 43.6982C3.96421 43.6976 3.88317 43.6692 3.81836 43.6162C3.75299 43.5627 3.70834 43.488 3.69141 43.4053L3.69043 43.4033L0.375 27.6045C0.355306 27.5097 0.374045 27.4113 0.426758 27.3301C0.479592 27.2488 0.56244 27.1913 0.657227 27.1709L6.35156 25.9424C6.39872 25.9323 6.44769 25.9317 6.49512 25.9404C6.54242 25.9492 6.58755 25.967 6.62793 25.9932C6.6685 26.0195 6.70409 26.0539 6.73145 26.0938C6.75871 26.1336 6.77815 26.1784 6.78809 26.2256L7.24414 28.4014L7.3584 28.9453L7.81445 28.626C9.1778 27.6704 10.7796 27.1114 12.4414 27.0107C14.103 26.9102 15.76 27.2718 17.2285 28.0557L17.2295 28.0566L21.2686 30.2012H21.2695C21.6289 30.3914 22.0289 30.4925 22.4355 30.4951C22.8424 30.4977 23.2445 30.4017 23.6064 30.2158L23.6055 30.2148L29.5312 27.1787C30.3181 26.777 31.223 26.6717 32.0811 26.8818C32.9391 27.0919 33.6928 27.6035 34.2051 28.3232L34.3896 28.582L34.6719 28.4375L39.3779 26.0303L39.377 26.0293ZM5.78418 26.8174L1.52539 27.7354L1.16797 27.8125L1.24316 28.1699L4.25781 42.5303L4.33398 42.8916L4.69434 42.8135L8.95605 41.8965L9.31348 41.8193L9.23828 41.4619L6.22168 27.1006L6.14551 26.7393L5.78418 26.8174ZM41.3926 26.5029C40.8289 26.3542 40.2298 26.4177 39.71 26.6816H39.709L34.8555 29.166L34.6504 29.2705L34.6562 29.502C34.665 29.8269 34.5869 30.1485 34.4307 30.4336C34.2747 30.718 34.0463 30.9566 33.7686 31.124L25.5967 35.9707L25.5957 35.9717C23.9221 36.969 21.9284 37.2827 20.0293 36.8477H20.0283L13.0117 35.1709L13.1826 34.4561L20.1963 36.1338L20.2002 36.1348C21.9141 36.5253 23.7122 36.2396 25.2217 35.3389L25.2227 35.3398L33.3926 30.4922H33.3936C33.6439 30.3425 33.8256 30.0999 33.8984 29.8174C33.9712 29.5351 33.9298 29.2354 33.7832 28.9834H33.7822C33.4019 28.3265 32.7847 27.8398 32.0566 27.625C31.3283 27.4101 30.5453 27.4835 29.8691 27.8291H29.8682L23.9395 30.8701C23.4725 31.1105 22.9539 31.234 22.4287 31.2305C21.9037 31.2268 21.3874 31.0962 20.9238 30.8496L16.8838 28.7051C15.5321 27.9844 14.0065 27.6529 12.4775 27.7471C10.9486 27.8413 9.47572 28.3572 8.22266 29.2383L7.72168 29.5879L7.52246 29.7266L7.57227 29.9648L9.50781 39.1748L9.58398 39.5361L9.94434 39.458L11.8848 39.041C12.57 38.893 13.2759 38.865 13.9707 38.958L13.9795 38.959L23.126 39.9609V39.9619C24.6643 40.1694 26.2245 39.843 27.5469 39.042L27.8086 38.875L42.4756 29.0342L42.4824 29.0293C42.7189 28.8627 42.8823 28.6112 42.9375 28.3271C42.9858 28.0785 42.9475 27.8218 42.832 27.5986L42.7783 27.5049L42.7754 27.499L42.7676 27.4883L42.6396 27.3125C42.3226 26.9176 41.8859 26.6331 41.3926 26.5029Z" fill="white" stroke="#01292B" stroke-width="0.734375"/>
<path d="M4.46989 29.3554L4.62027 30.0722L3.90154 30.223L3.75116 29.5061L4.46989 29.3554Z" fill="white" stroke="#01292B" stroke-width="0.734375"/>
<path d="M13.9531 19.4609H16.8906C16.988 19.4609 17.0815 19.4995 17.1504 19.5684C17.2193 19.6372 17.2578 19.7307 17.2578 19.8281V24.2344C17.2578 24.3318 17.2193 24.4253 17.1504 24.4941C17.0815 24.563 16.988 24.6016 16.8906 24.6016H13.9531C13.8557 24.6016 13.7622 24.563 13.6934 24.4941C13.6245 24.4253 13.5859 24.3318 13.5859 24.2344V19.8281C13.5859 19.7307 13.6245 19.6372 13.6934 19.5684C13.7622 19.4995 13.8557 19.4609 13.9531 19.4609ZM14.3203 23.8672H16.5234V20.1953H14.3203V23.8672Z" fill="white" stroke="#01292B" stroke-width="0.734375"/>
<path d="M20.5625 14.3203H23.5C23.5974 14.3203 23.6909 14.3589 23.7598 14.4277C23.8286 14.4966 23.8672 14.5901 23.8672 14.6875V24.2344C23.8672 24.3318 23.8286 24.4253 23.7598 24.4941C23.6909 24.563 23.5974 24.6016 23.5 24.6016H20.5625C20.4651 24.6016 20.3716 24.563 20.3027 24.4941C20.2339 24.4253 20.1953 24.3318 20.1953 24.2344V14.6875C20.1953 14.5901 20.2339 14.4966 20.3027 14.4277C20.3716 14.3589 20.4651 14.3203 20.5625 14.3203ZM20.9297 23.8672H23.1328V15.0547H20.9297V23.8672Z" fill="white" stroke="#01292B" stroke-width="0.734375"/>
<path d="M27.1719 16.5234H30.1094C30.2068 16.5234 30.3003 16.562 30.3691 16.6309C30.438 16.6997 30.4766 16.7932 30.4766 16.8906V24.2344C30.4766 24.3318 30.438 24.4253 30.3691 24.4941C30.3003 24.563 30.2068 24.6016 30.1094 24.6016H27.1719C27.0745 24.6016 26.981 24.563 26.9121 24.4941C26.8432 24.4253 26.8047 24.3318 26.8047 24.2344V16.8906C26.8047 16.7932 26.8432 16.6997 26.9121 16.6309C26.981 16.562 27.0745 16.5234 27.1719 16.5234ZM27.5391 23.8672H29.7422V17.2578H27.5391V23.8672Z" fill="white" stroke="#01292B" stroke-width="0.734375"/>
<path d="M33.7812 12.8516H36.7188C36.8161 12.8516 36.9097 12.8901 36.9785 12.959C37.0474 13.0278 37.0859 13.1214 37.0859 13.2188V24.2344C37.0859 24.3318 37.0474 24.4253 36.9785 24.4941C36.9097 24.563 36.8161 24.6016 36.7188 24.6016H33.7812C33.6839 24.6016 33.5903 24.563 33.5215 24.4941C33.4526 24.4253 33.4141 24.3318 33.4141 24.2344V13.2188C33.4141 13.1214 33.4526 13.0278 33.5215 12.959C33.5903 12.8901 33.6839 12.8516 33.7812 12.8516ZM34.1484 23.8672H36.3516V13.5859H34.1484V23.8672Z" fill="white" stroke="#01292B" stroke-width="0.734375"/>
<path d="M43.3281 0.367188C43.4254 0.367274 43.5191 0.405827 43.5879 0.474609C43.6566 0.543453 43.6953 0.637065 43.6953 0.734375V4.03906H42.9609V1.62109L42.334 2.24707L34.7744 9.80664C34.7057 9.87517 34.6127 9.91398 34.5156 9.91406C34.4184 9.91406 34.3247 9.87535 34.2559 9.80664L28.166 3.71582L27.9062 3.45703L27.6465 3.71582L19.3525 12.0098C19.2838 12.0783 19.1908 12.1171 19.0938 12.1172C18.9965 12.1172 18.9028 12.0785 18.834 12.0098L14.2129 7.3877L13.9531 7.12891L13.6934 7.3877L4.19043 16.8896L3.6709 16.3711L13.6934 6.34961C13.7622 6.2809 13.8559 6.24219 13.9531 6.24219C14.0502 6.24227 14.1432 6.28108 14.2119 6.34961L18.834 10.9717L19.0938 11.2305L19.3535 10.9717L27.6465 2.67773C27.7153 2.60902 27.809 2.57031 27.9062 2.57031C28.0033 2.5704 28.0963 2.6092 28.165 2.67773L34.2559 8.76855L34.5156 9.02734L34.7754 8.76855L41.8145 1.72852L42.4414 1.10156H40.0234V0.367188H43.3281Z" fill="white" stroke="#01292B" stroke-width="0.734375"/>
</svg>
