<svg width="45" height="45" viewBox="0 0 45 45" fill="none" xmlns="http://www.w3.org/2000/svg">
<path d="M43.7079 26.9104L43.6976 26.8935C43.2274 26.1775 42.5096 25.6602 41.6816 25.4406C40.8537 25.2209 39.9739 25.3144 39.2106 25.703L34.5047 28.1103C33.9414 27.3187 33.1122 26.756 32.1685 26.5249C31.2248 26.2938 30.2294 26.4098 29.3641 26.8516L23.4384 29.889C23.1291 30.0479 22.7859 30.1297 22.4381 30.1275C22.0904 30.1254 21.7483 30.0392 21.4409 29.8765L17.4018 27.7321C15.8733 26.9161 14.1485 26.5396 12.419 26.6444C10.6894 26.7491 9.02273 27.331 7.60382 28.3255L7.14704 26.1503C7.12714 26.0556 7.08874 25.9658 7.03404 25.886C6.97934 25.8062 6.90941 25.738 6.82827 25.6853C6.74713 25.6327 6.65639 25.5965 6.56124 25.579C6.4661 25.5615 6.36844 25.563 6.27386 25.5833L0.57952 26.8119C0.389943 26.8528 0.224239 26.9671 0.118574 27.1297C0.0129095 27.2923 -0.0241371 27.4901 0.0155204 27.68L3.33122 43.4786C3.36503 43.6442 3.45495 43.7931 3.58579 43.9001C3.71664 44.0072 3.8804 44.0658 4.04944 44.0661C4.10126 44.0659 4.15293 44.0605 4.20366 44.0499L9.90094 42.8235C10.0908 42.7828 10.2568 42.6685 10.3627 42.5057C10.4685 42.3429 10.5055 42.1448 10.4657 41.9548L10.1719 40.5403L12.1188 40.1218C12.686 40.0008 13.2697 39.9785 13.8445 40.0557L23.0015 41.0596C24.9025 41.3114 26.83 40.859 28.4204 39.7876L43.0881 29.947C43.5677 29.6222 43.9012 29.1226 44.017 28.555C44.1328 27.9875 44.0219 27.3971 43.7079 26.9104ZM4.61711 42.4549L1.6025 28.0942L5.86188 27.1762L8.87869 41.5376L4.61711 42.4549ZM42.2707 28.7294L27.6038 38.57C26.3027 39.4418 24.7276 39.8075 23.1755 39.5981L14.0193 38.5943C13.2824 38.4956 12.5341 38.5254 11.8074 38.6824L9.86716 39.0995L7.93135 29.889L8.43293 29.5394C9.63076 28.6969 11.0388 28.2032 12.5005 28.1133C13.9622 28.0233 15.4201 28.3405 16.7123 29.0298L20.7513 31.1741C21.2673 31.4487 21.8421 31.5941 22.4266 31.5981C23.011 31.602 23.5878 31.4644 24.1074 31.1969L30.036 28.1559C30.6285 27.853 31.3146 27.7892 31.9527 27.9775C32.5909 28.1658 33.1324 28.5919 33.4656 29.1678C33.5638 29.3364 33.5916 29.5368 33.5429 29.7257C33.4942 29.9147 33.373 30.0767 33.2056 30.1769L25.0349 35.0237C23.6062 35.8767 21.9037 36.1462 20.2813 35.7765L12.9111 34.014L12.5697 35.4431L19.9472 37.2056C21.9385 37.6618 24.0291 37.3327 25.784 36.2868L33.9554 31.44C34.2899 31.239 34.5651 30.9528 34.7527 30.6106C34.9403 30.2684 35.0336 29.8825 35.0232 29.4924L39.8767 27.0088C40.3162 26.7856 40.8225 26.7317 41.2991 26.8575C41.7757 26.9833 42.1895 27.28 42.4617 27.691L42.4697 27.7042C42.5754 27.8677 42.6137 28.0658 42.5766 28.2569C42.5395 28.448 42.4299 28.6173 42.2707 28.7294Z" fill="white"/>
<path d="M4.75387 28.9206L3.31641 29.2222L3.61766 30.6582L5.05512 30.3566L4.75387 28.9206Z" fill="white"/>
<path d="M13.9531 19.0938C13.7584 19.0938 13.5716 19.1711 13.4338 19.3088C13.2961 19.4466 13.2188 19.6334 13.2188 19.8281V24.2344C13.2188 24.4291 13.2961 24.6159 13.4338 24.7537C13.5716 24.8914 13.7584 24.9688 13.9531 24.9688H16.8906C17.0854 24.9688 17.2722 24.8914 17.4099 24.7537C17.5476 24.6159 17.625 24.4291 17.625 24.2344V19.8281C17.625 19.6334 17.5476 19.4466 17.4099 19.3088C17.2722 19.1711 17.0854 19.0938 16.8906 19.0938H13.9531ZM16.1562 23.5H14.6875V20.5625H16.1562V23.5Z" fill="white"/>
<path d="M20.5625 13.9531C20.3677 13.9531 20.1809 14.0305 20.0432 14.1682C19.9055 14.3059 19.8281 14.4927 19.8281 14.6875V24.2344C19.8281 24.4291 19.9055 24.6159 20.0432 24.7537C20.1809 24.8914 20.3677 24.9688 20.5625 24.9688H23.5C23.6948 24.9688 23.8816 24.8914 24.0193 24.7537C24.157 24.6159 24.2344 24.4291 24.2344 24.2344V14.6875C24.2344 14.4927 24.157 14.3059 24.0193 14.1682C23.8816 14.0305 23.6948 13.9531 23.5 13.9531H20.5625ZM22.7656 23.5H21.2969V15.4219H22.7656V23.5Z" fill="white"/>
<path d="M27.1719 16.1562C26.9771 16.1562 26.7903 16.2336 26.6526 16.3713C26.5149 16.5091 26.4375 16.6959 26.4375 16.8906V24.2344C26.4375 24.4291 26.5149 24.6159 26.6526 24.7537C26.7903 24.8914 26.9771 24.9688 27.1719 24.9688H30.1094C30.3041 24.9688 30.4909 24.8914 30.6287 24.7537C30.7664 24.6159 30.8438 24.4291 30.8438 24.2344V16.8906C30.8438 16.6959 30.7664 16.5091 30.6287 16.3713C30.4909 16.2336 30.3041 16.1562 30.1094 16.1562H27.1719ZM29.375 23.5H27.9062V17.625H29.375V23.5Z" fill="white"/>
<path d="M33.7812 12.4844C33.5865 12.4844 33.3997 12.5617 33.262 12.6995C33.1242 12.8372 33.0469 13.024 33.0469 13.2188V24.2344C33.0469 24.4291 33.1242 24.6159 33.262 24.7537C33.3997 24.8914 33.5865 24.9688 33.7812 24.9688H36.7188C36.9135 24.9688 37.1003 24.8914 37.238 24.7537C37.3758 24.6159 37.4531 24.4291 37.4531 24.2344V13.2188C37.4531 13.024 37.3758 12.8372 37.238 12.6995C37.1003 12.5617 36.9135 12.4844 36.7188 12.4844H33.7812ZM35.9844 23.5H34.5156V13.9531H35.9844V23.5Z" fill="white"/>
<path d="M13.9528 7.64778L18.5742 12.2692C18.7119 12.4069 18.8987 12.4842 19.0934 12.4842C19.2882 12.4842 19.4749 12.4069 19.6126 12.2692L27.9059 3.97591L33.9961 10.0661C34.1338 10.2038 34.3206 10.2811 34.5153 10.2811C34.71 10.2811 34.8968 10.2038 35.0345 10.0661L42.5934 2.50716V4.40625H44.0622V0.734375C44.0622 0.539607 43.9848 0.352815 43.8471 0.215093C43.7094 0.0773714 43.5226 0 43.3278 0H39.6559V1.46875H41.555L34.5153 8.50847L28.4251 2.4183C28.2874 2.28062 28.1007 2.20328 27.9059 2.20328C27.7112 2.20328 27.5244 2.28062 27.3867 2.4183L19.0934 10.7116L14.472 6.09017C14.3343 5.9525 14.1475 5.87516 13.9528 5.87516C13.7581 5.87516 13.5713 5.9525 13.4336 6.09017L3.15234 16.3714L4.19075 17.4098L13.9528 7.64778Z" fill="white"/>
</svg>
