<svg width="40" height="40" viewBox="0 0 40 40" fill="none" xmlns="http://www.w3.org/2000/svg">
<mask id="mask0_239_961" style="mask-type:luminance" maskUnits="userSpaceOnUse" x="0" y="0" width="40" height="40">
<path d="M39.9609 39.9609V0.0390625H0.0390625V39.9609H39.9609Z" fill="white" stroke="white" stroke-width="0.078125"/>
</mask>
<g mask="url(#mask0_239_961)">
<path d="M17.7082 7.14404C17.2 6.41967 16.1239 5.31725 14.3653 5.51365C12.876 5.67998 11.7649 5.20201 11.0593 4.72889" stroke="#01292B" stroke-width="1.17187" stroke-miterlimit="10" stroke-linecap="round" stroke-linejoin="round"/>
<path d="M17.5555 7.91061C17.5555 7.91061 13.4086 7.61248 11.8623 10.2554" stroke="#01292B" stroke-width="1.17187" stroke-miterlimit="10" stroke-linecap="round" stroke-linejoin="round"/>
<path d="M25.2276 9.18112C23.0002 9.74362 20.7998 9.7437 18.5719 9.18112C17.7966 8.98526 17.357 8.11339 17.6361 7.32081C17.6392 7.31198 17.6423 7.30315 17.6454 7.29433C17.8794 6.6298 18.5429 6.2569 19.1932 6.42019C21.017 6.87808 22.782 6.87823 24.6064 6.42019C25.2567 6.2569 25.9202 6.62987 26.1541 7.29433C26.1573 7.30315 26.1604 7.31198 26.1635 7.32089C26.4426 8.11347 26.003 8.98526 25.2276 9.18112Z" stroke="#01292B" stroke-width="1.17187" stroke-miterlimit="10" stroke-linecap="round" stroke-linejoin="round"/>
<path d="M25.2279 6.42236C26.2789 4.89611 28.0386 2.03502 27.246 1.00861C26.8703 0.522285 26.55 1.18283 25.773 1.18283C24.8601 1.18283 24.8601 0.585567 23.9473 0.585567C23.0346 0.585567 23.0346 1.18283 22.1218 1.18283C21.2091 1.18283 21.2091 0.585567 20.2964 0.585567C19.3836 0.585567 19.3836 1.18283 18.471 1.18283C17.6932 1.18283 17.3741 0.513691 16.996 1.00033C16.2091 2.01314 17.9065 4.844 18.9438 6.38299" stroke="#01292B" stroke-width="1.17187" stroke-miterlimit="10" stroke-linecap="round" stroke-linejoin="round"/>
<path d="M28.4602 10.4185C27.7321 9.76979 26.9392 9.12814 26.0784 8.49682" stroke="#01292B" stroke-width="1.17187" stroke-miterlimit="10" stroke-linecap="round" stroke-linejoin="round"/>
<path d="M17.845 8.69154C10.6 14.1168 8.33558 20.2925 9.07418 25.0991" stroke="#01292B" stroke-width="1.17187" stroke-miterlimit="10" stroke-linecap="round" stroke-linejoin="round"/>
<path d="M33.4348 29.4922C36.3245 25.4302 36.2552 18.7108 30.4141 12.3393" stroke="#01292B" stroke-width="1.17187" stroke-miterlimit="10" stroke-linecap="round" stroke-linejoin="round"/>
<mask id="path-9-inside-1_239_961" fill="white">
<path d="M24.3743 29.6263L24.374 29.668L24.4016 29.6559C24.3926 29.6459 24.3834 29.6362 24.3743 29.6263Z"/>
</mask>
<path d="M24.3743 29.6263L24.374 29.668L24.4016 29.6559C24.3926 29.6459 24.3834 29.6362 24.3743 29.6263Z" fill="#FFDDCE"/>
<path d="M24.3743 29.6263L24.2962 29.6257L24.2977 29.4277L24.4318 29.5734L24.3743 29.6263ZM24.374 29.668L24.4054 29.7395L24.295 29.788L24.2959 29.6674L24.374 29.668ZM24.4016 29.6559L24.4597 29.6036L24.5319 29.684L24.433 29.7274L24.4016 29.6559ZM24.3743 29.6263L24.4525 29.6269L24.4521 29.6686L24.374 29.668L24.2959 29.6674L24.2962 29.6257L24.3743 29.6263ZM24.374 29.668L24.3426 29.5964L24.3702 29.5843L24.4016 29.6559L24.433 29.7274L24.4054 29.7395L24.374 29.668ZM24.4016 29.6559L24.3435 29.7081C24.3348 29.6984 24.3272 29.6905 24.3169 29.6792L24.3743 29.6263L24.4318 29.5734C24.4396 29.5818 24.4505 29.5933 24.4597 29.6036L24.4016 29.6559Z" fill="#01292B" mask="url(#path-9-inside-1_239_961)"/>
<path d="M18.5315 33.1367H25.158" stroke="#01292B" stroke-width="1.17187" stroke-miterlimit="10" stroke-linecap="round" stroke-linejoin="round"/>
<path d="M6.11035 36.5306L12.7679 39.0086C13.4882 39.2767 14.2508 39.4141 15.0196 39.4141H23.7617C24.985 39.4141 26.1832 39.0664 27.2167 38.4116L38.1626 31.4756C38.8847 30.8344 39.0186 29.7566 38.4753 28.9582C37.8809 28.0846 36.8975 27.9327 35.8154 28.4444L25.1584 33.1368L25.1711 31.4077C25.0299 29.9886 23.9372 28.8496 22.525 28.6498L16.0353 27.9027C14.5382 27.6908 13.7901 27.1891 12.485 26.4256C10.7032 25.3833 8.67621 24.834 6.61191 24.834H6.11035" stroke="#01292B" stroke-width="1.17187" stroke-miterlimit="10" stroke-linecap="round" stroke-linejoin="round"/>
<path d="M6.10984 29.8138V37.5408C6.10984 38.1563 5.61094 38.6553 4.99547 38.6553H2.30586C1.69039 38.6553 1.19141 38.1563 1.19141 37.5408V23.8952C1.19141 23.2797 1.69039 22.7809 2.30586 22.7809H4.99547C5.61094 22.7809 6.10984 23.2797 6.10984 23.8952V27.0747" stroke="#01292B" stroke-width="1.17187" stroke-miterlimit="10" stroke-linecap="round" stroke-linejoin="round"/>
<path d="M24.1736 14.8012C24.1736 14.8012 23.0046 13.7229 21.2025 14.2658C19.5479 14.7642 19.137 17.0283 20.2614 17.9101C20.907 18.4165 21.8785 18.8329 23.1878 19.2957C26.1181 20.3315 25.0348 24.464 22.0541 24.4839C20.8908 24.4915 20.3471 24.4178 19.3252 23.7493" stroke="#01292B" stroke-width="1.17187" stroke-miterlimit="10" stroke-linecap="round" stroke-linejoin="round"/>
<path d="M22.0537 12.7175V25.9917" stroke="#01292B" stroke-width="1.17187" stroke-miterlimit="10" stroke-linecap="round" stroke-linejoin="round"/>
</g>
</svg>
