<svg width="41" height="41" viewBox="0 0 41 41" fill="none" xmlns="http://www.w3.org/2000/svg">
<path d="M0 40.4208H40.4211V36.6313H0V40.4208ZM1.26316 37.8945H39.1579V39.1577H1.26316V37.8945Z" fill="white"/>
<path d="M20.2105 0L0 8.84211V10.1053H40.4211V8.84211L20.2105 0ZM3.15789 8.84211L20.2105 1.37684L37.2632 8.84211H3.15789Z" fill="white"/>
<path d="M3.78901 11.3687V34.1055H1.2627V35.3687H39.1574V34.1055H36.6311V11.3687H30.3153V34.1055H27.789V11.3687H21.4732V34.1055H18.9469V11.3687H12.6311V34.1055H10.1048V11.3687H3.78901ZM31.5785 12.6318H35.368V34.1055H31.5785V12.6318ZM22.7364 12.6318H26.5259V34.1055H22.7364V12.6318ZM13.8943 12.6318H17.6837V34.1055H13.8943V12.6318ZM8.84164 34.1055H5.05217V12.6318H8.84164V34.1055Z" fill="white"/>
<path d="M17.6846 5.05268C17.6846 5.55234 17.8327 6.04078 18.1103 6.45623C18.3879 6.87168 18.7825 7.19548 19.2441 7.38669C19.7057 7.57791 20.2137 7.62793 20.7037 7.53046C21.1938 7.43298 21.6439 7.19237 21.9973 6.83906C22.3506 6.48575 22.5912 6.0356 22.6887 5.54554C22.7861 5.05549 22.7361 4.54753 22.5449 4.0859C22.3537 3.62428 22.0299 3.22972 21.6144 2.95213C21.199 2.67453 20.7105 2.52637 20.2109 2.52637C19.5409 2.52637 18.8983 2.79253 18.4245 3.26631C17.9507 3.74008 17.6846 4.38266 17.6846 5.05268ZM21.474 5.05268C21.474 5.30251 21.4 5.54673 21.2612 5.75446C21.1224 5.96218 20.9251 6.12408 20.6943 6.21969C20.4635 6.31529 20.2095 6.34031 19.9645 6.29157C19.7194 6.24283 19.4944 6.12253 19.3177 5.94587C19.141 5.76921 19.0207 5.54414 18.972 5.29911C18.9233 5.05408 18.9483 4.80011 19.0439 4.56929C19.1395 4.33848 19.3014 4.1412 19.5091 4.00241C19.7168 3.86361 19.9611 3.78953 20.2109 3.78953C20.5459 3.78953 20.8672 3.92261 21.1041 4.1595C21.341 4.39638 21.474 4.71767 21.474 5.05268Z" fill="white"/>
</svg>
