<svg width="46" height="46" viewBox="0 0 46 46" fill="none" xmlns="http://www.w3.org/2000/svg">
<path d="M44.5571 29.2235L37.2627 18.6255C37.4361 17.7226 37.5241 16.7981 37.5241 15.8727C37.525 7.86312 31.0086 1.34766 23 1.34766C14.9913 1.34766 8.47493 7.86312 8.47493 15.8727C8.47493 16.7648 8.55758 17.6561 8.7184 18.5267L1.44286 29.0968C1.362 29.2145 1.33055 29.36 1.35661 29.5002C1.38266 29.6404 1.46352 29.7652 1.58122 29.8461L5.85868 32.7903C5.95211 32.8541 6.05813 32.8855 6.16415 32.8855C6.33575 32.8855 6.50376 32.8037 6.60887 32.6519L7.04731 32.0149C7.5702 32.8792 8.27458 33.7148 9.1793 34.544L8.87294 34.9843C8.18563 35.9716 8.43001 37.3337 9.41739 38.021C9.74801 38.251 10.12 38.3759 10.4946 38.4046L10.4677 38.4432C9.78036 39.4306 10.0247 40.7927 11.0121 41.48C11.3805 41.736 11.8099 41.8699 12.2511 41.8699C12.3813 41.8699 12.5125 41.8582 12.6428 41.8348C13.0956 41.754 13.4999 41.5366 13.8143 41.2158C13.9734 41.5815 14.2285 41.8968 14.5627 42.1295C14.9311 42.3856 15.3606 42.5195 15.8017 42.5195C15.932 42.5195 16.0631 42.5078 16.1934 42.4844C16.4288 42.4422 16.6498 42.3622 16.8529 42.2517C16.9957 42.7135 17.2841 43.1133 17.6857 43.3927C18.0648 43.6569 18.4988 43.7827 18.9282 43.7827C19.6191 43.7827 20.2984 43.4565 20.7224 42.8483L21.0405 42.391L24.0565 44.2903C24.4474 44.5364 24.8831 44.6541 25.3143 44.6541C26.1014 44.6541 26.8731 44.2624 27.3223 43.5482C27.5802 43.1394 27.6961 42.6803 27.6844 42.2302C27.9962 42.3775 28.3331 42.453 28.6763 42.453C28.8506 42.453 29.0258 42.4341 29.2001 42.3946C29.8227 42.2553 30.3519 41.8825 30.6906 41.3452C30.9655 40.9086 31.0787 40.4162 31.0491 39.9373C31.2602 39.9984 31.4794 40.0299 31.7004 40.0299C31.8774 40.0299 32.0562 40.0101 32.2332 39.9697C32.8513 39.8295 33.3769 39.4576 33.7129 38.9239C34.0355 38.4118 34.1469 37.808 34.0319 37.2133C34.0561 37.2142 34.0795 37.216 34.1038 37.216C34.8908 37.216 35.6625 36.8243 36.1118 36.11C36.605 35.3266 36.5807 34.3634 36.1315 33.6204C37.1261 33.3132 38.0614 32.7418 38.8313 31.9664L39.3911 32.7795C39.4953 32.9313 39.6642 33.0131 39.8358 33.0131C39.9409 33.0131 40.0478 32.9825 40.1413 32.9179L44.4187 29.9737C44.5364 29.8928 44.6173 29.7679 44.6433 29.6278C44.6694 29.4867 44.6379 29.3412 44.5571 29.2235ZM31.4066 21.1771L32.1362 22.2363C31.3851 22.3468 30.6735 22.3657 30.0042 22.2956C30.4813 20.4709 30.7499 18.4593 30.7903 16.4109H36.4352C36.4217 16.755 36.3948 17.0973 36.3552 17.4387C36.3148 17.4198 36.2717 17.4054 36.2268 17.3973C36.0866 17.3713 35.9411 17.4027 35.8234 17.4836L31.5459 20.4278C31.2997 20.5967 31.2377 20.9318 31.4066 21.1771ZM14.4549 20.3011L10.1775 17.3569C10.0598 17.2761 9.91422 17.2446 9.77407 17.2707C9.72376 17.2796 9.67614 17.2967 9.63122 17.3183C9.59887 17.0173 9.57731 16.7145 9.56473 16.4109H15.2096C15.2527 18.6282 15.5609 20.7827 16.1116 22.7215C15.3264 22.5508 14.5924 22.2857 14.0075 21.9012L14.5933 21.0495C14.7622 20.806 14.7002 20.47 14.4549 20.3011ZM30.7903 15.3336C30.7454 13.004 30.4112 10.7687 29.8209 8.78133C31.1362 8.41027 32.3455 7.9323 33.3985 7.3573C35.1963 9.5477 36.3148 12.3149 36.4352 15.3345H30.7903V15.3336ZM29.7113 15.3336H23.539V9.67617C25.3593 9.64023 27.1337 9.42371 28.7742 9.04727C29.3429 10.9448 29.6664 13.0893 29.7113 15.3336ZM23.539 8.59805V2.4707C25.0682 2.72137 26.5129 4.03398 27.653 6.23156C27.9423 6.78949 28.2019 7.38965 28.4328 8.02125C26.901 8.36535 25.2434 8.56391 23.539 8.59805ZM22.4609 2.4707V8.59805C20.7566 8.56301 19.099 8.36535 17.5671 8.02125C17.7989 7.38875 18.0577 6.78859 18.347 6.23156C19.4871 4.03398 20.9318 2.72137 22.4609 2.4707ZM22.4609 9.67617V15.3327H16.2886C16.3336 13.0884 16.6561 10.9439 17.2257 9.04727C18.8663 9.42461 20.6407 9.64113 22.4609 9.67617ZM15.2096 15.3336H9.56473C9.68422 12.314 10.8037 9.5477 12.6014 7.35641C13.6544 7.93141 14.8637 8.40938 16.179 8.78043C15.5888 10.7687 15.2545 13.0031 15.2096 15.3336ZM19.3927 22.9587C18.7378 22.9946 18.0145 22.9847 17.2922 22.9093C16.6795 20.9444 16.3345 18.7162 16.2877 16.4118H22.4609V22.0063C21.39 22.2965 20.3873 22.6083 19.3927 22.9587ZM23.539 16.4118H29.7113C29.6709 18.3982 29.4067 20.3442 28.9404 22.1016C28.5469 21.9946 28.1714 21.8518 27.8138 21.673C26.9513 21.2409 26.0376 21.1537 24.937 21.399C24.4536 21.5068 23.9891 21.6164 23.539 21.7278V16.4118ZM32.66 6.52894C31.7175 7.02039 30.6457 7.43277 29.4849 7.75711C29.2279 7.04105 28.9359 6.36453 28.6098 5.73473C28.0043 4.56676 27.3089 3.61711 26.5497 2.90195C28.9072 3.54793 31.0068 4.82012 32.66 6.52894ZM19.4502 2.90195C18.692 3.61621 17.9966 4.56676 17.3901 5.73473C17.064 6.36363 16.7711 7.04105 16.515 7.75711C15.3543 7.43277 14.2833 7.02039 13.34 6.52894C14.9931 4.82012 17.0927 3.54793 19.4502 2.90195ZM6.02579 31.5971L2.63598 29.2639L10.0095 18.55L13.3993 20.8833L6.02579 31.5971ZM11.5691 36.8611C11.2215 37.3606 10.5323 37.4837 10.0328 37.1369C9.53329 36.7892 9.4102 36.1001 9.757 35.6006L11.3409 33.3239C11.6886 32.8244 12.3777 32.7013 12.8773 33.0481C13.3768 33.3949 13.4999 34.0849 13.1531 34.5845L11.5691 36.8611ZM12.4532 40.7738C12.1621 40.8259 11.8692 40.763 11.6284 40.595C11.1289 40.2473 11.0058 39.5582 11.3526 39.0587L15.1386 33.6177C15.3525 33.3105 15.6966 33.1452 16.0461 33.1452C16.2635 33.1452 16.4827 33.2089 16.675 33.3428C17.1745 33.6905 17.2976 34.3796 16.9508 34.8791L16.0982 36.1037C16.0973 36.1046 16.0973 36.1046 16.0964 36.1055L13.1639 40.3192C12.9968 40.56 12.7443 40.7217 12.4532 40.7738ZM16.0029 41.4234C15.7118 41.4755 15.419 41.4126 15.1782 41.2446C14.9374 41.0775 14.7766 40.825 14.7245 40.533C14.6723 40.241 14.7352 39.949 14.9032 39.7082L16.9822 36.7218C17.1493 36.4811 17.4018 36.3202 17.6938 36.2681C17.9849 36.216 18.2778 36.2789 18.5186 36.4469C19.0181 36.7946 19.1412 37.4837 18.7944 37.9832L18.3694 38.5933C18.3685 38.5942 18.3676 38.5951 18.3667 38.5969L17.1422 40.3569C17.1422 40.3578 17.1413 40.3578 17.1413 40.3587L16.7154 40.9705C16.5474 41.2095 16.2949 41.3703 16.0029 41.4234ZM19.8375 42.232C19.4898 42.7315 18.8007 42.8546 18.3011 42.5078C18.0604 42.3407 17.8995 42.0882 17.8474 41.7962C17.7953 41.5051 17.8582 41.2122 18.0262 40.9714L19.2517 39.2114C19.5994 38.7128 20.2876 38.5888 20.7871 38.9365C21.0279 39.1036 21.1887 39.3561 21.2408 39.648C21.2929 39.94 21.23 40.232 21.062 40.4728L19.8375 42.232ZM35.1999 35.5359C34.8207 36.1379 34.022 36.3193 33.42 35.9402L27.1669 32.0023C26.9154 31.8442 26.582 31.9197 26.4239 32.1712C26.2649 32.4228 26.3413 32.7561 26.5928 32.9143L32.3967 36.5682L32.3976 36.5691C32.6878 36.7515 32.89 37.0381 32.9663 37.3759C33.0427 37.7137 32.9852 38.0587 32.8019 38.3489C32.6195 38.6391 32.3329 38.8413 31.9951 38.9176C31.6582 38.994 31.3123 38.9356 31.0221 38.7532L29.9503 38.0785L25.2775 35.1361C25.025 34.978 24.6926 35.0534 24.5345 35.305C24.3755 35.5566 24.4518 35.8899 24.7034 36.048L29.3744 38.9886C29.3753 38.9886 29.3753 38.9895 29.3762 38.9895C29.9781 39.3686 30.1587 40.1664 29.7796 40.7684C29.5954 41.0613 29.3061 41.2643 28.9656 41.3407C28.6296 41.4162 28.2882 41.3569 28.0025 41.1754L24.0745 38.6679C23.8238 38.5079 23.4905 38.5816 23.3297 38.8323C23.1698 39.0829 23.2434 39.4163 23.4941 39.5771L26.0115 41.1844L26.0061 41.1934C26.6081 41.5725 26.7896 42.3703 26.4104 42.9732C26.0313 43.5751 25.2326 43.7566 24.6306 43.3775L21.6559 41.5042L21.9461 41.0873C22.2776 40.6103 22.4043 40.0317 22.301 39.4567C22.1977 38.8817 21.8787 38.3821 21.4016 38.0506C20.9893 37.7631 20.5113 37.64 20.0441 37.6643C20.1573 36.8737 19.8312 36.048 19.1322 35.5611C18.7908 35.3239 18.4054 35.1981 18.0181 35.1747C18.462 34.2305 18.1745 33.0733 17.2895 32.4579C16.3021 31.7705 14.9401 32.0149 14.2528 33.0023L14.2249 33.0427C14.065 32.6923 13.8161 32.3887 13.4927 32.1632C12.5053 31.4759 11.1433 31.7202 10.456 32.7076L9.79922 33.651C8.87294 32.7858 8.19102 31.9206 7.72653 31.0266L13.3948 22.7907C14.5313 23.5462 15.9984 23.8625 17.2392 23.9856C16.9086 24.2416 16.6327 24.5354 16.3965 24.8804L14.4504 27.7186C14.3291 27.8956 14.2869 28.1094 14.3318 28.3205C14.3768 28.5308 14.5034 28.7087 14.6876 28.8201C17.1475 30.3133 19.6057 29.7554 21.9946 27.1607C22.018 27.1355 22.0332 27.1292 22.0674 27.1319L24.5399 27.299L34.7947 33.7561C35.3975 34.1352 35.579 34.9339 35.1999 35.5359ZM35.1999 32.7373L24.9999 26.3152C24.9244 26.2676 24.8382 26.2398 24.7492 26.2335L22.1411 26.0574C21.7808 26.0331 21.4475 26.1661 21.2022 26.432C19.2759 28.5227 17.4162 29.0573 15.5259 28.0582L17.2859 25.4914C17.6749 24.9236 18.2023 24.5471 19.0468 24.2318C20.9596 23.5184 22.8481 22.9695 25.1715 22.4511C26.0286 22.2606 26.6943 22.3172 27.3304 22.6361C28.8964 23.4214 30.7382 23.6145 32.8082 23.2147L38.2078 31.0599C37.3831 31.9511 36.313 32.5504 35.1999 32.7373ZM39.9741 31.7238L32.6007 21.01L35.9905 18.6767L43.364 29.3906L39.9741 31.7238Z" fill="#01292B"/>
</svg>
