<svg width="45" height="45" viewBox="0 0 45 45" fill="none" xmlns="http://www.w3.org/2000/svg">
<g clip-path="url(#clip0_1461_231)">
<path d="M10.9771 30.2046C10.9771 28.6365 9.74987 27.4092 8.18168 27.4092C6.6135 27.4092 5.38623 28.6365 5.38623 30.2046C5.38623 31.7728 6.6135 33.0001 8.18168 33.0001C9.68168 33.0001 10.9771 31.7046 10.9771 30.2046ZM6.74987 30.2046C6.74987 29.3865 7.3635 28.7728 8.18168 28.7728C8.99987 28.7728 9.6135 29.3865 9.6135 30.2046C9.6135 31.0228 8.99987 31.6365 8.18168 31.6365C7.3635 31.6365 6.74987 30.9546 6.74987 30.2046Z" fill="#01292B"/>
<path d="M39.6136 7.22758C39.6136 5.6594 38.3863 4.43213 36.8182 4.43213C35.25 4.43213 34.0227 5.6594 34.0227 7.22758C34.0227 8.79577 35.25 10.023 36.8182 10.023C38.3863 10.023 39.6136 8.79577 39.6136 7.22758ZM35.3863 7.22758C35.3863 6.4094 36 5.79577 36.8182 5.79577C37.6363 5.79577 38.25 6.4094 38.25 7.22758C38.25 8.04577 37.6363 8.6594 36.8182 8.6594C36.0682 8.6594 35.3863 8.04577 35.3863 7.22758Z" fill="#01292B"/>
<path d="M24.6139 18.6816C24.6821 18.6816 37.023 18.6816 36.8867 18.6816C37.023 18.6816 37.1594 18.6816 37.3639 18.4771C38.0457 17.7953 44.0457 11.5907 44.0457 7.84073C44.0457 3.88619 40.773 0.681641 36.8185 0.681641C32.8639 0.681641 29.6594 3.88619 29.6594 7.84073C29.6594 10.7726 33.3412 15.2044 35.2503 17.318H24.6139C22.9094 17.318 21.4094 18.2726 20.6594 19.7726C18.9548 19.9089 17.523 21.3407 17.523 23.0453C17.523 24.8862 19.023 26.3862 20.8639 26.3862C21.273 26.3862 21.6821 26.318 22.023 26.1816C23.2503 27.4089 24.8185 28.0226 26.523 28.0226H30.3412C33.2048 28.0226 35.5912 30.068 36.0685 32.7953C34.3639 32.9316 33.0003 34.3635 33.0003 36.068C33.0003 37.1589 33.5457 38.0453 34.2957 38.6589C33.2048 39.6135 31.8412 40.2271 30.3412 40.2271H25.773C25.4321 38.7271 24.1367 37.568 22.5003 37.568C20.9321 37.568 19.5685 38.7271 19.2276 40.2271H9.75029C11.6594 38.1135 15.3412 33.6816 15.3412 30.7498C15.3412 26.7953 12.1367 23.5907 8.18211 23.5907C4.22756 23.5907 0.954834 26.8635 0.954834 30.818C0.954834 34.568 6.95483 40.7726 7.63665 41.4544C8.31847 42.1362 7.70483 41.5226 7.77302 41.5226C7.90938 41.5907 8.04574 41.6589 8.18211 41.6589H19.2276C19.5685 43.1589 20.8639 44.318 22.5003 44.318C24.1367 44.318 25.4321 43.1589 25.773 41.6589H30.3412C32.3185 41.6589 34.2276 40.8407 35.5912 39.3407C35.7957 39.4089 36.0685 39.4089 36.3412 39.4089C38.1821 39.4089 39.6821 37.9089 39.6821 36.068C39.6821 34.6362 38.7957 33.4089 37.5003 32.9316C37.0912 29.318 34.023 26.5907 30.3412 26.5907H26.523C25.2957 26.5907 24.1367 26.1135 23.2503 25.2953C23.8639 24.6816 24.2048 23.8635 24.2048 22.9089C24.2048 21.5453 23.3185 20.318 22.0912 19.8407C22.6367 19.2271 23.5912 18.6816 24.6139 18.6816ZM36.8185 2.04528C40.023 2.04528 42.6139 4.63619 42.6139 7.84073C42.6139 10.2953 38.7957 14.9316 36.8185 17.0453C34.8412 14.9316 31.023 10.3635 31.023 7.84073C31.023 4.63619 33.6139 2.04528 36.8185 2.04528ZM8.18211 25.0226C11.3867 25.0226 13.9776 27.6135 13.9776 30.818C13.9776 33.2726 10.1594 37.9089 8.18211 40.0226C6.20483 37.9089 2.38665 33.3407 2.38665 30.818C2.31847 27.6135 4.97756 25.0226 8.18211 25.0226ZM22.5003 42.9544C21.4094 42.9544 20.523 42.068 20.523 40.9771C20.523 39.8862 21.4094 38.9998 22.5003 38.9998C23.5912 38.9998 24.4776 39.8862 24.4776 40.9771C24.4776 42.068 23.5912 42.9544 22.5003 42.9544ZM38.2503 36.1362C38.2503 37.2271 37.3639 38.1135 36.273 38.1135C35.1821 38.1135 34.2957 37.2271 34.2957 36.1362C34.2957 35.0453 35.1821 34.1589 36.273 34.1589C37.3639 34.1589 38.2503 35.0453 38.2503 36.1362ZM22.8412 23.1135C22.8412 24.2044 21.9548 25.0907 20.8639 25.0907C19.773 25.0907 18.8867 24.2044 18.8867 23.1135C18.8867 22.0226 19.773 21.1362 20.8639 21.1362C21.9548 21.1362 22.8412 22.0226 22.8412 23.1135Z" fill="#01292B"/>
</g>
<defs>
<clipPath id="clip0_1461_231">
<rect width="45" height="45" fill="white"/>
</clipPath>
</defs>
</svg>
