<svg width="39" height="41" viewBox="0 0 39 41" fill="none" xmlns="http://www.w3.org/2000/svg">
<path d="M24.177 23.0549C26.0753 23.0561 27.9519 22.651 29.6807 21.8668C31.4094 21.0826 32.9503 19.9375 34.1999 18.5084C34.6143 18.0367 34.8428 17.4303 34.8428 16.8025C34.8428 16.1746 34.6143 15.5683 34.1999 15.0966C29.1408 9.07847 19.2204 9.07847 14.1614 15.0966C13.7479 15.5701 13.52 16.1775 13.52 16.8061C13.52 17.4348 13.7479 18.0422 14.1614 18.5157C15.4105 19.9429 16.9504 21.0863 18.6779 21.8692C20.4054 22.6522 22.2804 23.0564 24.177 23.0549ZM15.2596 16.0557C19.7256 10.7111 28.6357 10.7111 33.1017 16.0557C33.2746 16.2605 33.3694 16.5198 33.3694 16.7878C33.3694 17.0558 33.2746 17.3152 33.1017 17.52C31.9885 18.7906 30.6167 19.8087 29.0782 20.5063C27.5397 21.2038 25.8699 21.5647 24.1806 21.5647C22.4914 21.5647 20.8216 21.2038 19.2831 20.5063C17.7445 19.8087 16.3728 18.7906 15.2596 17.52C15.0853 17.3159 14.9895 17.0563 14.9895 16.7878C14.9895 16.5194 15.0853 16.2598 15.2596 16.0557Z" fill="#01292B"/>
<path d="M24.1771 20.3166C28.7969 20.1702 28.7896 13.4785 24.1771 13.332C19.5647 13.4785 19.5647 20.1702 24.1771 20.3166ZM24.1771 14.7963C24.715 14.7963 25.2308 15.01 25.6111 15.3903C25.9915 15.7706 26.2051 16.2864 26.2051 16.8243C26.2051 17.3622 25.9915 17.878 25.6111 18.2583C25.2308 18.6387 24.715 18.8523 24.1771 18.8523C23.6392 18.8523 23.1234 18.6387 22.7431 18.2583C22.3628 17.878 22.1491 17.3622 22.1491 16.8243C22.1491 16.2864 22.3628 15.7706 22.7431 15.3903C23.1234 15.01 23.6392 14.7963 24.1771 14.7963Z" fill="#01292B"/>
<path d="M38.8928 16.8391C38.0802 -2.68686 10.2737 -2.69418 9.46838 16.8391C9.46638 18.4033 9.71352 19.9578 10.2005 21.4443L7.85769 23.7871C7.65182 23.9913 7.48842 24.2342 7.37691 24.5019C7.2654 24.7695 7.20799 25.0566 7.20799 25.3465C7.20799 25.6365 7.2654 25.9236 7.37691 26.1912C7.48842 26.4589 7.65182 26.7018 7.85769 26.906L8.69964 27.7479L0.755987 34.7105C0.528191 34.9084 0.343612 35.1511 0.213765 35.4235C0.0839169 35.6959 0.0115853 35.9921 0.0012811 36.2937C-0.00902308 36.5952 0.0429213 36.8957 0.153874 37.1763C0.264828 37.4569 0.432409 37.7116 0.646167 37.9246L3.07685 40.3553C3.28805 40.5669 3.54022 40.7331 3.81791 40.8439C4.09561 40.9546 4.39299 41.0075 4.69184 40.9992C4.99068 40.991 5.2847 40.9219 5.55589 40.796C5.82708 40.6702 6.06972 40.4903 6.26896 40.2674L13.2755 32.2872L14.1174 33.1291C14.3215 33.3339 14.564 33.4964 14.8309 33.6072C15.0979 33.7181 15.3841 33.7751 15.6732 33.7751C15.9623 33.7751 16.2485 33.7181 16.5155 33.6072C16.7825 33.4964 17.0249 33.3339 17.229 33.1291L19.5792 30.7863C28.8187 34.0297 39.0686 26.6497 38.8928 16.8391ZM24.177 3.5802C27.6922 3.58214 31.0628 4.97992 33.5477 7.46625C36.0327 9.95257 37.4286 13.3239 37.4286 16.8391C36.6964 34.4104 11.6575 34.4104 10.9326 16.8391C10.9326 13.3252 12.3276 9.95495 14.8109 7.46883C17.2943 4.98272 20.663 3.58408 24.177 3.5802ZM5.19272 39.2864C5.1241 39.3619 5.04046 39.4222 4.94716 39.4635C4.85386 39.5047 4.75296 39.5261 4.65094 39.5261C4.54892 39.5261 4.44802 39.5047 4.35472 39.4635C4.26142 39.4222 4.17778 39.3619 4.10916 39.2864L1.6858 36.8923C1.61148 36.8237 1.55217 36.7405 1.51161 36.6479C1.47104 36.5553 1.4501 36.4553 1.4501 36.3542C1.4501 36.2531 1.47104 36.1531 1.51161 36.0604C1.55217 35.9678 1.61148 35.8846 1.6858 35.8161L9.73927 28.7656L12.2212 31.2549L5.19272 39.2864ZM16.1747 32.0968C16.1065 32.1666 16.0251 32.222 15.9352 32.2598C15.8453 32.2976 15.7488 32.3171 15.6513 32.3171C15.5537 32.3171 15.4572 32.2976 15.3673 32.2598C15.2774 32.222 15.196 32.1666 15.1278 32.0968L8.89 25.8517C8.82026 25.7835 8.76486 25.7021 8.72703 25.6122C8.6892 25.5223 8.66971 25.4258 8.66971 25.3282C8.66971 25.2307 8.6892 25.1342 8.72703 25.0443C8.76486 24.9544 8.82026 24.873 8.89 24.8048L10.7862 22.9085C12.2669 26.1499 14.8662 28.7492 18.1076 30.2299L16.1747 32.0968Z" fill="#01292B"/>
<path d="M38.1605 27.0303C37.9664 27.0303 37.7801 27.1074 37.6428 27.2447C37.5055 27.382 37.4284 27.5682 37.4284 27.7624V31.6281C37.4284 31.7756 37.3698 31.9172 37.2654 32.0215C37.1611 32.1259 37.0195 32.1845 36.872 32.1845H33.0063C32.8121 32.1845 32.6259 32.2616 32.4886 32.3989C32.3513 32.5362 32.2742 32.7225 32.2742 32.9166C32.2742 33.1108 32.3513 33.297 32.4886 33.4343C32.6259 33.5716 32.8121 33.6488 33.0063 33.6488H36.872C37.4073 33.6468 37.9201 33.4333 38.2987 33.0548C38.6772 32.6763 38.8907 32.1634 38.8927 31.6281V27.7624C38.8927 27.5682 38.8155 27.382 38.6782 27.2447C38.5409 27.1074 38.3547 27.0303 38.1605 27.0303Z" fill="#01292B"/>
<path d="M10.2004 6.58921C10.3946 6.58921 10.5808 6.51207 10.7181 6.37477C10.8554 6.23747 10.9325 6.05125 10.9325 5.85707V2.02069C10.9325 1.94762 10.9469 1.87526 10.9749 1.80776C11.0028 1.74025 11.0438 1.67891 11.0955 1.62724C11.1472 1.57557 11.2085 1.53459 11.276 1.50662C11.3435 1.47866 11.4159 1.46427 11.489 1.46427H15.3546C15.5488 1.46427 15.735 1.38713 15.8723 1.24983C16.0096 1.11253 16.0868 0.926308 16.0868 0.732134C16.0868 0.53796 16.0096 0.351739 15.8723 0.214437C15.735 0.0771355 15.5488 0 15.3546 0H11.489C10.9536 0.00192912 10.4408 0.215442 10.0622 0.593978C9.6837 0.972513 9.47019 1.48536 9.46826 2.02069V5.85707C9.46826 6.05125 9.5454 6.23747 9.6827 6.37477C9.82 6.51207 10.0062 6.58921 10.2004 6.58921Z" fill="#01292B"/>
</svg>
