<svg width="18" height="21" viewBox="0 0 18 21" fill="none" xmlns="http://www.w3.org/2000/svg">
<path d="M16.8918 11.8048C16.4224 11.6722 15.9494 11.8499 15.687 12.2576C15.6343 12.3396 15.5958 12.4144 15.5694 12.4861C15.3748 13.0138 15.0479 13.8852 14.8246 14.479C14.5888 14.2595 14.2597 14.1656 13.9261 14.2409C13.6385 14.3059 13.447 14.4367 13.4115 14.4623C13.41 14.4634 13.4085 14.4645 13.407 14.4657C13.4054 14.4668 13.401 14.4702 13.3994 14.4714C13.3977 14.4727 13.396 14.4741 13.3944 14.4754L12.4039 15.2862C12.2826 15.3855 12.1521 15.4582 12.0159 15.5024C11.2793 15.7411 10.6229 16.3939 10.4766 16.7568C10.3571 17.0532 10.2694 18.2457 10.2453 18.6042C10.2439 18.6263 10.245 18.6479 10.2483 18.669C9.91247 18.7796 9.65715 19.0758 9.61303 19.444L9.58677 19.6629C9.52552 20.174 9.8915 20.6396 10.4026 20.7008L12.8438 20.9934C12.8809 20.9978 12.9185 21 12.9557 21C13.4274 21 13.8256 20.6465 13.8817 20.1775L13.9079 19.9587C13.9388 19.7011 13.8611 19.455 13.7109 19.2665C14.6104 18.3689 15.9553 17.0177 16.195 16.7247C16.5849 16.2486 17.6511 12.9929 17.6594 12.9633C17.6714 12.9213 17.6762 12.8748 17.6749 12.8121C17.6647 12.3316 17.3573 11.9363 16.8918 11.8048ZM13.3239 19.8886L13.2977 20.1075C13.2769 20.281 13.1298 20.4118 12.9556 20.4118C12.9418 20.4118 12.9276 20.4109 12.9137 20.4092L10.4726 20.1167C10.2835 20.0941 10.1481 19.9218 10.1707 19.7328L10.197 19.5139C10.2178 19.3404 10.3648 19.2096 10.5391 19.2096C10.5529 19.2096 10.567 19.2105 10.5809 19.2121L13.0221 19.5046C13.2112 19.5273 13.3466 19.6995 13.3239 19.8886ZM15.7398 16.352C15.5704 16.559 14.6251 17.5241 13.2039 18.9412C13.1674 18.9323 13.1302 18.9252 13.0921 18.9206L10.8314 18.6498C10.8316 18.6477 10.832 18.6456 10.8321 18.6435C10.8784 17.9547 10.9641 17.1217 11.022 16.9767C11.0857 16.8188 11.5886 16.2591 12.1973 16.0619C12.4034 15.995 12.5983 15.8872 12.7764 15.7414L13.7594 14.9367C13.7819 14.9218 13.8932 14.8514 14.0557 14.8147C14.288 14.7624 14.4466 14.8941 14.5176 15.0348C14.5444 15.0878 14.5628 15.1499 14.5663 15.2152C14.5662 15.2224 14.5663 15.2296 14.5667 15.2368C14.5669 15.3425 14.5269 15.4547 14.4179 15.5489C13.7935 16.0888 13.0609 16.7034 13.0535 16.7096C12.9291 16.8139 12.9128 16.9995 13.0172 17.1239C13.1216 17.2483 13.3071 17.2646 13.4316 17.1602C13.4389 17.154 14.1747 16.5366 14.8025 15.9938C15.0227 15.8035 15.1433 15.5437 15.1539 15.2734C15.2644 14.9804 15.8351 13.4653 16.1212 12.6896C16.129 12.6685 16.1458 12.6317 16.1816 12.5759C16.3263 12.351 16.5606 12.3227 16.7318 12.3708C16.8998 12.4183 17.0812 12.5624 17.0868 12.8244C17.0868 12.8247 17.0868 12.8251 17.0868 12.8254C16.961 13.2441 15.9952 16.0403 15.7398 16.352Z" fill="#01292B"/>
<path d="M1.58686 7.48958H3.55278V11.5843C3.55278 12.6789 4.44331 13.5694 5.5379 13.5694H12.253C13.3476 13.5694 14.2381 12.6789 14.2381 11.5843V7.48958H16.0891C16.2626 7.48958 16.4153 7.38513 16.4782 7.2235C16.5411 7.06188 16.4992 6.88168 16.3713 6.76442L9.07959 0.0773134C8.96766 -0.0253289 8.79587 -0.0258315 8.68327 0.0761774L1.30651 6.76274C1.17757 6.87958 1.13475 7.05999 1.19735 7.22233C1.25995 7.38467 1.41284 7.48958 1.58686 7.48958ZM8.87964 0.69206L15.6504 6.90138H13.944C13.7816 6.90138 13.6499 7.03305 13.6499 7.19548V11.5843C13.6499 12.3546 13.0233 12.9812 12.253 12.9812H5.53786C4.76761 12.9812 4.14093 12.3546 4.14093 11.5843V7.19548C4.14093 7.03305 4.00926 6.90138 3.84684 6.90138H2.02936L8.87964 0.69206Z" fill="#01292B"/>
<path d="M8.40169 10.8737C8.53227 10.9676 8.6849 11.0173 8.84304 11.0173C8.99631 11.0173 9.14504 10.9704 9.27314 10.8816C9.72521 10.5682 10.5746 9.92323 11.1844 9.12526C12.194 7.80422 11.9592 6.82517 11.5845 6.23651C11.2832 5.76335 10.839 5.51328 10.3 5.51328C9.70769 5.51328 9.13626 5.81696 8.85342 5.99405C8.56722 5.80154 7.97739 5.46362 7.36373 5.46362C6.85078 5.46362 6.41922 5.69915 6.11567 6.14471C5.72162 6.72316 5.46487 7.69784 6.47947 9.05632C7.09022 9.87404 7.94596 10.546 8.40169 10.8737ZM6.60181 6.47587C6.79617 6.19051 7.04543 6.05182 7.36373 6.05182C7.99394 6.05182 8.6568 6.57641 8.66306 6.58141C8.76771 6.66573 8.91657 6.66808 9.02421 6.58754C9.03068 6.58266 9.6808 6.10148 10.3 6.10148C10.6372 6.10148 10.8951 6.24899 11.0883 6.55242C12.0535 8.0684 9.68647 9.87933 8.93808 10.3982C8.87863 10.4394 8.8041 10.4386 8.74515 10.3962C7.98718 9.8511 5.59255 7.95744 6.60181 6.47587Z" fill="#01292B"/>
<path d="M8.06214 19.4439C8.01802 19.0758 7.7627 18.7796 7.42684 18.6689C7.43008 18.6479 7.4313 18.6262 7.42983 18.6041C7.4058 18.2457 7.31807 17.0531 7.19862 16.7567C7.05233 16.3938 6.3959 15.741 5.65928 15.5023C5.52311 15.4582 5.39253 15.3855 5.27123 15.2862L4.28076 14.4754C4.27908 14.474 4.27466 14.4706 4.27298 14.4692C4.26988 14.4668 4.26672 14.4644 4.26353 14.4621C4.22803 14.4366 4.03628 14.3058 3.74899 14.2408C3.41548 14.1655 3.08638 14.2594 2.85056 14.4789C2.62726 13.8851 2.30035 13.0138 2.10578 12.4863C2.07931 12.4144 2.04083 12.3396 1.98805 12.2575C1.72568 11.8499 1.25277 11.6722 0.783349 11.8048C0.317791 11.9363 0.0104176 12.3316 0.000209048 12.8122C-0.00109363 12.8744 0.00365294 12.9209 0.0155437 12.9627C0.0241137 12.9929 1.09076 16.2491 1.48011 16.7246C1.71959 17.0172 3.06445 18.3685 3.96406 19.2661C3.96279 19.2677 3.96137 19.2691 3.96015 19.2706C3.80608 19.4667 3.73756 19.711 3.76722 19.9586L3.79344 20.1774C3.84961 20.6463 4.24773 20.9999 4.71951 20.9999H4.71959C4.75669 20.9999 4.79434 20.9977 4.83139 20.9932L7.27257 20.7007C7.78367 20.6395 8.14961 20.1738 8.08835 19.6627L8.06214 19.4439ZM1.93524 16.352C1.68039 16.0407 0.714572 13.2452 0.588278 12.8254C0.588278 12.8251 0.588278 12.8248 0.588278 12.8245C0.593825 12.5624 0.775282 12.4183 0.943212 12.3708C1.11433 12.3225 1.34869 12.3509 1.49338 12.5758C1.52926 12.6316 1.54603 12.6684 1.55384 12.6897C1.83987 13.4652 2.41059 14.9801 2.52104 15.2733C2.53163 15.5437 2.65234 15.8035 2.87245 15.9938C3.50026 16.5366 4.23609 17.154 4.24345 17.1602C4.36785 17.2645 4.55334 17.2483 4.65779 17.1239C4.76215 16.9995 4.74589 16.8139 4.62145 16.7096C4.61414 16.7035 3.88158 16.0888 3.25713 15.5489C3.14823 15.4547 3.10815 15.3427 3.10836 15.237C3.10882 15.2297 3.10886 15.2224 3.10878 15.2151C3.11231 15.1499 3.13075 15.0878 3.15747 15.0348C3.22852 14.894 3.38716 14.7624 3.61937 14.8148C3.78159 14.8514 3.89276 14.9215 3.91557 14.9367L4.89861 15.7414C5.07684 15.8873 5.2717 15.9951 5.47786 16.0619C6.08647 16.2592 6.58938 16.8189 6.65303 16.9767C6.71097 17.1216 6.79668 17.9547 6.84289 18.6435C6.84302 18.6457 6.84344 18.6477 6.84361 18.6498L4.58296 18.9207C4.54502 18.9252 4.50801 18.9328 4.47146 18.9417C3.04987 17.5239 2.10448 16.5588 1.93524 16.352ZM7.43298 19.9873C7.37596 20.0598 7.29417 20.1057 7.20258 20.1167L4.7614 20.4093C4.74745 20.411 4.73337 20.4118 4.71959 20.4118C4.71959 20.4118 4.71959 20.4118 4.71955 20.4118C4.54532 20.4118 4.39823 20.281 4.37743 20.1075L4.35122 19.8887C4.34025 19.7971 4.36558 19.7067 4.4226 19.6342C4.47957 19.5616 4.56141 19.5157 4.653 19.5047L7.09413 19.2122C7.10808 19.2105 7.12216 19.2097 7.13602 19.2097C7.31026 19.2097 7.4573 19.3405 7.4781 19.5139L7.50432 19.7328C7.51533 19.8244 7.48995 19.9147 7.43298 19.9873Z" fill="#01292B"/>
</svg>
