<svg width="27" height="15" viewBox="0 0 27 15" fill="none" xmlns="http://www.w3.org/2000/svg">
<path d="M24.7172 4.96422H24.3133V3.86584C24.3133 2.59928 23.2829 1.5689 22.0163 1.5689H21.4434C21.2002 0.666329 20.375 0 19.3967 0C18.2279 0 17.277 0.950812 17.277 2.1196V5.62726H9.0572V2.1196C9.0572 0.950812 8.10633 0 6.93759 0C5.95932 0 5.13411 0.666329 4.89098 1.5689H4.318C3.05143 1.5689 2.021 2.59928 2.021 3.86584V4.96422H1.61709C0.725427 4.96422 0 5.6897 0 6.58131V8.41283C0 9.30449 0.725427 10.0299 1.61709 10.0299H2.02105V11.1341C2.02105 12.4007 3.05149 13.4311 4.31805 13.4311H4.89103C5.13416 14.3336 5.95937 14.9999 6.93765 14.9999C8.10643 14.9999 9.05725 14.0491 9.05725 12.8803V9.37269H16.1037C16.3168 9.37269 16.4894 9.20003 16.4894 8.98694C16.4894 8.77384 16.3168 8.60118 16.1037 8.60118H9.0572V6.39872H17.277V12.8804C17.277 14.0492 18.2279 15 19.3967 15C20.375 15 21.2002 14.3337 21.4434 13.4311H22.0163C23.2829 13.4311 24.3133 12.4007 24.3133 11.1342V10.0299H24.7172C25.6089 10.0299 26.3343 9.30454 26.3343 8.41288V6.58136C26.3343 5.68965 25.6089 4.96422 24.7172 4.96422ZM2.02105 9.25846H1.61709C1.15084 9.25846 0.771512 8.87908 0.771512 8.41288V6.58136C0.771512 6.11511 1.15084 5.73578 1.61709 5.73578H2.02105V9.25846ZM8.28568 12.8804C8.28568 13.6237 7.68092 14.2285 6.93759 14.2285C6.19422 14.2285 5.5895 13.6237 5.5895 12.8804V5.09718C5.5895 4.88409 5.41679 4.71142 5.20375 4.71142C4.99071 4.71142 4.81799 4.88409 4.81799 5.09718V12.6596H4.31805C3.4769 12.6596 2.79257 11.9753 2.79257 11.1342V3.86579C2.79257 3.02464 3.4769 2.34036 4.31805 2.34036H4.81799V3.38817C4.81799 3.60127 4.99071 3.77393 5.20375 3.77393C5.41679 3.77393 5.5895 3.60127 5.5895 3.38817V2.11955C5.5895 1.37622 6.19427 0.771461 6.93759 0.771461C7.68097 0.771461 8.28568 1.37622 8.28568 2.11955V12.8804ZM20.7448 12.8804C20.7448 13.6237 20.1401 14.2285 19.3967 14.2285C18.6533 14.2285 18.0486 13.6237 18.0486 12.8804V2.11955C18.0486 1.37622 18.6533 0.771461 19.3967 0.771461C20.1401 0.771461 20.7448 1.37622 20.7448 2.11955V12.8804ZM23.5418 11.1342C23.5418 11.9753 22.8574 12.6596 22.0163 12.6596H21.5163V2.34036H22.0163C22.8574 2.34036 23.5418 3.02469 23.5418 3.86579V11.1342ZM25.5628 8.41288C25.5628 8.87908 25.1835 9.25841 24.7172 9.25841H24.3133V5.73573H24.7172C25.1835 5.73573 25.5628 6.11506 25.5628 6.58131V8.41288Z" fill="#01292B"/>
</svg>
