<svg width="23" height="19" viewBox="0 0 23 19" fill="none" xmlns="http://www.w3.org/2000/svg">
<path d="M20.2421 0H2.7567C1.23669 0 0 1.23657 0 2.75658V15.9823C0 17.5023 1.23669 18.7388 2.7567 18.7388H20.2421C21.7621 18.7388 22.9988 17.5023 22.9988 15.9823V11.7879H23V6.93657H22.9988V2.75658C22.9988 1.23657 21.7621 0 20.2421 0ZM11.6681 0.479143H20.2421C20.8495 0.479143 21.4007 0.719553 21.8095 1.1084L20.6356 2.13858C20.1481 1.7046 19.508 1.43836 18.8052 1.43836H11.6681L11.6681 0.479143ZM1.91772 11.7879H2.87483V15.5162L2.39622 15.9362C2.09752 15.5511 1.91772 15.0693 1.91772 14.5453V11.7879ZM0.480293 11.3088V7.41572C0.520708 7.41572 2.9714 7.41572 2.87366 7.41572V11.3088C2.82637 11.3088 0.419034 11.3088 0.480293 11.3088ZM1.91772 6.93657V4.19343C1.91772 3.66966 2.09735 3.18807 2.39583 2.80303L2.87483 3.22291V6.93657H1.91772ZM2.72685 2.45601C3.12336 2.12071 3.63494 1.91751 4.19367 1.91751H11.189V2.87474H3.20453L2.72685 2.45601ZM3.354 3.35388H19.6448V15.3849H3.354V3.35388ZM11.6681 15.864H19.7966L20.2737 16.2826C19.8767 16.618 19.3646 16.8212 18.8052 16.8212H11.6681L11.6681 15.864ZM20.124 15.5141V11.7879H21.0835V14.5453C21.0835 15.0692 20.9036 15.5509 20.6047 15.936L20.124 15.5141ZM21.0834 4.19343V6.93657H20.124V3.22475L20.6047 2.80287C20.9036 3.18793 21.0834 3.66959 21.0834 4.19343ZM11.6681 1.91751H18.8052C19.3646 1.91751 19.8768 2.12076 20.2737 2.45616L19.7967 2.87476H11.6681V1.91751ZM2.7567 0.479143H11.189V1.43836H4.19365C3.49151 1.43836 2.85186 1.70465 2.36478 2.13865L1.18942 1.10835C1.59818 0.719553 2.14936 0.479143 2.7567 0.479143ZM0.479143 2.75658C0.479143 2.28031 0.626647 1.83811 0.877622 1.47214L2.03504 2.4867C1.66277 2.95653 1.4386 3.54879 1.4386 4.19341V6.93657H0.479143V2.75658ZM0.479143 15.9823V11.7879H1.4386V14.5453C1.4386 15.1903 1.66298 15.7828 2.03559 16.2528L0.8787 17.2681C0.627078 16.9019 0.479143 16.4592 0.479143 15.9823ZM11.189 18.2597H2.7567C2.14994 18.2597 1.59923 18.0197 1.19062 17.6316L2.36534 16.6006C2.85236 17.0343 3.49178 17.3004 4.19367 17.3004H11.189V18.2597ZM11.189 16.8212H4.19365C3.63509 16.8212 3.12363 16.6181 2.72716 16.283L3.20458 15.864H11.1889L11.189 16.8212ZM20.2421 18.2597H11.6681V17.3004H18.8052C19.5079 17.3004 20.148 17.0341 20.6355 16.6002L21.8094 17.6305C21.4007 18.0193 20.8495 18.2597 20.2421 18.2597ZM22.5197 15.9823C22.5197 16.4586 22.3722 16.9008 22.1212 17.2668L20.9654 16.2524C21.3381 15.7826 21.5626 15.1901 21.5626 14.5453V11.7879H22.5197V15.9823ZM22.5197 11.3088C22.4793 11.3088 20.0274 11.3088 20.1252 11.3088V7.41572C20.1776 7.41572 22.581 7.41572 22.5197 7.41572V11.3088ZM22.5197 6.93657H21.5626V4.19343C21.5626 3.54867 21.3382 2.95624 20.9654 2.48637L22.1212 1.47209C22.3722 1.83806 22.5197 2.28029 22.5197 2.7566V6.93657Z" fill="#01292B"/>
<path d="M5.80422 4.31326H4.31367V5.96393V6.703H4.3125V7.62888V11.1099V12.0359H4.31367V12.9019V14.4255H5.83744H17.1619H18.688V12.9019V5.9639V4.31323H17.1962L5.80422 4.31326ZM4.79282 4.7924H5.35011C5.30588 5.10286 5.08481 5.35683 4.79282 5.4483V4.7924ZM4.79282 8.10802H5.46194V10.6308H4.79282V8.10802ZM4.79282 11.1099H5.94108V7.62888H4.79282V7.18215H6.64271V11.5568H4.79282V11.1099ZM4.79282 13.9464V13.4174C5.04432 13.496 5.24343 13.6949 5.32179 13.9464H4.79282ZM18.2088 13.9464H17.6775C17.7563 13.6947 17.9561 13.4957 18.2088 13.4172V13.9464ZM18.2088 4.7924V5.44854C17.9157 5.35728 17.6936 5.1031 17.6492 4.7924H18.2088ZM18.2088 5.93971V6.703H15.8777V7.92858C15.1849 8.04317 14.6543 8.64473 14.6543 9.36941C14.6543 10.0942 15.1849 10.6958 15.8777 10.8104V12.0359H18.2088V12.9261C17.6918 13.0239 17.2844 13.4304 17.1862 13.9464H5.81322C5.71526 13.4305 5.30881 13.0241 4.79282 12.9261V12.0359H7.12186V10.8102C7.81427 10.6954 8.34451 10.0939 8.34451 9.36939C8.34451 8.64492 7.81427 8.04353 7.12186 7.92865V6.70298H4.79282V5.93963C5.34932 5.83377 5.77398 5.36687 5.82582 4.79238H17.1735C17.2255 5.36703 17.6511 5.83398 18.2088 5.93971ZM17.0582 7.62888V11.1099H18.2077V11.5568H16.3568V7.18215H18.2077V7.62888H17.0582ZM18.2077 8.10802V10.6308H17.5374V8.10802H18.2077ZM15.8777 8.41917V10.3197C15.4513 10.2123 15.1335 9.82864 15.1335 9.36939C15.1335 8.91025 15.4513 8.52662 15.8777 8.41917ZM7.12186 10.3195V8.41939C7.54786 8.52708 7.86537 8.91049 7.86537 9.36939C7.86537 9.82838 7.54786 10.2118 7.12186 10.3195Z" fill="#01292B"/>
</svg>
