<svg width="24" height="20" viewBox="0 0 24 20" fill="none" xmlns="http://www.w3.org/2000/svg">
<path d="M23.8451 13.3305C23.6846 13.2216 23.4658 13.2636 23.3563 13.4237C23.3268 13.4669 22.6186 14.4808 21.318 14.4808C20.0173 14.4808 19.3091 13.4669 19.2804 13.4249C19.1508 13.2197 18.8249 13.2199 18.6955 13.4252C18.6884 13.4358 17.9721 14.4808 16.6599 14.4808C15.5599 14.4808 14.8838 13.7559 14.6839 13.5066V8.04817H23.6478C23.8424 8.04817 24.0001 7.89048 24.0001 7.69591C24.0001 7.50133 23.8424 7.34364 23.6478 7.34364H20.8151V4.7763C20.8151 2.44717 18.9427 0.534203 16.6412 0.511937C15.5089 0.500547 14.4412 0.934703 13.635 1.73312C13.2446 2.1197 12.9401 2.56867 12.7288 3.05706C12.0776 1.57427 10.6133 0.52839 8.91518 0.511937C8.90121 0.511797 8.88724 0.51175 8.87327 0.51175C7.75647 0.51175 6.70516 0.944547 5.9089 1.73312C5.10255 2.53173 4.65841 3.595 4.65841 4.72703V7.34369H0.379006C0.184428 7.34369 0.0267403 7.50137 0.0267403 7.69595C0.0267403 7.89053 0.184428 8.04822 0.379006 8.04822H4.65841V9.43928C4.65841 9.63386 4.8161 9.79155 5.01068 9.79155C5.20526 9.79155 5.36294 9.63386 5.36294 9.43928V4.72703C5.36294 3.78442 5.73288 2.89895 6.40469 2.23366C7.07627 1.56859 7.96469 1.20522 8.90843 1.21642C10.8251 1.23494 12.3845 2.83192 12.3845 4.7763V7.34364H11.4941V4.72703C11.4941 3.30672 10.339 2.13137 8.91926 2.10705C8.90426 2.10681 8.88944 2.10667 8.87449 2.10667C8.19462 2.10667 7.55041 2.37259 7.05626 2.85836C6.54597 3.35997 6.25333 4.05573 6.25333 4.76725V14.2216C5.78374 13.9857 5.48276 13.6528 5.3629 13.5026V10.8482C5.3629 10.6537 5.20521 10.496 5.01063 10.496C4.81605 10.496 4.65837 10.6537 4.65837 10.8482V13.5062C4.45774 13.7563 3.78171 14.4808 2.68221 14.4808C1.38157 14.4808 0.673381 13.4669 0.6446 13.4249C0.536037 13.2635 0.317178 13.2206 0.15574 13.3292C-0.00569719 13.4377 -0.0485878 13.6565 0.0599747 13.818C0.0974747 13.8738 0.9986 15.1853 2.68216 15.1853C3.83318 15.1853 4.61843 14.5724 5.01204 14.1667C5.40565 14.5724 6.19094 15.1853 7.34191 15.1853C8.49265 15.1853 9.27701 14.5727 9.67029 14.1669C10.064 14.5726 10.8492 15.1853 11.9999 15.1853C13.1509 15.1853 13.9362 14.5724 14.3298 14.1667C14.7234 14.5724 15.5087 15.1853 16.6597 15.1853C17.8104 15.1853 18.5948 14.5727 18.9881 14.1669C19.3818 14.5726 20.167 15.1853 21.3177 15.1853C23.0013 15.1853 23.9024 13.8738 23.9399 13.818C24.0483 13.657 24.0056 13.4394 23.8451 13.3305ZM6.95787 10.496H12.3845V11.4823H6.95787V10.496ZM12.3845 9.7915H6.95787V8.04817H12.3845V9.7915ZM7.55018 3.36081C7.91937 2.99791 8.40115 2.80286 8.90716 2.81148C9.94516 2.8293 10.7896 3.68861 10.7896 4.72708V7.34373H6.95791V4.7673C6.95787 4.24342 7.17377 3.7308 7.55018 3.36081ZM9.96251 13.4249C9.83308 13.2208 9.5088 13.2206 9.37844 13.4241C9.34901 13.4672 8.64241 14.4808 7.34205 14.4808C7.20747 14.4808 7.07965 14.4694 6.95787 14.4499V12.1868H12.3845V14.4499C12.2627 14.4694 12.1347 14.4808 12.0001 14.4808C10.6995 14.4808 9.99124 13.4669 9.96251 13.4249ZM13.089 14.2214V4.72703C13.089 3.78442 13.4589 2.89895 14.1307 2.23366C14.8023 1.56859 15.6908 1.20522 16.6344 1.21642C18.5511 1.23494 20.1105 2.83192 20.1105 4.7763V7.34364H19.2201V6.56059C19.2201 6.36602 19.0624 6.20833 18.8679 6.20833C18.6733 6.20833 18.5156 6.36602 18.5156 6.56059V7.34364H14.6838V4.7672C14.6838 4.24338 14.8998 3.73075 15.2762 3.36072C15.6454 2.99781 16.1262 2.80277 16.6331 2.81139C17.6711 2.8292 18.5156 3.68852 18.5156 4.72698V5.15158C18.5156 5.34616 18.6733 5.50384 18.8679 5.50384C19.0624 5.50384 19.2201 5.34616 19.2201 5.15158V4.72698C19.2201 3.30667 18.065 2.13133 16.6453 2.107C16.6303 2.10677 16.6155 2.10662 16.6005 2.10662C15.9206 2.10662 15.2765 2.37255 14.7823 2.85831C14.2721 3.35992 13.9794 4.05569 13.9794 4.7672V13.5021C13.8592 13.6529 13.5582 13.9857 13.089 14.2214Z" fill="#01292B"/>
<path d="M9.67208 18.7838C8.37144 18.7838 7.66326 17.77 7.63447 17.728C7.50515 17.5239 7.1811 17.5237 7.0506 17.7268C7.02112 17.77 6.31288 18.7839 5.01229 18.7839C3.71169 18.7839 3.00346 17.77 2.97468 17.728C2.86612 17.5665 2.64726 17.5237 2.48582 17.6323C2.32438 17.7408 2.28149 17.9596 2.39005 18.1211C2.42755 18.1769 3.32863 19.4884 5.01224 19.4884C6.16326 19.4884 6.94851 18.8754 7.34211 18.4698C7.73572 18.8754 8.52102 19.4884 9.67204 19.4884C9.86662 19.4884 10.0243 19.3307 10.0243 19.1361C10.0243 18.9415 9.86666 18.7838 9.67208 18.7838Z" fill="#01292B"/>
<path d="M21.5155 17.6333C21.3549 17.5246 21.1361 17.5669 21.0267 17.7271C20.9973 17.7703 20.2908 18.7838 18.9903 18.7838C17.6897 18.7838 16.9815 17.77 16.9527 17.728C16.8233 17.5229 16.4976 17.5229 16.3681 17.728C16.361 17.7385 15.643 18.7838 14.3305 18.7838C13.0299 18.7838 12.3217 17.77 12.2929 17.728C12.1635 17.5238 11.8392 17.5237 11.7088 17.7271C11.706 17.7312 11.4218 18.1424 10.8974 18.4485C10.7294 18.5466 10.6727 18.7623 10.7708 18.9303C10.8689 19.0983 11.0845 19.1549 11.2526 19.057C11.5762 18.8681 11.8264 18.6485 12.0003 18.4694C12.3939 18.8751 13.1792 19.4884 14.3305 19.4884C15.4815 19.4884 16.2668 18.8754 16.6604 18.4698C17.054 18.8754 17.8393 19.4884 18.9903 19.4884C20.6741 19.4884 21.5735 18.1766 21.6109 18.1208C21.7191 17.9596 21.6762 17.742 21.5155 17.6333Z" fill="#01292B"/>
</svg>
