<svg width="19" height="19" viewBox="0 0 19 19" fill="none" xmlns="http://www.w3.org/2000/svg">
<path d="M8.5498 2.84996C8.5498 2.90679 8.56509 2.96257 8.59407 3.01146C8.62305 3.06034 8.66465 3.10052 8.71451 3.1278L9.64076 3.63426L10.1578 4.872C10.1818 4.92964 10.2224 4.97888 10.2744 5.01351C10.3264 5.04814 10.3875 5.06662 10.45 5.06662C10.5124 5.06662 10.5735 5.04814 10.6255 5.01351C10.6775 4.97888 10.7181 4.92964 10.7422 4.872L11.2592 3.63426L12.1854 3.1278C12.2353 3.10053 12.2769 3.06034 12.3059 3.01146C12.3348 2.96257 12.3501 2.90679 12.3501 2.84996C12.3501 2.79313 12.3348 2.73735 12.3059 2.68846C12.2769 2.63958 12.2353 2.59939 12.1854 2.57212L11.2592 2.06566L10.742 0.827925C10.7179 0.770278 10.6773 0.721042 10.6253 0.68641C10.5734 0.651779 10.5123 0.633301 10.4498 0.633301C10.3873 0.633301 10.3263 0.651779 10.2743 0.68641C10.2223 0.721042 10.1817 0.770278 10.1576 0.827925L9.6406 2.06566L8.71435 2.57212C8.66452 2.59942 8.62296 2.63961 8.594 2.68849C8.56505 2.73738 8.54979 2.79315 8.5498 2.84996ZM10.0421 2.56801C10.1052 2.5335 10.1546 2.47856 10.1823 2.41221L10.4498 1.77155L10.7174 2.41221C10.7451 2.47856 10.7946 2.5335 10.8577 2.56801L11.3732 2.84996L10.8575 3.13191C10.7944 3.16642 10.745 3.22136 10.7173 3.28771L10.4498 3.92837L10.1822 3.28771C10.1545 3.22136 10.105 3.16642 10.0419 3.13191L9.5264 2.84996L10.0421 2.56801Z" fill="#01292B"/>
<path d="M17.4167 4.43333C17.1061 4.43311 16.8023 4.5243 16.5432 4.69553C16.2841 4.86676 16.0812 5.11046 15.9596 5.39625C15.8381 5.68204 15.8033 5.99728 15.8597 6.30269C15.9161 6.6081 16.0611 6.89016 16.2767 7.11371C16.0798 7.23768 15.9353 7.42966 15.8707 7.65316C15.8061 7.87666 15.8259 8.1161 15.9262 8.32599L15.2226 9.02967C15.0038 9.24826 14.7728 9.45421 14.5306 9.64649C14.5544 9.6013 14.5667 9.55103 14.5667 9.5V5.2698C14.7275 5.08746 14.8324 4.86268 14.869 4.62231C14.9055 4.38193 14.8721 4.13612 14.7727 3.91423C14.6734 3.69233 14.5122 3.50372 14.3086 3.37092C14.1049 3.23812 13.8673 3.16674 13.6242 3.16531C13.3811 3.16387 13.1426 3.23244 12.9374 3.36282C12.7322 3.49321 12.5689 3.6799 12.4669 3.90061C12.3649 4.12131 12.3286 4.36671 12.3623 4.6075C12.396 4.84829 12.4982 5.07429 12.6569 5.25852C11.8015 6.06069 10.6727 6.50713 9.5 6.50713C8.32729 6.50713 7.19855 6.06069 6.34311 5.25852C6.50177 5.07429 6.60405 4.84829 6.63775 4.6075C6.67145 4.36671 6.63513 4.12131 6.53314 3.90061C6.43115 3.6799 6.26779 3.49321 6.06258 3.36282C5.85736 3.23244 5.61896 3.16387 5.37583 3.16531C5.1327 3.16674 4.89512 3.23812 4.69145 3.37092C4.48779 3.50372 4.32665 3.69233 4.22728 3.91423C4.1279 4.13612 4.09449 4.38193 4.13103 4.62231C4.16756 4.86268 4.27251 5.08746 4.43333 5.2698V9.5C4.43332 9.55102 4.44571 9.60128 4.46944 9.64645C4.22725 9.45417 3.99624 9.24823 3.77752 9.02963L3.07385 8.32599C3.1742 8.11609 3.19394 7.87664 3.12932 7.65314C3.0647 7.42964 2.92022 7.23767 2.72333 7.11371C2.93893 6.89003 3.08396 6.60786 3.14036 6.30235C3.19676 5.99684 3.16203 5.68149 3.04051 5.39557C2.91898 5.10965 2.71603 4.8658 2.45692 4.69439C2.19781 4.52298 1.89401 4.43159 1.58333 4.43159C1.27266 4.43159 0.968854 4.52298 0.709748 4.69439C0.450642 4.8658 0.247688 5.10965 0.126162 5.39557C0.00463707 5.68149 -0.0300892 5.99684 0.0263085 6.30235C0.0827062 6.60786 0.227736 6.89003 0.443334 7.11371C0.292414 7.20881 0.171338 7.34449 0.0939779 7.50523C0.0166183 7.66596 -0.0138943 7.84524 0.00593647 8.02251C0.0257672 8.19979 0.0951392 8.36789 0.206103 8.50755C0.317066 8.64722 0.465133 8.7528 0.633334 8.81219V17.1534C0.448396 17.2184 0.28817 17.3391 0.17474 17.499C0.0613101 17.6589 0.000259088 17.85 7.94637e-07 18.046V18.6833C7.94637e-07 18.7673 0.0333638 18.8479 0.0927503 18.9072C0.152137 18.9666 0.232682 19 0.316668 19H2.85C2.93399 19 3.01453 18.9666 3.07392 18.9072C3.13331 18.8479 3.16667 18.7673 3.16667 18.6833V18.046C3.16642 17.85 3.10537 17.6589 2.99194 17.499C2.87851 17.3391 2.71828 17.2183 2.53333 17.1533V10.2645L2.78908 10.5202C3.60258 11.3352 4.55836 11.9945 5.6092 12.4654L3.50063 18.5801C3.48418 18.6278 3.47937 18.6787 3.48659 18.7287C3.49382 18.7786 3.51287 18.8261 3.54216 18.8672C3.57144 18.9082 3.61012 18.9417 3.65498 18.9648C3.69983 18.9879 3.74955 19 3.8 19H15.2C15.2505 19 15.3002 18.9879 15.345 18.9648C15.3899 18.9417 15.4286 18.9082 15.4579 18.8672C15.4871 18.8261 15.5062 18.7786 15.5134 18.7287C15.5206 18.6787 15.5158 18.6278 15.4994 18.5801L13.391 12.4653C14.4419 11.9944 15.3976 11.3352 16.2111 10.5202L16.4669 10.2645V17.1534C16.2819 17.2183 16.1216 17.3391 16.0082 17.499C15.8947 17.6588 15.8336 17.85 15.8333 18.046V18.6833C15.8333 18.7673 15.8667 18.8479 15.9261 18.9072C15.9855 18.9666 16.066 19 16.15 19H18.6833C18.7673 19 18.8479 18.9666 18.9073 18.9072C18.9666 18.8479 19 18.7673 19 18.6833V18.046C18.9998 17.85 18.9387 17.6589 18.8253 17.499C18.7118 17.3391 18.5516 17.2183 18.3667 17.1533V8.81219C18.5349 8.7528 18.6829 8.64722 18.7939 8.50755C18.9049 8.36789 18.9742 8.19979 18.9941 8.02251C19.0139 7.84524 18.9834 7.66596 18.906 7.50523C18.8287 7.34449 18.7076 7.20881 18.5567 7.11371C18.7722 6.89016 18.9173 6.6081 18.9736 6.30269C19.03 5.99728 18.9953 5.68204 18.8737 5.39625C18.7522 5.11046 18.5492 4.86676 18.2901 4.69553C18.031 4.5243 17.7272 4.43311 17.4167 4.43333ZM17.4167 5.06666C17.6046 5.06666 17.7882 5.12238 17.9445 5.22676C18.1007 5.33115 18.2225 5.47952 18.2944 5.65311C18.3663 5.8267 18.3851 6.01772 18.3484 6.202C18.3118 6.38628 18.2213 6.55555 18.0884 6.68841C17.9556 6.82127 17.7863 6.91175 17.602 6.94841C17.4177 6.98506 17.2267 6.96625 17.0531 6.89435C16.8795 6.82244 16.7312 6.70068 16.6268 6.54445C16.5224 6.38823 16.4667 6.20455 16.4667 6.01666C16.467 5.7648 16.5671 5.52333 16.7452 5.34523C16.9233 5.16714 17.1648 5.06695 17.4167 5.06666ZM17.1 17.1V8.86666H17.7333V17.1H17.1ZM13.3 5.6599C13.5077 5.71335 13.7256 5.71335 13.9333 5.6599V9.18333H13.3V5.6599ZM13.6167 3.79999C13.7419 3.79999 13.8644 3.83714 13.9685 3.90673C14.0727 3.97632 14.1539 4.07523 14.2018 4.19096C14.2497 4.30669 14.2623 4.43403 14.2378 4.55688C14.2134 4.67974 14.1531 4.79259 14.0645 4.88116C13.9759 4.96974 13.8631 5.03005 13.7402 5.05449C13.6174 5.07893 13.49 5.06639 13.3743 5.01845C13.2586 4.97052 13.1597 4.88934 13.0901 4.78519C13.0205 4.68104 12.9833 4.55859 12.9833 4.43333C12.9835 4.26542 13.0503 4.10444 13.1691 3.98571C13.2878 3.86698 13.4488 3.80019 13.6167 3.79999ZM5.06667 5.6599C5.2744 5.71335 5.49227 5.71335 5.7 5.6599V9.18333H5.06667V5.6599ZM5.38334 3.79999C5.5086 3.79999 5.63105 3.83714 5.7352 3.90673C5.83935 3.97632 5.92052 4.07523 5.96846 4.19096C6.01639 4.30669 6.02894 4.43403 6.0045 4.55688C5.98006 4.67974 5.91974 4.79259 5.83117 4.88116C5.7426 4.96974 5.62975 5.03005 5.50689 5.05449C5.38404 5.07893 5.25669 5.06639 5.14097 5.01845C5.02524 4.97052 4.92633 4.88934 4.85674 4.78519C4.78715 4.68104 4.75 4.55859 4.75 4.43333C4.7502 4.26542 4.81699 4.10444 4.93572 3.98571C5.05445 3.86698 5.21543 3.80019 5.38334 3.79999ZM4.75 9.81666H6.01667C6.10065 9.81666 6.1812 9.7833 6.24059 9.72391C6.29997 9.66453 6.33333 9.58398 6.33333 9.5V6.07849C7.24525 6.76755 8.35703 7.14036 9.5 7.14036C10.643 7.14036 11.7548 6.76755 12.6667 6.07849V9.5C12.6667 9.58398 12.7 9.66453 12.7594 9.72391C12.8188 9.7833 12.8994 9.81666 12.9833 9.81666H14.25C14.2738 9.8166 14.2974 9.81387 14.3206 9.80851C13.8429 10.1629 13.3274 10.4632 12.7835 10.704L12.3327 9.39676C12.3112 9.33446 12.2708 9.28041 12.2172 9.24215C12.1635 9.20389 12.0992 9.18333 12.0333 9.18333H6.96667C6.90076 9.18333 6.8365 9.20389 6.78284 9.24215C6.72917 9.28041 6.68878 9.33446 6.6673 9.39676L6.21652 10.704C5.67266 10.4632 5.15715 10.1629 4.67942 9.80851C4.70257 9.81387 4.72624 9.8166 4.75 9.81666ZM12.1942 10.9382C10.4508 11.5539 8.54912 11.5539 6.80572 10.9382L7.19229 9.81666H11.8077L12.1942 10.9382ZM1.26667 17.1V8.86666H1.9V17.1H1.26667ZM0.950001 7.59999H2.21667C2.30065 7.59999 2.3812 7.63336 2.44058 7.69274C2.49997 7.75213 2.53333 7.83268 2.53333 7.91666C2.53333 8.00065 2.49997 8.08119 2.44058 8.14058C2.3812 8.19997 2.30065 8.23333 2.21667 8.23333H0.950001C0.866016 8.23333 0.78547 8.19997 0.726084 8.14058C0.666697 8.08119 0.633334 8.00065 0.633334 7.91666C0.633334 7.83268 0.666697 7.75213 0.726084 7.69274C0.78547 7.63336 0.866016 7.59999 0.950001 7.59999ZM1.58333 5.06666C1.77123 5.06666 1.9549 5.12238 2.11113 5.22676C2.26735 5.33115 2.38912 5.47952 2.46102 5.65311C2.53292 5.8267 2.55174 6.01772 2.51508 6.202C2.47842 6.38628 2.38795 6.55555 2.25509 6.68841C2.12223 6.82127 1.95295 6.91175 1.76867 6.94841C1.58439 6.98506 1.39337 6.96625 1.21979 6.89435C1.0462 6.82244 0.897826 6.70068 0.793438 6.54445C0.689051 6.38823 0.633334 6.20455 0.633334 6.01666C0.633628 5.7648 0.733811 5.52333 0.911907 5.34523C1.09 5.16714 1.33147 5.06695 1.58333 5.06666ZM2.53333 18.3667H0.633334V18.046C0.633439 17.9631 0.666419 17.8837 0.72504 17.825C0.783662 17.7664 0.863139 17.7334 0.946043 17.7333H2.22063C2.30353 17.7334 2.38301 17.7664 2.44163 17.825C2.50025 17.8837 2.53323 17.9631 2.53333 18.046V18.3667ZM4.24417 18.3667L6.19622 12.7057C8.32748 13.4981 10.6725 13.4981 12.8038 12.7057L14.7558 18.3667H4.24417ZM15.7629 10.0724C14.9404 10.8949 13.964 11.5473 12.8894 11.9924C11.8148 12.4376 10.663 12.6667 9.49984 12.6667C8.33668 12.6667 7.18491 12.4376 6.11029 11.9924C5.03567 11.5473 4.05925 10.8949 3.23677 10.0724L2.53333 9.36882V8.81219C2.56487 8.80104 2.5958 8.78824 2.626 8.77384L3.32963 9.47751C4.96613 11.114 7.18567 12.0333 9.5 12.0333C11.8143 12.0333 14.0339 11.114 15.6704 9.47751L16.374 8.77384C16.4042 8.78824 16.4351 8.80104 16.4667 8.81219V9.36882L15.7629 10.0724ZM18.3667 18.3667H16.4667V18.046C16.4668 17.9631 16.4998 17.8837 16.5584 17.825C16.617 17.7664 16.6965 17.7334 16.7794 17.7333H18.054C18.1369 17.7334 18.2163 17.7664 18.275 17.825C18.3336 17.8837 18.3666 17.9631 18.3667 18.046V18.3667ZM18.05 8.23333H16.7833C16.6994 8.23333 16.6188 8.19997 16.5594 8.14058C16.5 8.08119 16.4667 8.00065 16.4667 7.91666C16.4667 7.83268 16.5 7.75213 16.5594 7.69274C16.6188 7.63336 16.6994 7.59999 16.7833 7.59999H18.05C18.134 7.59999 18.2145 7.63336 18.2739 7.69274C18.3333 7.75213 18.3667 7.83268 18.3667 7.91666C18.3667 8.00065 18.3333 8.08119 18.2739 8.14058C18.2145 8.19997 18.134 8.23333 18.05 8.23333Z" fill="#01292B"/>
<path d="M6.9668 0.633301H7.60013V1.26663H6.9668V0.633301Z" fill="#01292B"/>
<path d="M8.23438 0.633301H8.86771V1.26663H8.23438V0.633301Z" fill="#01292B"/>
<path d="M7.59863 0H8.23197V0.633333H7.59863V0Z" fill="#01292B"/>
<path d="M7.59863 1.26685H8.23197V1.90018H7.59863V1.26685Z" fill="#01292B"/>
<path d="M7.59863 4.1167H8.23197V4.75003H7.59863V4.1167Z" fill="#01292B"/>
<path d="M14.5674 0.633301H15.2007V1.26663H14.5674V0.633301Z" fill="#01292B"/>
<path d="M4.11719 0.949951H4.75052V1.58328H4.11719V0.949951Z" fill="#01292B"/>
</svg>
