<svg width="25" height="18" viewBox="0 0 25 18" fill="none" xmlns="http://www.w3.org/2000/svg">
<path d="M19.8665 8.01117C20.0404 7.75754 20.078 7.4348 19.9672 7.14793C19.6421 6.30675 18.8179 5.74161 17.9162 5.74161H16.643V4.6018C17.0708 4.45055 17.3782 4.04231 17.3782 3.56335V3.02505C17.3782 2.71466 17.1257 2.4621 16.8153 2.4621H15.7387C15.4283 2.4621 15.1758 2.71466 15.1758 3.02505V3.56335C15.1758 4.04231 15.4832 4.45055 15.9109 4.6018V5.74161H13.595V3.10655C13.6392 2.59206 13.1598 2.07279 12.7868 1.73092V0.366028C12.7868 0.163834 12.623 0 12.4208 0C12.2187 0 12.0548 0.163834 12.0548 0.366028V1.73092C11.6825 2.08807 11.2331 2.51407 11.2466 3.10655V5.74161H8.93065V4.6018C9.35846 4.45055 9.66588 4.04231 9.66588 3.56335V3.02505C9.66588 2.71466 9.41337 2.4621 9.10293 2.4621H8.02632C7.71593 2.4621 7.46337 2.71466 7.46337 3.02505V3.56335C7.46337 4.04231 7.77078 4.45055 8.1986 4.6018V5.74161H6.94527C6.04352 5.74161 5.21928 6.30675 4.89429 7.14793C4.66301 7.69278 5.10337 8.4244 5.76393 8.4162H10.4531V9.25494C10.4531 9.84839 10.9359 10.3312 11.5294 10.3312H12.0647V15.2348L10.3483 16.6162C9.95948 16.8768 10.122 17.6016 10.6695 17.6052L14.1926 17.6032C14.671 17.6151 14.9482 16.9457 14.5125 16.6138L12.7968 15.2395V10.3312H13.3321C13.9256 10.3312 14.4084 9.84839 14.4084 9.25494V8.05017C14.4084 7.84798 14.2445 7.68414 14.0423 7.68414H5.76398C5.67442 7.66423 5.55173 7.65383 5.5772 7.41177C5.79399 6.85062 6.34381 6.47361 6.94532 6.47361H17.9162C18.5177 6.47361 19.0675 6.85062 19.2843 7.41177C19.298 7.50249 19.3326 7.62065 19.0975 7.68414H15.7884C15.5863 7.68414 15.4224 7.84798 15.4224 8.05017C15.4224 8.25236 15.5863 8.4162 15.7884 8.4162H19.0976C19.4051 8.4162 19.6925 8.26481 19.8665 8.01117ZM15.9078 3.1941H16.6462V3.5633C16.6462 3.76686 16.4806 3.93245 16.277 3.93245C16.0735 3.93245 15.9079 3.76681 15.9079 3.5633L15.9078 3.1941ZM8.19542 3.1941H8.93382V3.5633C8.93382 3.76686 8.76818 3.93245 8.56462 3.93245C8.36106 3.93245 8.19542 3.76681 8.19542 3.5633V3.1941ZM11.197 16.8728L12.4281 15.8821L13.6632 16.8714L11.197 16.8728ZM13.6763 8.4162V9.25494C13.6763 9.44473 13.5219 9.59915 13.3321 9.59915H11.5294C11.3396 9.59915 11.1852 9.44473 11.1852 9.25494V8.4162H13.6763ZM11.9787 5.74161V3.10655C12.2576 2.06283 12.7332 2.46156 12.863 3.10655V5.74161H11.9787Z" fill="#01292B"/>
<path d="M5.91227 12.9311C5.89597 12.887 5.8766 12.8447 5.85595 12.8033C6.57342 12.8995 7.26492 12.4273 7.27204 11.678C7.27204 11.0574 6.76722 10.5526 6.14673 10.5526H2.25063V6.67642C2.25063 6.47423 2.08675 6.31039 1.8846 6.31039C1.68246 6.31039 1.51858 6.47423 1.51858 6.67642V10.6023C1.51858 10.9786 1.82467 11.2846 2.2009 11.2846H6.14668C6.36351 11.2846 6.53994 11.461 6.53994 11.6779C6.53994 11.8948 6.36351 12.0712 6.14668 12.0712H2.2009C1.39095 12.0712 0.732055 11.4123 0.732055 10.6024V4.20105C0.732055 3.98421 0.908481 3.80774 1.12532 3.80774C1.34215 3.80774 1.51858 3.98416 1.51858 4.20105V4.95292C1.51858 5.15511 1.68246 5.31895 1.8846 5.31895C2.08675 5.31895 2.25063 5.15511 2.25063 4.95292V4.20105C2.25063 3.58051 1.74581 3.07568 1.12532 3.07568C0.504825 3.07568 0 3.58051 0 4.20105V10.6024C0 11.7519 0.88608 12.6979 2.011 12.7945C1.98192 12.8522 1.95634 12.9123 1.9356 12.9751L0.562706 17.1241C0.499213 17.3161 0.603311 17.5231 0.795207 17.5866C0.987152 17.6502 1.19418 17.546 1.25767 17.3541L2.63062 13.205C2.71012 12.9647 2.93359 12.8033 3.18678 12.8033H4.67661C4.92044 12.8033 5.14118 12.9569 5.2259 13.1855L6.77561 17.3663C6.85902 17.4976 6.98049 17.665 7.24603 17.5823C7.43558 17.5121 7.53226 17.3015 7.46199 17.1119L5.91227 12.9311Z" fill="#01292B"/>
<path d="M24.9 10.6024V4.20105C24.9 3.58051 24.3952 3.07568 23.7747 3.07568C23.1541 3.07568 22.6493 3.58051 22.6493 4.20105V10.5526H18.7533C18.1328 10.5526 17.6279 11.0574 17.6279 11.678C17.6195 12.4196 18.335 12.897 19.044 12.8033C19.0233 12.8447 19.004 12.887 18.9877 12.9311L17.4379 17.1119C17.3677 17.3015 17.4644 17.5121 17.6539 17.5823C17.7938 17.6301 18.0169 17.5952 18.1244 17.3663L19.6741 13.1855C19.7589 12.9569 19.9796 12.8033 20.2234 12.8033H21.7132C21.9664 12.8033 22.1899 12.9648 22.2694 13.2051L23.6424 17.3541C23.7059 17.546 23.9127 17.6502 24.1049 17.5866C24.2968 17.5231 24.4009 17.3161 24.3374 17.1241L22.9644 12.9751C22.9437 12.9124 22.9182 12.8523 22.8891 12.7947C23.9527 12.727 24.9232 11.7321 24.9 10.6024ZM24.1679 10.6024C24.1835 11.3429 23.5159 12.0855 22.6991 12.0712H18.7533C18.2678 12.058 18.2286 11.3257 18.7533 11.2847H22.6991C23.0753 11.2847 23.3814 10.9787 23.3814 10.6024V4.20105C23.3814 3.98421 23.5578 3.80774 23.7747 3.80774C23.9915 3.80774 24.1679 3.98416 24.1679 4.20105V10.6024Z" fill="#01292B"/>
</svg>
